STARTFONT 2.3
FONT -FontForge-Butcherman-Book-R-Normal--28-280-72-72-P-151-ISO10646-1
SIZE 28 72 72  4
FONTBOUNDINGBOX 43 55 -3 -19
COMMENT "Generated by fontforge, http://fontforge.sourceforge.net"
COMMENT "Copyright (c) 2011, Typomondo, with Reserved Font Name  "Butcherman"."
STARTPROPERTIES 41
FOUNDRY "FontForge"
FAMILY_NAME "Butcherman"
WEIGHT_NAME "Book"
SLANT "R"
SETWIDTH_NAME "Normal"
ADD_STYLE_NAME ""
PIXEL_SIZE 28
POINT_SIZE 280
RESOLUTION_X 72
RESOLUTION_Y 72
SPACING "P"
AVERAGE_WIDTH 151
CHARSET_REGISTRY "ISO10646"
CHARSET_ENCODING "1"
FONTNAME_REGISTRY ""
CHARSET_COLLECTIONS "ISO8859-2 ISO8859-9 ISO8859-4 ISO10646-1"
BITS_PER_PIXEL 4
FONT_NAME "Butcherman-Regular"
FACE_NAME "Butcherman Regular"
COPYRIGHT "Copyright (c) 2011, Typomondo, with Reserved Font Name  "Butcherman"."
FONT_VERSION "001.004"
FONT_ASCENT 22
FONT_DESCENT 6
UNDERLINE_POSITION -3
UNDERLINE_THICKNESS 2
X_HEIGHT 20
CAP_HEIGHT 20
DEFAULT_CHAR 3
RAW_ASCENT 799
RAW_DESCENT 200
NORM_SPACE 5
RELATIVE_WEIGHT 40
RELATIVE_SETWIDTH 50
SUPERSCRIPT_X 0
SUPERSCRIPT_Y 9
SUPERSCRIPT_SIZE 16
SUBSCRIPT_X 0
SUBSCRIPT_Y 2
SUBSCRIPT_SIZE 16
AVG_LOWERCASE_WIDTH 162
AVG_UPPERCASE_WIDTH 155
ENDPROPERTIES
CHARS 331
STARTCHAR NULL.dup1
ENCODING 0
SWIDTH 161 0
DWIDTH 5 0
BBX 1 1 0 0
BITMAP
00
ENDCHAR
STARTCHAR CR
ENCODING 13
SWIDTH 161 0
DWIDTH 5 0
BBX 1 1 0 0
BITMAP
00
ENDCHAR
STARTCHAR space
ENCODING 32
SWIDTH 161 0
DWIDTH 5 0
BBX 1 1 0 0
BITMAP
00
ENDCHAR
STARTCHAR exclam
ENCODING 33
SWIDTH 350 0
DWIDTH 10 0
BBX 9 34 0 1
BITMAP
0017433000
3AEFFFFD60
2FFFFFFFC0
0FFFFFFF80
0AFFFFFE10
01EFFFFF10
03FFFFFD00
05FFFFFB00
07FFFFFA00
05FFFFF800
01FFFFF600
00BFFFF200
007FFFF100
004FFFF500
002FFFE200
001FFFE100
000FFFC000
000FFFE000
000FFFD000
000FFFC000
000EFFA000
000ABF7000
0000023000
0000000000
0000000000
1589CDEC60
1DFFFFFF70
07FFFFFF60
02FFFFFF70
01FFFFFFA0
00FFFFFF90
00FFFFFF80
01FFFFFF70
02BA853620
ENDCHAR
STARTCHAR quotedbl
ENCODING 34
SWIDTH 541 0
DWIDTH 15 0
BBX 13 11 1 10
BITMAP
4879850579B830
AFFFFB0AFFFF90
7FFFFA06FFFF80
3FFFFA02FFFF70
1FFFF800DFFF40
0DFFF400AFFF20
0AFFF3006FFF00
07FFF1003FFD00
04FFE0001FFA00
01FFD0000FF700
00742000083100
ENDCHAR
STARTCHAR numbersign
ENCODING 35
SWIDTH 583 0
DWIDTH 16 0
BBX 16 25 0 -3
BITMAP
0000001B80001CB2
0000005F80004FF0
000000AF50008FB0
000001FF2000EF70
000005FE0003FF30
000116FC0003FF10
008FFFFEDEEFFFDB
009FFFFFFFFFFFF4
009FFFFFFFFFFFF1
00AFFFFFFFFFFFE0
005AEFFFBEFFDFD0
0001FF2003FF5000
0005FD0005FF2000
0009F80008FC0000
000DF6000AF90000
112FF2000CF51100
AFFFFEEEEFFFF500
BFFFFFFFFFFFC000
BFFFFFFFFFFFA000
24CE8857BF795000
02FB0000CE000000
09F60003FA000000
0DF30007F6000000
0ED0000AF4000000
01500006B0000000
ENDCHAR
STARTCHAR dollar
ENCODING 36
SWIDTH 534 0
DWIDTH 15 0
BBX 13 36 1 -8
BITMAP
00000022000000
000004E7000000
000006F8000000
000007F8000000
000008F7000000
000009F6000000
000006FA000000
000007FC720000
0018EFFFFE7000
02DFFFFFFFFB10
0BFFFFFFFFFFB0
2EFFFFFFFFFFC0
AFFFFFFFFFFFC0
DFFFFFFFFFFFC0
EFFFFFFFFFFFA0
FFFFFFFFFFFF90
DFFFFD3CFFFF70
CFFFF907FFEF70
9FFFFE54322360
5FFFFFFFE60000
0AFFFFFFFF6000
006EFFFFFFE100
000159DEFFF600
0244420AFFF800
2FFFFB07FFF900
0CFFFE6FFFF300
05FFFFFFFF9000
00BFFFFFFF3000
001B8AFD770000
000005F4000000
000007F4000000
000009F4000000
00000AF4000000
00000AF4000000
000008E4000000
00000332000000
ENDCHAR
STARTCHAR percent
ENCODING 37
SWIDTH 828 0
DWIDTH 23 0
BBX 23 25 0 -3
BITMAP
00000000000002CB00000000
0000000000000BFA00000000
019EFE7000003FF800000000
09FFFFF800006FF300000000
2FFFFFFF2000AFC000000000
1FFFFFFF2000BFC000000000
0FFFEFFF3000DF9000000000
0EFB2FFF3001FF4000000000
0EF80EFF2005FE0005BB4000
0EF70EFF000CF9004FFFF400
0BF90EFA002FF300CFFFFD00
09FE7FF5007FD000EFFFFE00
04EFFFC000DF7000CFFFFF10
0007EB3004FF3000BFDFFF10
000010000AFF1000AFCFFF10
000000002FFC0001EFBFFF30
000000004FF60005FE1BFF20
000000000EE10004FF5EFA00
000000002FA00001EFFFF400
000000008F40000007CE7000
00000000EF10000000120000
00000005FB00000000000000
00000007F900000000000000
00000008D600000000000000
000000014100000000000000
ENDCHAR
STARTCHAR ampersand
ENCODING 38
SWIDTH 522 0
DWIDTH 15 0
BBX 13 15 1 3
BITMAP
00009A98300000
0000EFFF900000
0000DFFF900000
0000DFFF700000
1111CFFF700010
DFFFFFFFEDEF70
DFFFFFFFFFFF60
DFFFFFFFFFFF60
DFFFFFFFFFFF50
8DDEFFFFEEFE30
0000EFFF800000
0000EFFF800000
0000EFFF700000
0000EFFF400000
00004555000000
ENDCHAR
STARTCHAR quotesingle
ENCODING 39
SWIDTH 300 0
DWIDTH 8 0
BBX 6 11 1 10
BITMAP
577984
8FFFFC
5FFFFC
3FFFFC
0FFFF9
0DFFF7
0AFFF5
08FFF4
05FFF2
02FFF1
009440
ENDCHAR
STARTCHAR parenleft
ENCODING 40
SWIDTH 372 0
DWIDTH 10 0
BBX 9 28 1 -4
BITMAP
00000017C0
000019EFD0
0002DFFFC0
000CFFFFA0
007FFFFF80
00EFFFFF60
08FFFFFF40
1FFFFFFF20
4FFFFFFF10
6FFFFFEB10
9FFFFD1000
BFFFF60000
CFFFF30000
DFFFF10000
EFFFF00000
EFFFF00000
DFFFE00000
CFFFE10000
AFFFF20000
7FFFF50000
2FFFFC0000
0BFFFF5000
04FFFFF500
00DFFFFB00
004FFFFE00
0008FFFF00
00005DFC00
0000003000
ENDCHAR
STARTCHAR parenright
ENCODING 41
SWIDTH 338 0
DWIDTH 9 0
BBX 9 28 0 -4
BITMAP
0410000000
2FFC910000
4FFFFB1000
0FFFFFC100
0EFFFFF900
0DFFFFFE00
0CFFFFFF10
0BFFFFFF20
0AFFFFFF10
0AFFFFFF10
047EFFFF10
0005FFFF00
0001FFFF00
0000DFFE00
0000CFFD00
0000CFFC00
0000CFFB00
0000DFF900
0001FFF800
0003FFF600
0005FFF300
0009FFE000
000CFFA000
025EFF5000
1EFFF90000
5FFFC00000
6FFE200000
3883000000
ENDCHAR
STARTCHAR asterisk
ENCODING 42
SWIDTH 513 0
DWIDTH 14 0
BBX 14 17 0 6
BITMAP
00000000130000
000011004E3000
0003E9005FE000
000BFF20CFE000
0007FF94FF9000
0001FFECFF4000
0000BFFFFE1000
28648FFFFA6530
2FFFFFFFFFFFFA
3FFFFFFFFFFFF4
08ABBFFFFCA991
00002FFFFB0000
00005FFEFF1000
0000AFF7FF9000
0002FFB1EFE000
0006FF607FD100
00030A10020000
ENDCHAR
STARTCHAR plus
ENCODING 43
SWIDTH 458 0
DWIDTH 13 0
BBX 11 13 1 4
BITMAP
000120000000
0008FFF50000
0007FFF50000
0006FFF30000
7AACFFF98950
BFFFFFFFFF70
BFFFFFFFFF70
BFFFFFFFFF60
589CFFF96A30
0008FFF50000
0008FFF40000
0008FFF40000
000133300000
ENDCHAR
STARTCHAR comma
ENCODING 44
SWIDTH 361 0
DWIDTH 10 0
BBX 8 15 1 -5
BITMAP
37964462
7FFFFFF8
8FFFFFF9
8FFFFFF9
9FFFFFFA
AFFFFFF9
AFFFFFF9
BFFFFFF9
6A8BDFF9
00005FF7
00008FF5
0000BFF2
0000DFF0
0000DFD0
00001000
ENDCHAR
STARTCHAR hyphen
ENCODING 45
SWIDTH 478 0
DWIDTH 13 0
BBX 11 6 1 8
BITMAP
277755655650
5FFFFFFFFFA0
6FFFFFFFFF50
6FFFFFFFFF20
7FFFFFFFFF20
37BDD9CAAE10
ENDCHAR
STARTCHAR period
ENCODING 46
SWIDTH 374 0
DWIDTH 10 0
BBX 9 9 1 1
BITMAP
377ACDC900
7FFFFFFE00
3FFFFFFE00
1FFFFFFD00
0FFFFFFF10
0EFFFFFF00
0DFFFFFF00
0CFFFFFE00
09A8436500
ENDCHAR
STARTCHAR slash
ENCODING 47
SWIDTH 291 0
DWIDTH 8 0
BBX 10 25 -1 -3
BITMAP
0000001BB1
0000005FD0
000000AFB0
000001EF70
000005FF10
000004FE00
000008FC00
00000CF800
00002FF300
0000AFD000
0001FF9000
0005FF4000
0009FE0000
000CF90000
001FF70000
005FF20000
006FC00000
006F700000
00AF300000
01EE000000
06F9000000
0BF4000000
1FF1000000
3DD0000000
0150000000
ENDCHAR
STARTCHAR zero
ENCODING 48
SWIDTH 528 0
DWIDTH 15 0
BBX 13 23 1 -2
BITMAP
00027997700000
007FFFFFFB1000
06FFFFFFFFC000
1EFFFFFFFFF900
8FFFFFFFFFFF40
AFFFFFFFFFFF30
AFFFFFFFFFFF30
9FFFFFFFFFFF60
7FFFFFFFFFFF50
7FFFF86FFFFF50
6FFFD00EFFFF60
6FFFA00DFFFF50
5FFFA00BFFFF30
4FFFA008FFFF20
3FFFA00AFFFF00
2FFFA00CFFFB00
0EFFF01FFFF400
0BFFF43FFFE000
09FFFDDFFFC000
06FFFFFFFF6000
0099FFFFFC0000
000098FFB40000
000003A8000000
ENDCHAR
STARTCHAR one
ENCODING 49
SWIDTH 366 0
DWIDTH 10 0
BBX 9 22 0 -1
BITMAP
0000039A50
00159FFFA0
5AFFFFFF90
DFFFFFFF90
7FEFFFFFC0
251FFFFFF0
000EFFFFD0
000CFFFFB0
000BFFFFA0
0009FFFF70
0008FFFF20
0007FFFF40
0006FFFF40
0004FFFF40
0003FFFF00
0002FFFD00
0000FFFF00
0000EFFE00
0000DFFD00
0000CFFC00
000084DD00
0000001510
ENDCHAR
STARTCHAR two
ENCODING 50
SWIDTH 575 0
DWIDTH 16 0
BBX 15 24 1 -3
BITMAP
0003BBBA72000000
006FFFFFFE300000
08EFFFFFFFE60000
3FFFFFFFFFFF2000
8FFFFFFFFFFF7000
7FFFFFFFFFFFB000
8FFFFFFFFFFFD000
8FFFFFFFFFFFC000
7FFFFFFFFFFFB000
6FFFFE8EFFFF9000
4FFFF508FFFF6000
2FFFF11CFFFF4000
074661AFFFFF1000
0000009FFFFA0000
000000CFFFF30000
000003FFFF900000
00001DFFFF200000
0002DFFFFFCA8B80
1CAEFFFFFFFFFF70
5FFFFFFFFFFFFF40
6FFFFFFFFECFFF10
9FFFFDEC837AFE00
8BEB44620153E400
000000000000A000
ENDCHAR
STARTCHAR three
ENCODING 51
SWIDTH 517 0
DWIDTH 15 0
BBX 14 23 0 -2
BITMAP
00005899720000
002CFFFFFE3000
02DFFFFFFFE300
0DFFFFFFFFFD10
1EFFFFFFFFFF80
0CFFFFFFFFFFD0
0BFFFFFFFFFFF0
0AFFFFFFFFFFF1
09FFFFFFFFFFF1
08FFFFA8FFFFF1
07FFFF23FFFFF0
06C76406FFFFB0
0000014CFFFF60
000004FFFFFF20
000003FFFFFF50
000000569FFFC0
000000012FFFE0
0004CDD60EFFD0
0008FFFA2FFF80
0002EFFFFFFE20
00008FFFFFF900
00002EFFEEE200
00000462111000
ENDCHAR
STARTCHAR four
ENCODING 52
SWIDTH 466 0
DWIDTH 13 0
BBX 12 28 1 -7
BITMAP
4BAA998BBDC2
0AFFFFFFF710
02DFFFFF8000
06FFFFFC0000
09FFFFF70000
08FFFFF70000
0BFFFFE10000
0DFFFFA00000
1FFFFF600000
0DFFFF500000
1BFFFF200000
0AFFFE012000
0CFFFBBFFD60
0FFFF6BFFF20
2FFFF3AFFC00
3FFFF17FFB00
6FFFE38FF900
8FFFFFEFFDC6
AFFFFFFFFFF2
CFFFFFFFFFF1
FFFFFFFFFFF1
652168BFFFE1
0000002FF520
0000000FF000
0000000FF000
0000000FF000
0000000BE000
000000003000
ENDCHAR
STARTCHAR five
ENCODING 53
SWIDTH 583 0
DWIDTH 16 0
BBX 15 23 1 -2
BITMAP
5BBCCDCB97654420
8FFFFFFFFFFFFF90
7FFFFFFFFFFFFF60
8FFFFFFFFFFFFF40
4FFFFFFFFFFFFF20
8FFFFFFFFFFFFE00
9FFFFFFFFFFFFC00
7FFFFFFFFFFFFA00
5FFFFFFFFFFFF800
4FFFFCFFFFFFF600
9FFFF30234578300
7FFFF20000000000
2FFFF78AAAA20000
2FFFFFFFFFE10000
09FFFFFFFFF30000
01223568FFF90000
00000011FFFB0000
004BDD80CFFA0000
007FFFB2EFF60000
001EFFFFFFE10000
0007FFFFFF700000
0001EFFEEE100000
0000373111000000
ENDCHAR
STARTCHAR six
ENCODING 54
SWIDTH 582 0
DWIDTH 16 0
BBX 15 24 1 -3
BITMAP
0003686652000000
00AFFFFFFFC30000
1AFFFFFFFFFF5000
BFFFFFFFFFFFE200
BFFFFFFFFFFFFC00
EFFFFFFFFFFFFF40
DFFFFFFFFFFFFF20
CFFFFFFFFFFFFE00
AFFFFFFFFFFFFD00
8FFFFE8EFFFFF900
6FFFFB03FFFFF300
3FFFFA00CFFFD000
1FFFF6008DFFE000
0BFFF96740366100
06FFFFFFFECA3000
03FFFFCBEFFFE000
01FFFF000FFFF200
00FFFF300FFFF000
00EFFF803FFFD000
008FFFFDFFFFE000
003FFFFFFFFFE000
0008FFFFFFFFB000
000099CAD7D91000
0000103010100000
ENDCHAR
STARTCHAR seven
ENCODING 55
SWIDTH 624 0
DWIDTH 17 0
BBX 18 24 0 -3
BITMAP
002456789BCCDCCBB3
6FFFFFFFFFFFFFFFF1
4FFFFFFFFFFFFFFFC0
1FFFFFFFFFFFFFFF70
0DFFFFFFFFFFFFFE00
0AFFFFFFFFFFFFFE00
08FFFFFFFFFFFFFA00
07FFFFFFFFFFFFF400
05FFFFFFFFFFFFD000
03FFFFFFFEEFFF8000
0197654310EFFF9000
0000000003FFFF2000
0000000008FFFC0000
000000000EFFF50000
000000005FFFC00000
00000000AFFF700000
00000001FFFD000000
00000006FFF5000000
0000000BFFF1000000
0000001FFF90000000
0000007FFF20000000
000000CFFB00000000
000004FFF700000000
00000367A200000000
ENDCHAR
STARTCHAR eight
ENCODING 56
SWIDTH 459 0
DWIDTH 13 0
BBX 11 24 1 -3
BITMAP
016ABBA84000
3EFFFFFFFC10
CFFFFFFFFF80
EFFFFFFFFFB0
DFFFFFFFFFB0
CFFFFFFFFF90
AFFFFFFFFF80
8FFFFFFFFF50
5FFFFFFFFF30
3FFF81BFFF00
0FFF909FFC00
0CFF909FF900
09FFFBDFF600
02DFFFFFD000
00CFFFFF9000
04FFCCFFF000
04FF40DFF100
03FF60CFF000
02FF60EFE000
01FFFEFFD000
00BFFFFF8000
002DE9ED1000
000060100000
000030000000
ENDCHAR
STARTCHAR nine
ENCODING 57
SWIDTH 584 0
DWIDTH 16 0
BBX 15 25 1 -4
BITMAP
0000246A97200000
0009FFFFFFD30000
008FFFFFFFFF9000
07FFFFFFFFFFF800
1DFFFFFFFFFFF700
7FFFFFFFFFFFFA00
BFFFFFFFFFFFFD00
BFFFFFFFFFFFFF00
DFFFFFFFFFFFFF10
CFFFFF58FFFFFF20
AFFFFE00BFFFFF20
7FFFFF63AFFFFF10
1EFFFFFFFFFFFE00
06FFFFFFFFFFF900
007EFFFFFFFFF400
00003411AFFFD000
01568800AFFF9000
1DFFFF31DFFF3000
0AFFFF8AFFFD0000
04FFFFFFFFE20000
00BFFFFFFF900000
001AA8AA9A600000
0000006301100000
0000006100000000
0000005000000000
ENDCHAR
STARTCHAR colon
ENCODING 58
SWIDTH 386 0
DWIDTH 11 0
BBX 9 23 1 1
BITMAP
0558BB9700
AFFFFFFF10
2FFFFFFF00
0DFFFFFE00
0FFFFFFF10
0FFFFFFF20
0DFFFFFF20
0BFFFFFF20
0BDA668610
0000000000
0000000000
0000000000
0000000000
0000000000
389CEDC900
7FFFFFFC00
5FFFFFFC00
4FFFFFFE00
2FFFFFFF10
0FFFFFFF00
0CFFFFFE00
0AFFFFFD00
08A9425400
ENDCHAR
STARTCHAR semicolon
ENCODING 59
SWIDTH 375 0
DWIDTH 11 0
BBX 9 29 0 -5
BITMAP
01579ECC50
1CFFFFFFC0
06FFFFFFD0
02FFFFFFA0
01FFFFFFC0
02FFFFFFC0
02FFFFFFC0
00FFFFFFC0
01EC756740
0020000000
0000000000
0000000000
0000000000
0000000000
0387425740
06FFFFFFB0
05FFFFFFB0
02FFFFFFB0
03FFFFFFD0
05FFFFFFB0
06FFFFFFB0
09FFFFFFA0
04B9BDFFC0
000004FF90
000007FF70
00000AFF50
00000CFF40
00000BFF20
0000012400
ENDCHAR
STARTCHAR less
ENCODING 60
SWIDTH 459 0
DWIDTH 13 0
BBX 12 17 0 1
BITMAP
000013221110
0000AFFFFFFC
0000AFFFFFE2
0002FFFFFE20
0009FFFFF600
007FFFFFB000
07FFFFFE2000
1FFFFFF40000
1DFFFFE20000
06FFFFFD0000
01EFFFFF1000
002EFFFF9000
0004FFFFF800
00007FFFFF70
000008FFFFF9
0000007BAEEB
000000000020
ENDCHAR
STARTCHAR equal
ENCODING 61
SWIDTH 485 0
DWIDTH 14 0
BBX 11 9 1 8
BITMAP
2EFFDDEECEA0
3FFFFFFFFF90
4FFFFFFFFF80
035664533730
000000000000
265446765740
4FFFFFFFFF90
4FFFFFFFFF90
18AEDACB9C50
ENDCHAR
STARTCHAR greater
ENCODING 62
SWIDTH 432 0
DWIDTH 12 0
BBX 12 16 0 2
BITMAP
133332500000
1DFFFFFC0000
04FFFFFD0000
009FFFFF4000
000BFFFFE100
0002EFFFFA00
00007FFFFF70
000009FFFFF2
000019FFFFE1
00001FFFFF90
00007FFFFF60
0003FFFFF300
004EFFFF9000
06FFFFFE1000
0DFFFFF50000
08BBA9600000
ENDCHAR
STARTCHAR question
ENCODING 63
SWIDTH 577 0
DWIDTH 16 0
BBX 14 25 1 -3
BITMAP
0004CCCC840000
018FFFFFFF5000
09FFFFFFFFF900
4FFFFFFFFFFF50
8FFFFFFFFFFFB0
8FFFFFFFFFFFE0
8FFFFFFFFFFFF1
6FFFFFFFFFFFF0
3FFFFD5DFFFFE0
0EFFF607FFFFC0
0444530BFFFFA0
0000000EFFFE20
0000008FFFF700
000000BFFFF200
000000FFFF7000
000002FFFB0000
000005FFE10000
00000373300000
00000000000000
00003578500000
0002EFFFF20000
00009FFFF10000
00007FFFF20000
00006FFFF30000
00006EDBC10000
ENDCHAR
STARTCHAR at
ENCODING 64
SWIDTH 930 0
DWIDTH 26 0
BBX 26 31 0 -7
BITMAP
0000000019EFEDB92000000000
00000004EFFFFFFFE600000000
0000006FFFFFFFFFFFA0000000
000006FFFFB86569EFFB100000
00003FFE710000001CFFB00000
0001DFC1049BABB931CFFA0000
0008FD108FFFFFFFB12FFF6000
001EF405FFFFFFFFFC08FFE200
007FC00BFFFFFFFFFE01FFFA00
00DF700DFFFFFFFFFE00CFFF20
03FF300DFFFFFFFFFA008FFF80
08FF000BFFFFFFFFF8006FFFC0
0CFD0007FFFFCCFFF6005FFFF0
0EFC0002FFFD04FFF4004FFFF2
2FFB0000EFF801FFF3002FFFF3
0AFC0002DB5202FFF2000EFFF2
0AFD0000379DFEFFF1000BFFF1
0BFF0000DFFEBCFFF50009FFD0
0AFF3000EFF500EFFD0006FFA0
09FF7000DFF504FFFF7005FF70
06FFC000EFFD8CFFFFF848FF20
02FFF200EFFFFFFFECFFFFFB00
00CFF900BFFFFFFF59FFFFD300
005FFE101779896501ADA50000
000CFFB0000000000000000000
0003FFF7000000000000000000
00006FFF810000003000000000
000006FFFECBBCDFF200000000
0000004DFFFFFFFFFA00000000
000000017CFFFFEC8200000000
00000000001221000000000000
ENDCHAR
STARTCHAR A
ENCODING 65
SWIDTH 494 0
DWIDTH 14 0
BBX 13 27 0 -6
BITMAP
00122333210000
2CFFFFFFFFEC80
01AFFFFFFFFC10
001EFFFFFFF300
000FFFFFFFD000
000EFFFFFFB000
000DFFFFFFA000
001FFFFFFF9000
001FFFFFFF8000
000EFFFFFF6000
000DFFDFFF5000
000EFF9EFF4000
000EFF5DFF5000
001FFF3CFF5000
002FFF1BFF6000
000EFD5BFF4000
002FFFFFFF6000
004FFFFFFF4000
003FFFFFFF2000
000FFFAFFD0000
000DFF1AFB0000
000DF80BFA0000
000AD508E70000
000A2402650000
00050100830000
00000004300000
00000004000000
ENDCHAR
STARTCHAR B
ENCODING 66
SWIDTH 517 0
DWIDTH 14 0
BBX 14 23 0 -2
BITMAP
001368ABBA7300
2DFFFFFFFFFFA0
07FFFFFFFFFFF4
00BFFFFFFFFFF7
004FFFFFFFFFF7
001EFFFFFFFFF5
002FFFFFFFFFF4
000FFFFFFFFFF1
000DFFFFFFFFE0
000CFFF43EFFB0
000BFFF50DFF80
000BFFF50DFF60
000BFFFEAFFF30
000BFFFFFFF900
000AFFFFFFF500
0007FFFBDFFB00
0007FFE12FFD00
0003FFF21FFC00
0003FFF33FFB00
0003FFFFEFF900
0003FEFFFFF500
000180BCBFA000
00000011010000
ENDCHAR
STARTCHAR C
ENCODING 67
SWIDTH 504 0
DWIDTH 14 0
BBX 14 25 0 -4
BITMAP
000039BBBA2000
0006FFFFFFF500
009FFFFFFFFE60
06FFFFFFFFFFE2
0DFFFFFFFFFFF6
1FFFFFFFFFFFF5
3FFFFFFFFFFFF6
2FFFFFFFFFFFF6
1FFFFFFFFFFFF5
0EFFFFD6FFFFF4
0CFFFF508FFFF3
08FFFF603FFFF1
07FFFF60265560
05FFFF40000000
02FFFF20000000
00EFFF30385200
00BFFF508FFF50
00AFFF80CFFF10
003FFFE9FFFD00
000EFFFFFFF700
000AFFFFFFA100
00003D6AFE1000
00000806B10000
00000606900000
00000000100000
ENDCHAR
STARTCHAR D
ENCODING 68
SWIDTH 522 0
DWIDTH 15 0
BBX 14 25 1 -4
BITMAP
00001346761000
7ACEFFFFFFB000
BFFFFFFFFFFA10
7FFFFFFFFFFFA0
2FFFFFFFFFFFD0
0CFFFFFFFFFFF1
08FFFFFFFFFFF1
05FFFFFFFFFFF0
04FFFFFFFFFFE0
03FFFFE7CFFFB0
02FFFF802FFF90
00FFFF500EFF60
00DFFF400EFF20
00CFFF400DFE00
00AFFF501FFB00
008FFF404FF900
006FFF507FF700
003FFFB6DFF600
001FFFEFFFF500
003FFFFFFFF100
001FA3BFFF7000
001E009FC60000
000B0099400000
00060085200000
00000062000000
ENDCHAR
STARTCHAR E
ENCODING 69
SWIDTH 570 0
DWIDTH 16 0
BBX 15 23 0 -2
BITMAP
0136789998653100
1EFFFFFFFFFFFFB0
04FFFFFFFFFFFF40
00BFFFFFFFFFFF00
005FFFFFFFFFFC00
006FFFFFFFFFF700
005FFFFFFFFFF300
005FFFFFFFFFD000
004FFFFFFFFF9000
002FFFF858CF7000
001FFFF600001000
000EFFF844100000
000CFFFFFFF10000
000CFFFFFFE00000
000AFFFFFFE00000
0008FFFA88900000
0006FFF300000000
0004FFF888630000
0003FFFFFFF70000
0002FEFFFFF20000
0001C09FF9E10000
0000909D80900000
0000104210400000
ENDCHAR
STARTCHAR F
ENCODING 70
SWIDTH 559 0
DWIDTH 16 0
BBX 15 24 0 -3
BITMAP
0145577634531000
3EFFFFFFFFFFFD50
04EFFFFFFFFFFD00
005FFFFFFFFFF700
000CFFFFFFFFF400
000AFFFFFFFFF100
0009FFFFFFFFE000
0009FFFFFFFFD000
0009FFFFFFFFC000
0006FFFFEEFFB000
0002FFFF2126A000
0000FFFF95551000
0000FFFFFFFF1000
0000FFFFFFFF0000
0000EFFFFFFE0000
0000CFFF946B0000
0000AFFF40000000
0000CFFF50000000
0000EFFF60000000
0000FFFF70000000
0000FFFF80000000
0000A5E860000000
0000407040000000
0000001000000000
ENDCHAR
STARTCHAR G
ENCODING 71
SWIDTH 499 0
DWIDTH 14 0
BBX 13 24 1 -3
BITMAP
00017674000000
019EFFFFE60000
4DFFFFFFFFC100
AFFFFFFFFFF900
DFFFFFFFFFFE10
FFFFFFFFFFFF40
FFFFFFFFFFFF60
EFFFFFFFFFFF40
CFFFFFFFFFFF20
AFFFE5BFFFFE00
8FFFC02EFFFC00
5FFFC00DFFFB00
3FFF90038ABA00
1FFF9064343000
0EFFB0AFFFFA00
0DFFD09FFFFB00
0CFFF18AFFFB00
09FFF403FFFA00
06FFFC6DFFF800
01FFFFFFFFF500
00AFFFFFFFE100
001CB9EFFD3000
00024574B10000
00009000100000
ENDCHAR
STARTCHAR H
ENCODING 72
SWIDTH 726 0
DWIDTH 20 0
BBX 20 27 0 -6
BITMAP
00000157830787754200
378ACFFFD009FFFFFFE5
06FFFFFF7007FFFFFFC0
00BFFFFF7001DFFFFF40
008FFFFF7003FFFFFD00
006FFFFF6007FFFFF700
003FFFFF6008FFFFF200
000FFFFF5008FFFFE000
000CFFFF5008FFFFC000
000AFFFF4008FFFF7000
0007FFFF4008FFFF2000
0004FFFF767CFFFF0000
0002FFFFFFFFFFFA0000
0000FFFFFFFFFFF80000
0000DFFFFFFFFFF80000
0000BFFF812FFFF60000
0000AFFF703FFFF30000
00008FFF804FFFF00000
00007FFF804FFFD00000
00006FFF805FFFB00000
00006FFF808FFF900000
00008C45102FEF800000
00001000000736500000
00000000000000000000
00000000004000000000
00000000007000000000
00000000005000000000
ENDCHAR
STARTCHAR I
ENCODING 73
SWIDTH 401 0
DWIDTH 11 0
BBX 11 23 0 -2
BITMAP
2ABBB9BAA930
2FFFFFFFFE20
07FFFFFFF900
007FFFFFF200
002EFFFFD100
000AFFFFF200
000BFFFFF000
000DFFFFE000
000EFFFFC000
000DFFFF9000
000CFFFF5000
000BFFFF6000
000AFFFF6000
0008FFFF6000
0006FFFF2000
0004FFFE1000
0002FFFF2000
0000FFFF1000
0000DFFF0000
0000BFFE0000
000096DF1000
000072962000
000000410000
ENDCHAR
STARTCHAR J
ENCODING 74
SWIDTH 455 0
DWIDTH 13 0
BBX 13 22 -1 -1
BITMAP
00000477765200
000008FFFFFF90
000003FFFFFF10
000000CFFFFD00
0000009FFFFA00
0000005FFFF300
0000009FFFE000
000000BFFFC000
000000CFFFB000
000000DFFFB000
000000DFFF7000
000000DFFF5000
000000AFFF4000
000110CFFE1000
27AD30DFFE0000
8FFF30CFFD0000
5FFF30EFFA0000
3FFF64FFF80000
3FFFEDFFF50000
0CFFFFFFD00000
02BEAAFC900000
000175C1300000
ENDCHAR
STARTCHAR K
ENCODING 75
SWIDTH 580 0
DWIDTH 16 0
BBX 16 23 0 -2
BITMAP
1479853602773000
4EFFFFFA06FFFFD5
02EFFFFA07FFFF60
00AFFFFB0AFFF600
003FFFFC0DFF5000
000CFFFD2FFC0000
0008FFFD8FFA0000
0004FFFFFFF60000
0002FFFFFFF30000
0002FFFFFFF40000
0002FFFFFFF60000
0000EFFFFFF60000
0000AFFFFFF60000
0000AFFFFFF70000
00006FFFFFF90000
00006FFFFFF80000
00005FFFCFFD0000
00003FFA1EFF1000
00002FF80AFF5000
00000DFB05FF8000
00000FFD04FF9000
0000091803B38000
0000000200001000
ENDCHAR
STARTCHAR L
ENCODING 76
SWIDTH 416 0
DWIDTH 12 0
BBX 13 23 0 -2
BITMAP
59999986970000
2BFFFFFFD20000
02FFFFFF300000
02FFFFFA000000
00EFFFF8000000
00BFFFFC000000
00AFFFF9000000
00AFFFF8000000
00AFFFF7000000
008FFFF5000000
002FFFF8000000
002FFFF9000000
002FFFF9000000
001EFFF9000000
000BFFF8000000
000BFFF7000000
000AFFFB000000
0008FFFFDB8B60
0006FFFFFFFF30
0003FFFFFFFF10
0000EFFCEFFD00
00006678AAFC00
0000203520A100
ENDCHAR
STARTCHAR M
ENCODING 77
SWIDTH 740 0
DWIDTH 21 0
BBX 20 24 0 -2
BITMAP
00000000200310200000
02468ACFE10DCDFA6310
2EFFFFFFE00BFFFFFFF8
06FFFFFFF40CFFFFFF50
00AFFFFFF91FFFFFFE00
006FFFFFFD5FFFFFFD00
006FFFFFFFBFFFFFFA00
005FFFFFFFFFFFFFF800
000EFFFFFFFFFFFFF600
000CFFFFFFFFFFFFF500
000BFFFFFFFFFFFFF500
000CFFFFFFFFFFFFF500
0008FFFFFFFFEFFFF500
0006FFFCFFFFCFFFF500
0003FFFCAFFF8FFFF400
0000FFFD5FFF4FFFF300
0000CFFF2FFF1FFFF200
0000AFFF4FFD1FFFE000
00008FFF4DFA1FFFA000
00006FFF48F62FFF9000
00005FFF44F55FFF7000
00004B7531B0731E5000
00001E21000000082000
00000100000000000000
ENDCHAR
STARTCHAR N
ENCODING 78
SWIDTH 610 0
DWIDTH 17 0
BBX 17 26 0 -5
BITMAP
012345680696420000
1CFFFFFC05FFFFEB20
09EFFFFF01FFFFF600
00AFFFFF50EFFF9000
008FFFFFB0DFFF5000
007FFFFFF2DFFF5000
006FFFFFF6EFFF3000
005FFFFFFCEFFF1000
003FFFFFFFFFFE0000
002FFFFFFFFFFC0000
000FFFFFFFFFFA0000
000DFFFFFFFFF80000
000BFFFFFFFFF60000
0007FFFFFFFFF40000
0005FFFAFFFFF30000
0001FFF7FFFFF30000
0000FFF5BFFFF20000
0000EFF39FFFF10000
0000DFF54FFFF00000
0000CFF60DFFC00000
0000BFF70BFFB00000
0000AFE807FBA00000
0000971804E9600000
000081060222000000
000062070320000000
000010030100000000
ENDCHAR
STARTCHAR O
ENCODING 79
SWIDTH 504 0
DWIDTH 14 0
BBX 14 24 0 -3
BITMAP
00001688610000
0007FFFFFEB300
009FFFFFFFFE30
06FFFFFFFFFFE2
0EFFFFFFFFFFF2
3FFFFFFFFFFFF3
2FFFFFFFFFFFF6
0FFFFFFFFFFFF2
0EFFFFFFFFFFF3
0CFFFF87FFFFF6
09FFFE10EFFFF6
07FFFC00CFFFF5
04FFFB00AFFFF4
03FFFB009FFFF2
02FFFD009FFFB0
00EFFE00AFFF70
00AFFF20EFFF50
007FFF61FFFF10
007FFFECFFFC00
003FFFFFFFF600
0006EFFFFFE000
00002D75F9A000
00000722E05000
00000001400000
ENDCHAR
STARTCHAR P
ENCODING 80
SWIDTH 545 0
DWIDTH 15 0
BBX 15 23 0 -2
BITMAP
0025677A98773000
3EFFFFFFFFFFF500
03EFFFFFFFFFFE10
006FFFFFFFFFFF50
000FFFFFFFFFFF80
000EFFFFFFFFFF70
000DFFFFFFFFFF20
000BFFFFFFFFFF00
0009FFFFFFFFFE00
0007FFFF50AFFD00
0004FFFF506FFC00
0002FFFF606FFB00
0000EFFF606FF900
0000BFFFA8BFF700
0000AFFFFFFFF300
00009FFFFFFFA000
00008FFFB8860000
00004FFF60000000
00005FFF70000000
00003FFF80000000
00000FFF80000000
00000A7E90000000
0000020320000000
ENDCHAR
STARTCHAR Q
ENCODING 81
SWIDTH 520 0
DWIDTH 15 0
BBX 15 25 0 -4
BITMAP
0000016874000000
00018EFFFFB10000
007EFFFFFFFD4000
06FFFFFFFFFFE100
07FFFFFFFFFFF800
1DFFFFFFFFFFFB00
3FFFFFFFFFFFFC00
4FFFFFFFFFFFFD00
4FFFFFFDBFFFFE00
1FFFFFF41FFFFB00
0DFFFFF00EFFFB00
09FFFFE00CFFFA00
04FFFFD00BFFFA00
00EFFFB00AFFF900
01FFFFD00AFFF800
00BFFFF10CFFF600
007FFFF72FFFF500
001DFFFD6FFFE100
0007FFFFFFFF9000
0000AFFFFFFFA000
00000BFFFFFFF920
000001BFFEFFFD10
0000000210CFE200
00000000000B7000
0000000000061000
ENDCHAR
STARTCHAR R
ENCODING 82
SWIDTH 599 0
DWIDTH 17 0
BBX 17 23 0 -2
BITMAP
000217ABA968200000
3ADFFFFFFFFFE81000
09FFFFFFFFFFFFD200
01BFFFFFFFFFFFFE00
001FFFFFFFFFFFFF10
000AFFFFFFFFFFFF20
0006FFFFFFFFFFFF20
0005FFFFFFFFFFFF10
0004FFFFEBEFFFFF00
0003FFFF803EFFFE00
0003FFFF800CFFFC00
0000CFFF900EFFFA00
0000AFFFD7AFFFF400
00009FFFFFFFFFE000
00004FFFFFFFFFA000
00001FFFFFFFFA0000
00000FFFC1EFFE1000
00000EFFB0AFFF4000
00000CFFC0AFFF5000
00000BFFD07FFF3000
00000AFFE07FFF6000
00000699702ADFA000
000000161004254000
ENDCHAR
STARTCHAR S
ENCODING 83
SWIDTH 504 0
DWIDTH 14 0
BBX 14 24 0 -3
BITMAP
00000159961000
0003AFFFFFD400
006FFFFFFFFF60
01FFFFFFFFFFF6
06FFFFFFFFFFF7
0EFFFFFFFFFFF6
2FFFFFFFFFFFF5
3FFFFFFFFFFFF4
4FFFFFFFFFFFF4
4FFFFF96EFFFF3
3FFFFF40CFEFF3
0EFFFFB3211353
08FFFFFFFA2000
01CFFFFFFFE400
0019FFFFFFFE10
000017BDFFFF70
00255410EFFF70
06FFFF70CFFF40
02FFFFC9FFFE10
00AFFFFFFFF600
002FFFFFFFE000
0004DC8AB87000
00000301430000
00000000100000
ENDCHAR
STARTCHAR T
ENCODING 84
SWIDTH 622 0
DWIDTH 17 0
BBX 16 25 1 -4
BITMAP
0034677777630000
BEFFFFFFFFFFFC93
3FFFFFFFFFFFFFF3
0DFFFFFFFFFFFF70
09FFFFFFFFFFFF20
05FFFFFFFFFFFF50
02FFFFFFFFFFFF30
01FFFFFFFFFFFF10
00FFFFFFFFFFFE00
00FFFFFFFFDEFC00
009735FFFF615700
000000FFFF500000
000000FFFF700000
000001FFFF700000
000001FFFF300000
000001FFFF500000
000001FFFF100000
000000FFFF100000
000000CFFF200000
000000AFFF300000
000000BFFF300000
000000CFFF300000
000000DFEA100000
000000B563000000
0000001000000000
ENDCHAR
STARTCHAR U
ENCODING 85
SWIDTH 637 0
DWIDTH 18 0
BBX 18 23 0 -2
BITMAP
12579AA90044430000
3BFFFFFC008FFFFC71
01EFFFFD00AFFFFF50
00BFFFFC00CFFFFB00
00BFFFF900BFFFF900
007FFFFD00BFFFF500
005FFFFF00CFFFF200
003FFFFF00CFFFD000
001FFFFF00DFFFA000
000EFFFE00EFFF6000
000CFFFB00EFFF3000
000AFFF801FFFF1000
000BFFF902FFFF1000
000BFFFB03FFFF0000
0009FFFD04FFFC0000
0009FFFF05FFFB0000
0004FFFF17FFF80000
0002FFFFAEFFF50000
0000EFFFFFFFF30000
0000AFFEBFFFB00000
00001BDB0B95200000
000004810381000000
000000000060000000
ENDCHAR
STARTCHAR V
ENCODING 86
SWIDTH 570 0
DWIDTH 16 0
BBX 17 24 0 -3
BITMAP
34678A9003B9877610
3CFFFF8007FFFFF300
01DFFFB00AFFFF9000
009FFFD00CFFFF2000
004FFFC00FFFFB0000
002FFFD02FFFF60000
000FFFF05FFFF10000
000FFFF17FFFD00000
000EFFF3AFFF900000
000DFFF2CFFF500000
000DFFF1FFFF200000
000BFFF4FFFE000000
0009FFF8FFFC000000
0006FFF9FFF9000000
0004FFFCFFF5000000
0003FFFFFFE1000000
0001EFFFFFC0000000
0000BFFFFF90000000
00008FFFFF60000000
00006FFFFF20000000
00005FFFFB00000000
00001FFFF900000000
000007BAC600000000
000000003000000000
ENDCHAR
STARTCHAR W
ENCODING 87
SWIDTH 777 0
DWIDTH 22 0
BBX 22 23 0 -1
BITMAP
0000000000221000000000
0000033302FF600A963000
0159DFFA05FF800FFFFD72
6EFFFFF909FFB04FFFFF94
03CFFFFC0BFFE0AFFFF600
000DFFFE0EFFF2BFFFD000
0005FFFF4FFFF7FFFF2000
0000DFFF7FFFFEFFF90000
0000BFFFCFFFFFFFF30000
0000AFFFFFFFFFFFC00000
00002FFFFFFFFFFF700000
000009FFFFFFFFFF300000
000002FFFFFFFFFF500000
000000DFFFFFFFFF200000
000000AFFFEFFFFD000000
0000006FFFCEFFFA000000
0000003FFFADFFF7000000
0000000EFF7BFFF5000000
0000000BFF69FFB0000000
00000007FF27FF70000000
00000002FF26FF40000000
000000004A479E20000000
0000000001200100000000
ENDCHAR
STARTCHAR X
ENCODING 88
SWIDTH 587 0
DWIDTH 16 0
BBX 17 23 0 -2
BITMAP
000277720564100000
5BEFFFFC06FFFDA610
02CFFFFC09FFFFF930
000AFFFF1EFFFC2000
0001FFFFBFFFC10000
00008FFFFFFF400000
00001FFFFFFD000000
000009FFFFFA000000
000006FFFFF7000000
000004FFFFF5000000
000005FFFFF2000000
000003FFFFD0000000
000001EFFF90000000
0000009FFF90000000
000000DFFF80000000
000001FFFFA0000000
000003FFFFD0000000
000005FFEFE1000000
000008FF9FF6000000
00000BFC4FFB000000
00001EFB2FFE000000
00006FD71A7D200000
000025000000300000
ENDCHAR
STARTCHAR Y
ENCODING 89
SWIDTH 688 0
DWIDTH 19 0
BBX 20 23 0 -2
BITMAP
013669990000A5100000
3CFFFFFF6002FFFDB610
006EFFFFD104FFFFFFD6
0001AFFFF80AFFFFF600
00001EFFFE3FFFFF7000
000003EFFFEFFFF80000
0000005FFFFFFFB00000
0000000EFFFFFF400000
00000007FFFFFF100000
00000002FFFFFE000000
00000000DFFFFD000000
000000005FFFFB000000
000000001EFFFA000000
000000000BFFF9000000
0000000008FFF8000000
0000000006FFF7000000
0000000004FFF6000000
0000000003FFF6000000
0000000002FFF5000000
0000000001FFF4000000
0000000000EFF3000000
0000000000CB70000000
00000000001000000000
ENDCHAR
STARTCHAR Z
ENCODING 90
SWIDTH 695 0
DWIDTH 19 0
BBX 19 22 1 -1
BITMAP
00379AA9AAA861000000
AEFFFFFFFFFFFFEB6310
BFFFFFFFFFFFFFFFFB10
4FFFFFFFFFFFFFFFE100
0BFFFFFFFFFFFFFF7000
04FFFFFFFFFFFFFE1000
00EFFFFFFFFFFFF80000
00AFFFFFFFFFFFF20000
007FFFFFFFFFFF900000
006FFD88FFFFFD100000
004E5008FFFFB2000000
0001003FFFFC00000000
0000009FFFE100000000
000000DFFF5000000000
000003FFFA0000000000
000007FFE20000000000
00000DFF900000000000
00007FFFEDC920000000
0001EFFFFFFF50000000
0004FFFFFFFC00000000
0002FDBFFFF800000000
0000230337A000000000
ENDCHAR
STARTCHAR bracketleft
ENCODING 91
SWIDTH 410 0
DWIDTH 12 0
BBX 11 26 1 -1
BITMAP
011100000000
0FFFFEEEC200
0FFFFFFFF800
0FFFFFFFF800
0FFFFFFFF800
0FFFFFFFF800
0FFFFAA89500
1EFFF2000000
3FFFF1000000
2FFFF0000000
3FFFF0000000
4FFFF1000000
5FFFF1000000
3FFFF1000000
5FFFF2000000
7FFFF2000000
6FFFF2000000
6FFFF2000000
5FFFF2000000
3FFFF2000000
1FFFF2000000
0EFFF3111210
0BFFFFFFFE10
09FFFFFFF700
07FFF7FFE100
038240761000
ENDCHAR
STARTCHAR backslash
ENCODING 92
SWIDTH 292 0
DWIDTH 8 0
BBX 9 25 0 -3
BITMAP
9C30000000
8F90000000
6FD0000000
3FF4000000
0CF9000000
0AF8000000
08FC000000
04FF100000
00EF500000
00AFD10000
005FF50000
001EF90000
000AFD0000
0005FF1000
0002FF5000
0000DF8000
00008FA000
00004F9000
00000ED000
00000AF400
000005F900
000001EE00
000000CF40
0000009D60
0000003200
ENDCHAR
STARTCHAR bracketright
ENCODING 93
SWIDTH 407 0
DWIDTH 11 0
BBX 10 26 0 -1
BITMAP
0000121010
19FFFFFFE4
2FFFFFFFF4
2FFFFFFFF4
2FFFFFFFF4
3FFFFFFFF4
1889ADFFF4
00000BFFF5
00000AFFF7
000009FFF7
000008FFF8
000007FFF8
000006FFFA
000006FFF8
000006FFFA
000006FFFC
000006FFFC
000006FFFB
000007FFFA
000007FFF8
000007FFF8
121218FFF8
9FFFFFFFF9
6FFFFFFFF9
5FFFFFFFF9
02355514B6
ENDCHAR
STARTCHAR asciicircum
ENCODING 94
SWIDTH 523 0
DWIDTH 15 0
BBX 13 11 1 19
BITMAP
0005A98BA00000
000CFFFFF50000
004FFFFFFC0000
00AFFFFFFF5000
02FFFFCFFFD000
09FFF82EFFF600
1EFFE106FFFD00
7FFF7000CFFF60
CFFC10003FFE40
1AE2000007E300
00100000001000
ENDCHAR
STARTCHAR underscore
ENCODING 95
SWIDTH 452 0
DWIDTH 13 0
BBX 11 5 1 -1
BITMAP
688866766920
AFFFFFFFFF20
AFFFFFFFFF20
AFFFFFFFFF20
699AAB879A10
ENDCHAR
STARTCHAR grave
ENCODING 96
SWIDTH 444 0
DWIDTH 12 0
BBX 10 8 1 21
BITMAP
0001000000
003E500000
009FF70000
01DFFF9000
4DFFFFFB10
26BEFFFFE4
000149DFF9
0000000263
ENDCHAR
STARTCHAR a
ENCODING 97
SWIDTH 479 0
DWIDTH 13 0
BBX 14 24 0 -3
BITMAP
1579ABCDBACDD5
3EFFFFFFFFFF50
02EFFFFFFFFC00
003FFFFFFFF700
002FFFFFFFF600
001FFFFFFFF500
000DFFFFFFF500
001DFFFFFFF400
002FFFFFFFF300
000FFFFFFFF100
000DFFFEFFE100
000CFFEBFFF100
001FFFB9FFF400
002FFF87FFF300
004FFF56FFF500
004FFF44FFF500
003FFF78FFF300
003FFFFFFFF200
006FFFFFFFF000
004FFFABFFE000
002FFF43EFD000
004FFC10FFC000
002FF9017BA000
00056100000000
ENDCHAR
STARTCHAR b
ENCODING 98
SWIDTH 610 0
DWIDTH 17 0
BBX 17 23 0 -2
BITMAP
000013456777861000
16BCFFFFFFFFFFD200
0AFFFFFFFFFFFFFA00
01EFFFFFFFFFFFFF00
006FFFFFFFFFFFFF30
000BFFFFFFFFFFFF50
0005FFFFFFFFFFFF60
0007FFFFFFFFFFFF60
0005FFFFFFFFFFFF30
0002FFFFD67FFFFE00
0000EFFFA00DFFF900
0000CFFFB00EFFF300
0000BFFFE73EFFC000
0000BFFFFFFFFF5000
0000AFFFFFFFF70000
00008FFFFFFFFE2000
00003FFFC37FFF9000
00004FFFA01FFFA000
00000CFFB01FFF7000
00000EFFD56FFF3000
00000AFFFFFFFE1000
00000BDBFFFFF80000
00000501428DE10000
ENDCHAR
STARTCHAR c
ENCODING 99
SWIDTH 534 0
DWIDTH 15 0
BBX 15 23 0 -2
BITMAP
0000179DDB610000
0005EFFFFFFD2000
008FFFFFFFFFD400
06FFFFFFFFFFFC10
0DFFFFFFFFFFFF60
2FFFFFFFFFFFFF10
4FFFFFFFFFFFFF40
3FFFFFFFFFFFFF40
1FFFFFFFFFFFFF30
0DFFFFFCAFFFFF10
09FFFFE01DFFFF00
05FFFFC009FFFD00
02FFFFF006ACCB00
02FFFFB000000000
00EFFFB000000000
00BFFFD004510000
006FFFF00EFF7000
004FFFF34FFF7000
001FFFF8AFFF5000
0007FFFFFFFE1000
0002FFFFFFE70000
000077CCBF600000
0000004118000000
ENDCHAR
STARTCHAR d
ENCODING 100
SWIDTH 573 0
DWIDTH 16 0
BBX 16 25 0 -4
BITMAP
00013589A7410000
1AFFFFFFFFFFA000
08FFFFFFFFFFFA00
05FFFFFFFFFFFFA0
00EFFFFFFFFFFFF4
009FFFFFFFFFFFF9
004FFFFFFFFFFFFA
000FFFFFFFFFFFFA
000BFFFFFFFFFFF9
0007FFFFFFFFFFF7
0004FFFFC39FFFF4
0001FFFF702FFFF0
0000EFFF500EFFB0
0000BFFF600CFF60
00009FFF300DFF10
00007FFF602FFC00
00005FFF504FF900
00003FFF408FF600
00003FFF82BFF400
00002FFFCEFFE100
00001FFFFFFFC000
00000FFDFFFF8000
00000D506FFD1000
00000A0026510000
0000020000000000
ENDCHAR
STARTCHAR e
ENCODING 101
SWIDTH 632 0
DWIDTH 18 0
BBX 17 23 0 -2
BITMAP
000135788887641000
18DFFFFFFFFFFFFE80
1CFFFFFFFFFFFFFF20
02FFFFFFFFFFFFF800
008FFFFFFFFFFFF200
005FFFFFFFFFFFC000
003FFFFFFFFFFF9000
001FFFFFFFFFFF7000
000DFFFFFFFFFF5000
000AFFFFCBDEFF3000
0008FFFF9001490000
0005FFFF9000000000
0003FFFFC999600000
0000DFFFFFFFA00000
0000DFFFFFFFA00000
0000CFFFFFFF800000
0000AFFFA336400000
00007FFF8000000000
00005FFFADCA910000
00002FFFFFFFF00000
00000EFFFFFFC00000
00000B41EDA9B00000
000003001000800000
ENDCHAR
STARTCHAR f
ENCODING 102
SWIDTH 559 0
DWIDTH 16 0
BBX 15 24 0 -3
BITMAP
0145677645542000
3EFFFFFFFFFFFE50
04EFFFFFFFFFFC00
005FFFFFFFFFF700
000DFFFFFFFFF400
0009FFFFFFFFF100
0009FFFFFFFFE000
0009FFFFFFFFD000
0009FFFFFFFFB000
0006FFFFEEFFB000
0002FFFF2016A000
0001FFFF76640000
0001FFFFFFF90000
0001FFFFFFF90000
0001EFFFFFF90000
0000DFFF946A0000
0000BFFF30000000
0000DFFF40000000
0001FFFF40000000
0001FFFF50000000
0001FFFF60000000
0001B4E860000000
0001309040000000
0000003030000000
ENDCHAR
STARTCHAR g
ENCODING 103
SWIDTH 546 0
DWIDTH 15 0
BBX 15 24 0 -3
BITMAP
0000467565100000
001CFFFFFFFA1000
02BFFFFFFFFFE200
0CFFFFFFFFFFFC00
0DFFFFFFFFFFFF50
2FFFFFFFFFFFFF90
2FFFFFFFFFFFFFC0
0FFFFFFFFFFFFFC0
0DFFFFFFFFFFFFA0
0BFFFFD8FFFFFF70
08FFFF905FFFFF30
05FFFF601EFFFF10
03FFFF400ADFFE00
00EFFF5030013500
009FFF50DFC85200
005FFFB0CFFFFD00
003FFFD0BFFFFA00
000FFFE165FFF900
000EFFF705FFF800
000AFFFEDFFFF800
0005FFFFFFFFF600
0000AFFFFFFFF300
00001B8BCC7D4000
0000010201000000
ENDCHAR
STARTCHAR h
ENCODING 104
SWIDTH 730 0
DWIDTH 20 0
BBX 20 23 0 -2
BITMAP
0000169BC407CBC98840
29CEFFFFC005FFFFFFF7
01EFFFFF8002FFFFFFC0
008FFFFF9000AFFFFF50
006FFFFF9002FFFFFE00
005FFFFF8005FFFFF900
003FFFFF8005FFFFF400
000FFFFF7004FFFFF100
000CFFFF7004FFFFE100
0009FFFF6004FFFFA000
0006FFFF6005FFFF5000
0002FFFFBAADFFFF2000
0000FFFFFFFFFFFC0000
0000DFFFFFFFFFFB0000
0000CFFFFDBFFFFB0000
0000BFFF800EFFF90000
0000AFFF902FFFF50000
00008FFFA02FFFF30000
00007FFFA02FFFF10000
00005FFFA04FFFE00000
00004FFF805EFFC00000
00006A11001DDCB00000
00000000000232600000
ENDCHAR
STARTCHAR i
ENCODING 105
SWIDTH 412 0
DWIDTH 12 0
BBX 11 22 0 -1
BITMAP
2469B9AA6430
1DFFFFFFFF50
05FFFFFFFD00
005FFFFFF700
000CFFFFF200
0008FFFFF200
0009FFFFD000
000AFFFFA000
000BFFFF7000
000BFFFF5000
000AFFFF4000
0008FFFF3000
0006FFFF5000
0004FFFF6000
0001FFFF1000
0000DFFE1000
0000CFFE0000
0000BFFD0000
0000AFFC0000
00009FFB0000
00007BDA0000
000020690000
ENDCHAR
STARTCHAR j
ENCODING 106
SWIDTH 458 0
DWIDTH 13 0
BBX 14 23 -1 -2
BITMAP
000058AA852000
00003FFFFFFE91
00000BFFFFFF30
000007FFFFFF30
000003FFFFFE00
000000DFFFF900
000000CFFFF500
000000CFFFF600
000000CFFFF600
000000CFFFF500
000000CFFFF400
000000CFFFF300
0000007FFFF100
0000208FFFD000
279B608FFFC000
8FFF808FFFC000
3FFFD07FFFA000
0CFFF3BFFF7000
0BFFFFFFFF4000
04FFFFFFFD0000
006CEFFFFB0000
0000146B580000
00000000010000
ENDCHAR
STARTCHAR k
ENCODING 107
SWIDTH 636 0
DWIDTH 18 0
BBX 18 23 0 -2
BITMAP
000245438046AA8610
4BEFFFFF908FFFFF91
06EFFFFF60BFFFF500
008FFFFF61FFFF5000
004FFFFF74FFF60000
000CFFFF86FFD00000
0005FFFF97FFC00000
0000EFFFB9FFA00000
0000BFFFCAFF400000
0000CFFFDCFC000000
0000AFFFEEF7000000
00009FFFFFF2000000
00008FFFFFF3000000
00005FFFFFF6000000
00001EFFFFFC000000
00000EFFFFFF200000
00000DFFEAFF700000
000009FF85FFD00000
000009FF60CFF40000
000008FF605FF70000
000006FF804FFE1000
00000283702B781000
000000000001000000
ENDCHAR
STARTCHAR l
ENCODING 108
SWIDTH 438 0
DWIDTH 12 0
BBX 14 23 0 -2
BITMAP
0037999AADD400
3BFFFFFFFB2000
02EFFFFFF30000
007FFFFF900000
007FFFFF800000
003FFFFF900000
003FFFFF700000
000FFFFF500000
000FFFFF500000
000BFFFF600000
0006FFFF500000
0002FFFF400000
0001FFFF300000
0001FFFF200000
0001FFFF200000
0000DFFF200000
0000CFFF500000
0000AFFFFEBBB1
00008FFFFFFF90
00007FFFFFFF60
00005FFF7FFF20
00003C2408FE00
00001900008400
ENDCHAR
STARTCHAR m
ENCODING 109
SWIDTH 770 0
DWIDTH 22 0
BBX 21 24 0 -2
BITMAP
0000000000002000000000
000000369802F9CDA74000
0048BFFFF900FFFFFFFE70
2DFFFFFFFB05FFFFFFE500
03EFFFFFFD09FFFFFF6000
007FFFFFFF2DFFFFFF4000
006FFFFFFF6FFFFFFD0000
007FFFFFFFCFFFFFFA0000
007FFFFFFFFFFFFFF80000
000FFFFFFFFFFFFFF50000
000EFFFFFFFFFFFFF30000
000DFFFFFFFFFFFFF10000
000DFFFFFFFFFFFFE00000
0009FFFEFFFFEFFFB00000
0007FFFDDFFFAFFF900000
0006FFFDAFFCAFFF600000
0003FFFD6FF8CFFF300000
0001FFFD5FF4EFFE000000
0000FFFE5FF2FFF9000000
0000FFFE1FB3FFF3000000
0000CFFC0D85FFF1000000
00009A6C0B45ACD0000000
0000760001012350000000
0000640000000000000000
ENDCHAR
STARTCHAR n
ENCODING 110
SWIDTH 664 0
DWIDTH 19 0
BBX 19 24 0 -3
BITMAP
36789AB9703855555620
2EFFFFFFA02FFFFFFB00
07FFFFFFE10DFFFFF200
01EFFFFFF30AFFFFA000
00BFFFFFFB0BFFFF4000
009FFFFFFE0CFFFE0000
009FFFFFFF2EFFFB0000
008FFFFFFF8FFFF90000
007FFFFFFFFFFFF70000
005FFFFFFFFFFFF50000
004FFFFFFFFFFFF30000
002FFFFFFFFFFFF10000
000FFFFFFFFFFFE00000
000CFFFEFFFFFFB00000
0007FFF9FFFFFF800000
0007FFF7EFFFFF500000
0006FFF49FFFFF300000
0004FFF46FFFFE000000
0003FFF43FFFFC000000
0001FFF30DFFF7000000
0000FFF30CFFF1000000
0000DFD30AFEC0000000
0000660205AB70000000
00000000001430000000
ENDCHAR
STARTCHAR o
ENCODING 111
SWIDTH 545 0
DWIDTH 15 0
BBX 15 23 0 -2
BITMAP
0000269988500000
0007FFFFFFFC2000
009FFFFFFFFFE300
06FFFFFFFFFFFC20
0EFFFFFFFFFFFF80
2FFFFFFFFFFFFF70
2FFFFFFFFFFFFF80
1EFFFFFFFFFFFFA0
0DFFFFFFFFFFFF90
0BFFFFE4CFFFFF90
09FFFF706FFFFF80
07FFFF305FFFFF60
05FFFF303FFFFF30
03FFFF300FFFFE00
00FFFF302FFFFA00
00CFFF304FFFF600
008FFF808FFFF200
004FFFC0AFFFB000
001FFFFBFFFF9000
000DFFFFFFFF3000
00048DFFFFFA0000
00000281EEC40000
0000000073630000
ENDCHAR
STARTCHAR p
ENCODING 112
SWIDTH 557 0
DWIDTH 16 0
BBX 15 23 0 -2
BITMAP
0135788676861000
2FFFFFFFFFFFF600
04EFFFFFFFFFFF30
005FFFFFFFFFFFA0
000FFFFFFFFFFFD0
000EFFFFFFFFFFE0
000DFFFFFFFFFF90
000CFFFFFFFFFF80
000BFFFFFFFFFF70
000AFFFF43BFFF50
0008FFFF306FFF30
0006FFFF205FFF10
0004FFFF209FFD00
0002FFFF79CFF900
0001EFFFFFFFF500
0000CFFFFFFFE000
0000AFFFA8AD4000
0000AFFF70000000
00008FFF60000000
00008FFF60000000
00007FFF70000000
00004FCF80000000
0000020100000000
ENDCHAR
STARTCHAR q
ENCODING 113
SWIDTH 562 0
DWIDTH 16 0
BBX 16 25 0 -4
BITMAP
0000027BB9720000
00029FFFFFFF5000
019FFFFFFFFFF900
06FFFFFFFFFFFF50
07FFFFFFFFFFFFB0
1EFFFFFFFFFFFFD0
3FFFFFFFFFFFFFE0
4FFFFFFFFFFFFFF0
3FFFFFFE6CFFFFE1
1FFFFFF802EFFFD0
0CFFFFF502DFFFD0
08FFFFF400BFFFC0
03FFFFF2008FFFB0
00EFFFF1007FFFB0
01FFFFF4008FFF90
00AFFFF705CFFF70
005FFFFD0CFFFF60
000DFFFF8FFFFE10
0004FFFFFFFFF900
00006FFFFFFFFD10
000005FFFFFFFFD4
0000005CEDBEFFC1
000000000007FD10
0000000000007700
0000000000003200
ENDCHAR
STARTCHAR r
ENCODING 114
SWIDTH 616 0
DWIDTH 17 0
BBX 17 24 0 -3
BITMAP
000136999766100000
2BCFFFFFFFFFFB5000
09FFFFFFFFFFFFFC10
00BFFFFFFFFFFFFF90
001EFFFFFFFFFFFFB0
0008FFFFFFFFFFFFA0
0006FFFFFFFFFFFF80
0005FFFFFFFFFFFF50
0004FFFFFEFFFFFF20
0002FFFFC12EFFFE00
0000FFFFB009FFFB00
0000EFFFB00CFFF800
0001EFFFE66FFFF600
0000BFFFFFFFFFF300
00008FFFFFFFFFA000
00007FFFFFFFFD4000
00006FFFC9FFF70000
00006FFFA0FFF90000
00006FFFB0FFF90000
00005FFFB0DFF90000
00005FFFA0DFF90000
00004FF960BFFB0000
000015100014AC0000
000000000000020000
ENDCHAR
STARTCHAR s
ENCODING 115
SWIDTH 481 0
DWIDTH 13 0
BBX 13 23 0 -2
BITMAP
0000178A840000
0006EFFFFFB100
006FFFFFFFFC10
02FFFFFFFFFFB0
09FFFFFFFFFFD0
0EFFFFFFFFFFA0
2FFFFFFFFFFF90
3FFFFFFFFFFF80
3FFFFFFFFFFF60
3FFFFF7BFFFF50
2FFFFF14FFFF40
0DFFFF60567E40
08FFFFEEB30000
04FFFFFFFE3000
005EFFFFFFB000
00026DFFFFF100
0000011AFFF400
009DDE15FFF400
02EFFF47FFF100
009FFFFFFF8000
001EFFFFFF1000
0008FFFDEA0000
00007521010000
ENDCHAR
STARTCHAR t
ENCODING 116
SWIDTH 683 0
DWIDTH 19 0
BBX 19 25 0 -4
BITMAP
000148BBBBBBBA741000
29EFFFFFFFFFFFFFFD10
0BFFFFFFFFFFFFFFF900
02FFFFFFFFFFFFFFE100
00AFFFFFFFFFFFFF7000
005FFFFFFFFFFFFF7000
001FFFFFFFFFFFFF6000
000DFFFFFFFFFFFF5000
000BFFFFFFFFFFFF4000
0009FFFDFFFFBEFF2000
0008A627FFFF80370000
00010004FFFF80000000
00000002FFFF90000000
00000002FFFF90000000
00000001FFFF90000000
00000000FFFF90000000
00000000DFFF80000000
00000000CFFF70000000
000000009FFF90000000
000000007FFF70000000
000000008FFF50000000
000000007FFF50000000
000000007FFF50000000
00000000268C50000000
00000000001230000000
ENDCHAR
STARTCHAR u
ENCODING 117
SWIDTH 708 0
DWIDTH 20 0
BBX 20 22 0 -1
BITMAP
00025899800143100000
2AFFFFFFD001FFFCC720
01DFFFFFC002FFFFFFF8
009FFFFFD006FFFFFF90
007FFFFFC005FFFFFE00
002FFFFFF002FFFFFC00
000EFFFFF202FFFFF500
000BFFFFF303FFFFE000
0008FFFFF304FFFFB000
0006FFFFF304FFFF8000
0003FFFFF105FFFF5000
0002FFFFE007FFFF3000
0001FFFFE00AFFFF3000
0000FFFFF009FFFF2000
0000EFFFF30AFFFE0000
00009FFFF60CFFFB0000
00003FFFF61FFFF70000
00000EFFFD9FFFF70000
00000AFFFFFFFFF20000
000007FFFBEFFFC00000
0000003CB349CA400000
00000000100020000000
ENDCHAR
STARTCHAR v
ENCODING 118
SWIDTH 644 0
DWIDTH 18 0
BBX 18 23 0 -2
BITMAP
013577880008876432
18FFFFFB002FFFFFD3
00AFFFFD005FFFFF20
003FFFFE00AFFFF900
000DFFFF30CFFFF300
0007FFFF60CFFFD000
0004FFFF60DFFF9000
0001FFFF70EFFF6000
0000DFFFA0EFFF5000
0000AFFFC0FFFE0000
00007FFFE1FFFC0000
00004FFFE2FFF90000
00001FFFF4FFF60000
00000BFFF6FFF30000
000007FFFBFFE00000
000001FFFFFFD00000
000000BFFFFF900000
0000008FFFFF500000
0000003FFFFF000000
0000000CFFFD000000
00000003FFFB000000
00000002FFC5000000
00000001A820000000
ENDCHAR
STARTCHAR w
ENCODING 119
SWIDTH 704 0
DWIDTH 20 0
BBX 20 22 0 -1
BITMAP
0000222009A204210000
38CEFFD02FF405FFDA51
1BFFFFE05FF806FFFFB5
007FFFF37FFD0AFFFE00
000EFFF39FFF2BFFF800
0006FFF7CFFF5EFFF200
0003FFFBDFFFDFFFA000
0001FFFEDFFFFFFF4000
0000DFFFFFFFFFFE0000
00005FFFFFFFFFFA0000
00000DFFFFFFFFF70000
000007FFFFFFFFF70000
000004FFFFFFFFF40000
000001FFFFFFFFF20000
000000CFFFCFFFF20000
0000008FFF7FFFF20000
0000004FFF4EFFF10000
0000000EFF3DFFA00000
0000000AFF1AFF800000
00000006FE18FF700000
000000015509AD600000
00000000000101000000
ENDCHAR
STARTCHAR x
ENCODING 120
SWIDTH 599 0
DWIDTH 17 0
BBX 17 23 0 -2
BITMAP
001388930586410000
4BFFFFFE14FFFFD930
009FFFFE08FFFFE830
0007FFFF2DFFFC2000
0000EFFFBFFFD10000
00006FFFFFFF500000
00000DFFFFFE000000
000007FFFFFB000000
000004FFFFF9000000
000003FFFFF7000000
000003FFFFF4000000
000001FFFFE1000000
000000CFFFB0000000
0000007FFFB0000000
000000CFFF90000000
000000EFFFB0000000
000002FFFFE0000000
000003FFEFF2000000
000007FF7FF8000000
000009FD1FFD000000
00001EFD0FFF100000
00005FC7085A400000
000013000000300000
ENDCHAR
STARTCHAR y
ENCODING 121
SWIDTH 604 0
DWIDTH 17 0
BBX 17 23 0 -2
BITMAP
002668600056000000
1BFFFFF501CFFC9300
009FFFFC01FFFFF810
0005EFFF27FFFF7000
00007FFF6DFFF90000
00003FFFEFFFD10000
000005FFFFFF300000
000002FFFFFE000000
000000EFFFFC000000
000000BFFFFA000000
0000007FFFF9000000
0000004FFFF7000000
0000000FFFF6000000
0000000CFFF5000000
00000009FFF3000000
00000009FFF1000000
00000009FFF3000000
0000000AFFF2000000
0000000AFFF1000000
0000000AFFD0000000
0000000AFFA0000000
00000008FDA0000000
000000045010000000
ENDCHAR
STARTCHAR z
ENCODING 122
SWIDTH 622 0
DWIDTH 17 0
BBX 16 23 1 -2
BITMAP
0159BBABBBB65200
CFFFFFFFFFFFFEE3
AFFFFFFFFFFFFFF2
3FFFFFFFFFFFFFB0
09FFFFFFFFFFFF30
02FFFFFFFFFFFC00
00BFFFFFFFFFF900
008FFFFFFFFFF700
006FFFFFFFFFF200
003FFEABFFFF8000
001F601EFFF90000
0003004FFFD10000
000000BFFF300000
000000DFFB000000
000004FFF5000000
000006FFC0000000
00000DFF80000000
00001FFF98850000
00006FFFFFFD0000
0000CFFFFFF80000
0000BFFFFFF90000
0000591889D60000
0000000000510000
ENDCHAR
STARTCHAR braceleft
ENCODING 123
SWIDTH 372 0
DWIDTH 10 0
BBX 9 28 1 -4
BITMAP
00000017C0
000019EFD0
0002DFFFC0
000CFFFFA0
007FFFFF80
00EFFFFF60
08FFFFFF40
1FFFFFFF20
4FFFFFFF10
6FFFFFEB10
9FFFFD1000
BFFFF60000
CFFFF30000
DFFFF10000
EFFFF00000
EFFFF00000
DFFFE00000
CFFFE10000
AFFFF20000
7FFFF50000
2FFFFC0000
0BFFFF5000
04FFFFF500
00DFFFFB00
004FFFFE00
0008FFFF00
00005DFC00
0000003000
ENDCHAR
STARTCHAR bar
ENCODING 124
SWIDTH 208 0
DWIDTH 6 0
BBX 4 26 1 -3
BITMAP
0360
1FE0
3FF1
4FF2
5FF0
6FE1
1FF3
0FF0
2FC0
3FB0
3FC0
3FC0
3FD0
3FE0
4FD0
4FF0
4FD0
4FE0
1FB0
0EB0
0FB0
2FB0
4FA0
4FA0
3FD0
1980
ENDCHAR
STARTCHAR braceright
ENCODING 125
SWIDTH 338 0
DWIDTH 9 0
BBX 9 28 0 -4
BITMAP
0410000000
2FFC910000
4FFFFB1000
0FFFFFC100
0EFFFFF900
0DFFFFFE00
0CFFFFFF10
0BFFFFFF20
0AFFFFFF10
0AFFFFFF10
047EFFFF10
0005FFFF00
0001FFFF00
0000DFFE00
0000CFFD00
0000CFFC00
0000CFFB00
0000DFF900
0001FFF800
0003FFF600
0005FFF300
0009FFE000
000CFFA000
025EFF5000
1EFFF90000
5FFFC00000
6FFE200000
3883000000
ENDCHAR
STARTCHAR asciitilde
ENCODING 126
SWIDTH 535 0
DWIDTH 15 0
BBX 13 7 1 15
BITMAP
006100017A4000
2BFC003BFFF600
DFFFBAFFFFFF30
6FFFFFFFFFFFC0
09FFFFFEFFFE40
00AFFE7118D300
00014100000000
ENDCHAR
STARTCHAR exclamdown
ENCODING 161
SWIDTH 347 0
DWIDTH 10 0
BBX 9 34 0 1
BITMAP
0086410200
00FFFFEF80
00EFFFFF90
00EFFFFFA0
00EFFFFFB0
00FFFFFF90
04FFFFFF70
0AFFFFFF80
18CDFFFF90
0000023100
0000000000
0000001000
00078C9000
000DFFB000
000EFFE000
000EFFF000
000EFFF000
000EFFE000
000EFFE100
000FFFF200
003FFFF600
005FFFF400
009FFFF200
00DFFFF600
03FFFFF900
06FFFFFA00
04FFFFFC00
03FFFFFE00
00DFFFFF20
07FFFFFF10
0DFFFFFF70
1FFFFFFFD0
3EFFFFFFA0
004A876200
ENDCHAR
STARTCHAR cent
ENCODING 162
SWIDTH 552 0
DWIDTH 15 0
BBX 15 41 0 -11
BITMAP
0000000010000000
0000000770000000
0000000C60000000
0000000D70000000
0000000E70000000
0000000E70000000
0000000E70000000
0000000E70000000
0000000E70000000
0000058FEA820000
0004DFFFFFFE3000
007FFFFFFFFFD500
05FFFFFFFFFFFD10
0CFFFFFFFFFFFF70
1FFFFFFFFFFFFF20
2FFFFFFFFFFFFF50
1FFFFFFFFFFFFF50
0DFFFFFFFFFFFF40
0AFFFFFD9FFFFF30
06FFFFF00CFFFF10
03FFFFF007FFFE00
01EFFFF20589BC00
00FFFFD000000000
00CFFFD000000000
009FFFF003510000
004FFFF20CFF8000
002FFFF52FFF8000
000EFFF99FFF6000
0006FFFFFFFF4000
0003FFFFFFF90000
000077CDDF800000
0000005967000000
0000000950000000
0000000A50000000
0000000B60000000
0000000B60000000
0000000C70000000
0000000C70000000
0000000C80000000
0000000A70000000
0000000220000000
ENDCHAR
STARTCHAR sterling
ENCODING 163
SWIDTH 589 0
DWIDTH 17 0
BBX 15 24 1 -3
BITMAP
0002576652000000
008FFFFFFFC30000
09EFFFFFFFFF6000
7FFFFFFFFFFFF500
9FFFFFFFFFFFFD00
BFFFFFFFFFFFFF40
BFFFFFFFFFFFFF70
9FFFFFFFFFFFFF80
8FFFFFFFFFFFFF50
6FFFFF8DFFFFFF10
3FFFFE01EFFFFA00
1FFFFB009FFFF500
0DFFF9006DFFF300
8DFFFD9700035200
BFFFFFFB00000000
35DFFF8400000000
00AFFF8000002000
00DFFFFFFCBE8000
00FFFFFFFFFF4000
02FFFFFFFFFD0000
03FFFF9FFFF80000
01936B3D9EF40000
000036130A500000
0000000001000000
ENDCHAR
STARTCHAR yen
ENCODING 165
SWIDTH 692 0
DWIDTH 19 0
BBX 21 23 -1 2
BITMAP
0000000000001000000000
4BBCCEFF60007DA8543210
03BFFFFFD000AFFFFFFB40
0005EFFFF700DFFFFF8000
00002EFFFD07FFFFFB0000
000008FFFF6EFFFFC10000
0000007FFFFFFFFE200000
0000000EFFFFFFF4000000
00000008FFFFFFF1000000
00000005FFFFFFE5542100
003DDDCDFFFFFFFFFFF300
003FFFFFFFFFFFD9CDA000
000122112FFFFF60000000
000111000CFFFF40112100
001FFFFFFFFFFFFFFFF500
002DEEFFFFFFFFEEEEF400
000000011AFFFF10000000
0000000009FFFF00000000
0000000007FFFF00000000
0000000004FFFF00000000
0000000001FFFF00000000
0000000000CFFF10000000
0000000000883610000000
ENDCHAR
STARTCHAR brokenbar
ENCODING 166
SWIDTH 201 0
DWIDTH 6 0
BBX 4 26 1 -3
BITMAP
2520
4FA0
6FC0
7FE0
5FF0
5FF1
8FB0
5FA0
2FC0
1DA0
0000
0000
0000
0000
0000
0000
3ED0
4FD0
2FB0
1F90
2FA0
2FC0
1FD0
1FE0
3FD0
2780
ENDCHAR
STARTCHAR section
ENCODING 167
SWIDTH 477 0
DWIDTH 13 0
BBX 13 27 0 -6
BITMAP
000017CEC82000
0002DFFFFFF700
000DFFFFFFFF60
007FFFFFFFFFA0
00BFFFFFFFFF50
00DFFFFFFFFF10
00CFFFFFFFFD00
00AFFFEDFFF900
008FFF91EFF600
006FFFB0699200
004FFFFD940000
004FFFFFFFB000
03EFFFFFFFD000
0CFFF76AFFF400
3FFFF601EFF500
4FFFF502FFF100
3FFFF809FF8000
0DFFFEACFF2000
08FFFFFFFC0000
01BFFFFFF70000
00028BDFFC0000
0135736FFE0000
06FFF77FFA0000
01DFFEEFF30000
008FFFFFD00000
001CECBC500000
00023000000000
ENDCHAR
STARTCHAR dieresis
ENCODING 168
SWIDTH 633 0
DWIDTH 18 0
BBX 15 8 1 22
BITMAP
0000000000034200
0BEDAC403DEFFF70
0FFFFF603FFFFF70
1FFFFF603FFFFF60
1FFFFF603FFFFF70
1FFFFF503FFFFF90
0FFFFF503FFFFF70
0678982015753520
ENDCHAR
STARTCHAR copyright
ENCODING 169
SWIDTH 783 0
DWIDTH 22 0
BBX 20 25 1 -3
BITMAP
00000003687510000000
000005CFFFFFFA200000
0001BFF977889EF70000
001DFB203786106E9000
00CFB008FFFFD203E700
07FD109FFFFFFD004F30
1EF503FFFFFFFF8009A0
6FD008FFFFFFFF9003F2
AF700AFFFFFFFFA000E6
CF200AFFFFFFFFA000BA
EE0009FFFFEFFF90009C
EC0007FFF93FFF8000AD
EE2005FFF50BFF6000AD
DF2004FFF504562000CC
CF3002FFF400000000DA
AF4000EFF304200002F6
6F8000BFF50EFC0007F2
2FD0009FF84FFA000DC0
0AF5003FFFEFF7008F60
02FE101FFFFFD005FC00
007FC202B7BC306FF300
0008FE7100104BFF5000
00007EFFCBBEFFE40000
0000028DFFFFD8100000
00000000011100000000
ENDCHAR
STARTCHAR guillemotleft
ENCODING 171
SWIDTH 759 0
DWIDTH 21 0
BBX 20 17 1 1
BITMAP
00000000000001000000
0000BFEEED104FFFFED1
0003FFFFD200CFFFFE30
001DFFFF6007FFFFF600
009FFFFD003FFFFFB000
06FFFFF600CFFFFF3000
3FFFFFB004FFFFF90000
BFFFFE200BFFFFE10000
FFFFF7000CFFFF600000
9FFFFA0007FFFFE10000
1EFFFF6001AFFFF60000
03EFFFA0004FFFFC0000
004FFFF90006FFFF8000
0007FFFF8000AFFFF700
0000AFFFF6000CFFFF50
00001BEEFE4002DBEFE3
00000000010000000110
ENDCHAR
STARTCHAR uni00AD
ENCODING 173
SWIDTH 446 0
DWIDTH 13 0
BBX 10 4 1 8
BITMAP
3888566578
7FFFFFFFFE
8FFFFFFFFD
37CDDABABB
ENDCHAR
STARTCHAR registered
ENCODING 174
SWIDTH 780 0
DWIDTH 22 0
BBX 21 24 0 -2
BITMAP
0000000013542000000000
0000006CFFFEFD71000000
00002CFFA40003AD300000
0002EFD313311004E40000
001DFFCCFFFFF8103E3000
008FE9FFFFFFFFD206E100
01EF50CFFFFFFFF800D800
06FD005FFFFFFFF9007E10
0AF7002FFFFFFFF8002F60
0EF3002FFFFFFFF8000FA0
2FF0001FFF71DFF7000FC0
2DE0000EFF70BFF5002FE0
0990000BFFB5EFF1002FD0
09A00008FFFFFFC0001FA0
07D00004FFFFFF50000C50
05F30001EFD8EF40000B40
01FB00009FF75FE2000D10
00AF50006FF84FF7003C00
003FE3004FF93FF800C600
0009FE40177409AB1AC000
0000CFF910100005CE2000
00001BFFFA7568DFE40000
0000006EFFFFFFFB200000
000000015ACDC940000000
ENDCHAR
STARTCHAR macron
ENCODING 175
SWIDTH 446 0
DWIDTH 13 0
BBX 10 4 1 8
BITMAP
3888566578
7FFFFFFFFE
8FFFFFFFFD
37CDDABABB
ENDCHAR
STARTCHAR acute
ENCODING 180
SWIDTH 439 0
DWIDTH 12 0
BBX 10 8 1 21
BITMAP
0000001000
000002D700
00004EFD00
0006FFFF40
008FFFFFF7
1CFFFFFC73
4FFEA61000
0840000000
ENDCHAR
STARTCHAR mu
ENCODING 181
SWIDTH 679 0
DWIDTH 19 0
BBX 21 22 -1 -1
BITMAP
0001479994003420000000
15EFFFFFF5009FFDDA4000
008FFFFFF400AFFFFFFD20
002FFFFFF500EFFFFFE300
000FFFFFF300CFFFFF7000
000AFFFFF700AFFFFF4000
0007FFFFF900AFFFFC0000
0005FFFFFA00BFFFF70000
0002FFFFFB00CFFFF30000
0000EFFFFA00CFFFF00000
0000CFFFF800DFFFD00000
0000AFFFF601EFFFB00000
00009FFFF603FFFFA00000
00008FFFF702FFFF900000
00006FFFF904FFFF700000
00002FFFF907FFFF200000
00000CFFF90CFFFE000000
000008FFFE8FFFFD000000
000005FFFFFFFFF8000000
000002FFFCDFFFF3000000
0000002AA52AB980000000
0000000001004000000000
ENDCHAR
STARTCHAR paragraph
ENCODING 182
SWIDTH 591 0
DWIDTH 17 0
BBX 17 23 0 -2
BITMAP
0001476769A8642000
01AFFFFFFFFFFFFF60
0BFFFFFFFFFFFFF700
2FFFFFFFFFFFFF9000
3FFFFFFFFE57FF5000
2FFFFFFFFE02FF4000
0EFFFFFFFF04FF3000
0CFFFFFFFE05FF1000
09FFFFFFFD05FF0000
05FFFFFFFD06FF1000
01EFFFFFFC06FF0000
009FFFFFFB06FD0000
001DFFFFFB06FB0000
00017742EB06F80000
00000001FB05F40000
00000001FA05F10000
00000000EA05E00000
00000000DA05E00000
00000000E905E00000
00000000F905D00000
00000001F905C00000
00000001E806C00000
000000000102400000
ENDCHAR
STARTCHAR periodcentered
ENCODING 183
SWIDTH 388 0
DWIDTH 11 0
BBX 9 9 1 6
BITMAP
489BEFEB10
4FFFFFFF10
1FFFFFFF00
0FFFFFFE10
0DFFFFFF30
0CFFFFFF20
0BFFFFFF10
0BFFFFFF00
0686324300
ENDCHAR
STARTCHAR cedilla
ENCODING 184
SWIDTH 270 0
DWIDTH 8 0
BBX 6 10 1 -10
BITMAP
0AF800
0EF400
4FC000
8FB551
9FFFF6
134EF5
000EF4
59BFF4
9FFFF3
122441
ENDCHAR
STARTCHAR guillemotright
ENCODING 187
SWIDTH 767 0
DWIDTH 22 0
BBX 21 17 0 1
BITMAP
1333324000000000000000
1DFFFFFB006FDAB6000000
04FFFFFB000CFFFF400000
009FFFFF3002EFFFE30000
000BFFFFC0004EFFFC0000
0002FFFFF70006FFFFB000
00008FFFFF4000FFFFE400
00000AFFFFD000AFFFFF20
00001AFFFFA0001CFFFF80
00002FFFFF40006FFFFF80
00009FFFFE3002EFFFFF20
0007FFFFD10009FFFFF700
006FFFFF60003FFFFFB000
06FFFFFD1000BFFFFD1000
0DFFFFF40007FFFFF40000
08BB9960005FFFFFA00000
0000000000023333100000
ENDCHAR
STARTCHAR Agrave
ENCODING 192
SWIDTH 494 0
DWIDTH 14 0
BBX 15 36 -2 -6
BITMAP
0001000000000000
001C900000000000
004FFB1000000000
009FFFD200000000
1BFFFFFE40000000
059EFFFFF8000000
000037CEFE000000
0000000155000000
0000000000000000
0000122333210000
002CFFFFFFFFEC80
0001AFFFFFFFFC10
00001EFFFFFFF300
00000FFFFFFFD000
00000EFFFFFFB000
00000DFFFFFFA000
00001FFFFFFF9000
00001FFFFFFF8000
00000EFFFFFF6000
00000DFFDFFF5000
00000EFF9EFF4000
00000EFF5DFF5000
00001FFF3CFF5000
00002FFF1BFF6000
00000EFD5BFF4000
00002FFFFFFF6000
00004FFFFFFF4000
00003FFFFFFF2000
00000FFFAFFD0000
00000DFF1AFB0000
00000DF80BFA0000
00000AD508E70000
00000A2402650000
0000050100830000
0000000004300000
0000000004000000
ENDCHAR
STARTCHAR Aacute
ENCODING 193
SWIDTH 494 0
DWIDTH 14 0
BBX 17 36 0 -6
BITMAP
000000000000020000
0000000000006E3000
000000000008FF7000
0000000000AFFFD100
000000002CFFFFFD40
00000005EFFFFEA610
0000000AFFD9400000
000000037200000000
000000000000000000
001223332100000000
2CFFFFFFFFEC800000
01AFFFFFFFFC100000
001EFFFFFFF3000000
000FFFFFFFD0000000
000EFFFFFFB0000000
000DFFFFFFA0000000
001FFFFFFF90000000
001FFFFFFF80000000
000EFFFFFF60000000
000DFFDFFF50000000
000EFF9EFF40000000
000EFF5DFF50000000
001FFF3CFF50000000
002FFF1BFF60000000
000EFD5BFF40000000
002FFFFFFF60000000
004FFFFFFF40000000
003FFFFFFF20000000
000FFFAFFD00000000
000DFF1AFB00000000
000DF80BFA00000000
000AD508E700000000
000A24026500000000
000501008300000000
000000043000000000
000000040000000000
ENDCHAR
STARTCHAR Acircumflex
ENCODING 194
SWIDTH 494 0
DWIDTH 14 0
BBX 13 39 0 -6
BITMAP
00002101310000
0002FFFFF70000
0008FFFFFE1000
001EFFFFFF8000
007FFFFFFFE100
00DFFF5DFFF800
05FFF603EFFE10
0CFF80004FFF80
3FF9000006FFE0
3DB00000008E30
00100000000100
00000000000000
00122333210000
2CFFFFFFFFEC80
01AFFFFFFFFC10
001EFFFFFFF300
000FFFFFFFD000
000EFFFFFFB000
000DFFFFFFA000
001FFFFFFF9000
001FFFFFFF8000
000EFFFFFF6000
000DFFDFFF5000
000EFF9EFF4000
000EFF5DFF5000
001FFF3CFF5000
002FFF1BFF6000
000EFD5BFF4000
002FFFFFFF6000
004FFFFFFF4000
003FFFFFFF2000
000FFFAFFD0000
000DFF1AFB0000
000DF80BFA0000
000AD508E70000
000A2402650000
00050100830000
00000004300000
00000004000000
ENDCHAR
STARTCHAR Atilde
ENCODING 195
SWIDTH 494 0
DWIDTH 14 0
BBX 14 35 0 -6
BITMAP
005700005EA200
09FF6039FFFD20
6FFFFBFFFFFFB1
1CFFFFFFFFFFF3
02EFFFFEBEFF70
003CFE8102B500
00001000000000
00000000000000
00122333210000
2CFFFFFFFFEC80
01AFFFFFFFFC10
001EFFFFFFF300
000FFFFFFFD000
000EFFFFFFB000
000DFFFFFFA000
001FFFFFFF9000
001FFFFFFF8000
000EFFFFFF6000
000DFFDFFF5000
000EFF9EFF4000
000EFF5DFF5000
001FFF3CFF5000
002FFF1BFF6000
000EFD5BFF4000
002FFFFFFF6000
004FFFFFFF4000
003FFFFFFF2000
000FFFAFFD0000
000DFF1AFB0000
000DF80BFA0000
000AD508E70000
000A2402650000
00050100830000
00000004300000
00000004000000
ENDCHAR
STARTCHAR Adieresis
ENCODING 196
SWIDTH 494 0
DWIDTH 14 0
BBX 14 36 0 -6
BITMAP
00000000002430
8EDAC700BDFFFB
BFFFFA00EFFFFC
CFFFFA00EFFFFA
CFFFFA00EFFFFC
CFFFFA00EFFFFD
BFFFF900EFFFFB
47798400475353
00000000000000
00122333210000
2CFFFFFFFFEC80
01AFFFFFFFFC10
001EFFFFFFF300
000FFFFFFFD000
000EFFFFFFB000
000DFFFFFFA000
001FFFFFFF9000
001FFFFFFF8000
000EFFFFFF6000
000DFFDFFF5000
000EFF9EFF4000
000EFF5DFF5000
001FFF3CFF5000
002FFF1BFF6000
000EFD5BFF4000
002FFFFFFF6000
004FFFFFFF4000
003FFFFFFF2000
000FFFAFFD0000
000DFF1AFB0000
000DF80BFA0000
000AD508E70000
000A2402650000
00050100830000
00000004300000
00000004000000
ENDCHAR
STARTCHAR Aring
ENCODING 197
SWIDTH 494 0
DWIDTH 14 0
BBX 13 35 0 -6
BITMAP
00004CFED30000
0004FFFFFE3000
000AFC67EFB000
0009F7005FC000
0005F8004F7000
0002FE87EE1000
0000EFFFF60000
000012AD510000
00122333210000
2CFFFFFFFFEC80
01AFFFFFFFFC10
001EFFFFFFF300
000FFFFFFFD000
000EFFFFFFB000
000DFFFFFFA000
001FFFFFFF9000
001FFFFFFF8000
000EFFFFFF6000
000DFFDFFF5000
000EFF9EFF4000
000EFF5DFF5000
001FFF3CFF5000
002FFF1BFF6000
000EFD5BFF4000
002FFFFFFF6000
004FFFFFFF4000
003FFFFFFF2000
000FFFAFFD0000
000DFF1AFB0000
000DF80BFA0000
000AD508E70000
000A2402650000
00050100830000
00000004300000
00000004000000
ENDCHAR
STARTCHAR AE
ENCODING 198
SWIDTH 733 0
DWIDTH 21 0
BBX 20 27 0 -6
BITMAP
00013456789988764100
2BFFFFFFFFFFFFFFFFE6
019FFFFFFFFFFFFFFFE1
001EFFFFFFFFFFFFFF80
002FFFFFFFFFFFFFFF30
001FFFFFFFFFFFFFFC00
000FFFFFFFFFFFFFF700
000FFFFFFFFFFFFFF400
000EFFFFFFFFFFFFF300
000DFFFFFFFF36ADF100
000DFFEFFFFF00001000
001FFF8EFFFF44400000
000FFF5DFFFFFFFA0000
001FFF2CFFFFFFF90000
002FFF1BFFFFFFF80000
000EFC5BFFFE88840000
001FFFFFFFFC00000000
004FFFFFFFFC88841000
003FFFFFFFFFFFFF2000
000FFFBFFFFFFFFB0000
000DFE1DF90EFDBA0000
000CF70BF60CE2190000
0008D507F40D20170000
00081302920D00430000
00050100A00B00620000
00000003300200000000
00000004000000000000
ENDCHAR
STARTCHAR Ccedilla
ENCODING 199
SWIDTH 504 0
DWIDTH 14 0
BBX 14 34 0 -13
BITMAP
000039BBBA2000
0006FFFFFFF500
009FFFFFFFFE60
06FFFFFFFFFFE2
0DFFFFFFFFFFF6
1FFFFFFFFFFFF5
3FFFFFFFFFFFF6
2FFFFFFFFFFFF6
1FFFFFFFFFFFF5
0EFFFFD6FFFFF4
0CFFFF508FFFF3
08FFFF603FFFF1
07FFFF60265560
05FFFF40000000
02FFFF20000000
00EFFF30385200
00BFFF508FFF50
00AFFF80CFFF10
003FFFE9FFFD00
000EFFFFFFF700
000AFFFFFFA100
00003D6AFE1000
00000806B10000
00000606900000
000000002FF200
000000006FC000
00000000AF6000
00000000EF7550
00000001FFFFE0
00000000238FE0
00000000005FD0
000000008ACFC0
00000000FFFFC0
00000000213430
ENDCHAR
STARTCHAR Egrave
ENCODING 200
SWIDTH 570 0
DWIDTH 16 0
BBX 15 32 0 -2
BITMAP
0010000000000000
00BA100000000000
02FFC20000000000
07FFFE3000000000
AFFFFFE500000000
49DFFFFFA0000000
00027BEFF1000000
0000000460000000
0000000000000000
0136789998653100
1EFFFFFFFFFFFFB0
04FFFFFFFFFFFF40
00BFFFFFFFFFFF00
005FFFFFFFFFFC00
006FFFFFFFFFF700
005FFFFFFFFFF300
005FFFFFFFFFD000
004FFFFFFFFF9000
002FFFF858CF7000
001FFFF600001000
000EFFF844100000
000CFFFFFFF10000
000CFFFFFFE00000
000AFFFFFFE00000
0008FFFA88900000
0006FFF300000000
0004FFF888630000
0003FFFFFFF70000
0002FEFFFFF20000
0001C09FF9E10000
0000909D80900000
0000104210400000
ENDCHAR
STARTCHAR Eacute
ENCODING 201
SWIDTH 570 0
DWIDTH 16 0
BBX 18 32 0 -2
BITMAP
000000000000002000
00000000000004E400
0000000000006FFA00
000000000008FFFE20
0000000001AFFFFFD5
000000003EFFFFFB62
000000008FFD951000
000000002730000000
000000000000000000
013678999865310000
1EFFFFFFFFFFFFB000
04FFFFFFFFFFFF4000
00BFFFFFFFFFFF0000
005FFFFFFFFFFC0000
006FFFFFFFFFF70000
005FFFFFFFFFF30000
005FFFFFFFFFD00000
004FFFFFFFFF900000
002FFFF858CF700000
001FFFF60000100000
000EFFF84410000000
000CFFFFFFF1000000
000CFFFFFFE0000000
000AFFFFFFE0000000
0008FFFA8890000000
0006FFF30000000000
0004FFF88863000000
0003FFFFFFF7000000
0002FEFFFFF2000000
0001C09FF9E1000000
0000909D8090000000
000010421040000000
ENDCHAR
STARTCHAR Ecircumflex
ENCODING 202
SWIDTH 570 0
DWIDTH 16 0
BBX 15 35 0 -2
BITMAP
0000022013100000
00001EFFFF900000
00007FFFFFF20000
0000DFFFFFF90000
0005FFFFFFFF2000
000BFFF6CFFFA000
003FFF802DFFF300
00AFFA0003EFFA00
02FFB000005FFF10
02CC10000006F500
0001000000001000
0000000000000000
0136789998653100
1EFFFFFFFFFFFFB0
04FFFFFFFFFFFF40
00BFFFFFFFFFFF00
005FFFFFFFFFFC00
006FFFFFFFFFF700
005FFFFFFFFFF300
005FFFFFFFFFD000
004FFFFFFFFF9000
002FFFF858CF7000
001FFFF600001000
000EFFF844100000
000CFFFFFFF10000
000CFFFFFFE00000
000AFFFFFFE00000
0008FFFA88900000
0006FFF300000000
0004FFF888630000
0003FFFFFFF70000
0002FEFFFFF20000
0001C09FF9E10000
0000909D80900000
0000104210400000
ENDCHAR
STARTCHAR Edieresis
ENCODING 203
SWIDTH 570 0
DWIDTH 16 0
BBX 15 32 0 -2
BITMAP
0000000000014300
06DEBC800ADFFFD0
09FFFFC00CFFFFD0
0AFFFFC00CFFFFC0
0AFFFFC00CFFFFD0
0AFFFFC00CFFFFF0
09FFFFB00CFFFFD0
0377985003764530
0000000000000000
0136789998653100
1EFFFFFFFFFFFFB0
04FFFFFFFFFFFF40
00BFFFFFFFFFFF00
005FFFFFFFFFFC00
006FFFFFFFFFF700
005FFFFFFFFFF300
005FFFFFFFFFD000
004FFFFFFFFF9000
002FFFF858CF7000
001FFFF600001000
000EFFF844100000
000CFFFFFFF10000
000CFFFFFFE00000
000AFFFFFFE00000
0008FFFA88900000
0006FFF300000000
0004FFF888630000
0003FFFFFFF70000
0002FEFFFFF20000
0001C09FF9E10000
0000909D80900000
0000104210400000
ENDCHAR
STARTCHAR Igrave
ENCODING 204
SWIDTH 401 0
DWIDTH 11 0
BBX 14 32 -3 -2
BITMAP
00010000000000
004E4000000000
00AFF600000000
02EFFF80000000
5DFFFFFB100000
27BFFFFFE30000
000159DFF80000
00000002720000
00000000000000
0002ABBB9BAA93
0002FFFFFFFFE2
00007FFFFFFF90
000007FFFFFF20
000002EFFFFD10
000000AFFFFF20
000000BFFFFF00
000000DFFFFE00
000000EFFFFC00
000000DFFFF900
000000CFFFF500
000000BFFFF600
000000AFFFF600
0000008FFFF600
0000006FFFF200
0000004FFFE100
0000002FFFF200
0000000FFFF100
0000000DFFF000
0000000BFFE000
000000096DF100
00000007296200
00000000041000
ENDCHAR
STARTCHAR Iacute
ENCODING 205
SWIDTH 401 0
DWIDTH 11 0
BBX 15 32 0 -2
BITMAP
0000000000001000
00000000001BB000
0000000002CFF100
000000003EFFF800
00000005EFFFFFA0
000000AFFFFFD840
000001FFEB720000
0000007510000000
0000000000000000
2ABBB9BAA9300000
2FFFFFFFFE200000
07FFFFFFF9000000
007FFFFFF2000000
002EFFFFD1000000
000AFFFFF2000000
000BFFFFF0000000
000DFFFFE0000000
000EFFFFC0000000
000DFFFF90000000
000CFFFF50000000
000BFFFF60000000
000AFFFF60000000
0008FFFF60000000
0006FFFF20000000
0004FFFE10000000
0002FFFF20000000
0000FFFF10000000
0000DFFF00000000
0000BFFE00000000
000096DF10000000
0000729620000000
0000004100000000
ENDCHAR
STARTCHAR Icircumflex
ENCODING 206
SWIDTH 401 0
DWIDTH 11 0
BBX 13 35 -1 -2
BITMAP
00012102300000
0008FFFFE10000
001EFFFFF90000
006FFFFFFF2000
00DFFFFFFF9000
05FFFC6FFFF200
0BFFD108FFF900
3FFE2000AFFF20
AFF300001CFF80
7F50000001DB10
01000000001000
00000000000000
02ABBB9BAA9300
02FFFFFFFFE200
007FFFFFFF9000
0007FFFFFF2000
0002EFFFFD1000
0000AFFFFF2000
0000BFFFFF0000
0000DFFFFE0000
0000EFFFFC0000
0000DFFFF90000
0000CFFFF50000
0000BFFFF60000
0000AFFFF60000
00008FFFF60000
00006FFFF20000
00004FFFE10000
00002FFFF20000
00000FFFF10000
00000DFFF00000
00000BFFE00000
0000096DF10000
00000729620000
00000004100000
ENDCHAR
STARTCHAR Idieresis
ENCODING 207
SWIDTH 401 0
DWIDTH 11 0
BBX 15 32 -2 -2
BITMAP
0000000000034200
1CECAB204DEFFF50
2FFFFF405FFFFF50
3FFFFF405FFFFF40
3FFFFF405FFFFF50
3FFFFF405FFFFF70
2FFFFF305FFFFF50
1678881025743510
0000000000000000
002ABBB9BAA93000
002FFFFFFFFE2000
0007FFFFFFF90000
00007FFFFFF20000
00002EFFFFD10000
00000AFFFFF20000
00000BFFFFF00000
00000DFFFFE00000
00000EFFFFC00000
00000DFFFF900000
00000CFFFF500000
00000BFFFF600000
00000AFFFF600000
000008FFFF600000
000006FFFF200000
000004FFFE100000
000002FFFF200000
000000FFFF100000
000000DFFF000000
000000BFFE000000
00000096DF100000
0000007296200000
0000000041000000
ENDCHAR
STARTCHAR Eth
ENCODING 208
SWIDTH 530 0
DWIDTH 15 0
BBX 15 25 1 -4
BITMAP
000003579A920000
05ADFFFFFFFB1000
0AFFFFFFFFFFB100
07FFFFFFFFFFFB00
01EFFFFFFFFFFE00
00AFFFFFFFFFFF30
005FFFFFFFFFFF50
003FFFFFFFFFFF50
002FFFFFFFFFFF40
001FFFFF7BFFFF10
000EFFFB01FFFD00
000CFFF700EFFA00
BCBEFFFDC2EFF600
9BCEFFFDC0CFF200
0009FFF700EFD000
0006FFF603FF9000
0003FFF706FF6000
0001FFFD6CFF5000
0000EFFFEFFF4000
0001FFFFFFFE1000
0000EC59FFF60000
0000E205FD600000
0000B00596000000
0000600553000000
0000000530000000
ENDCHAR
STARTCHAR Ntilde
ENCODING 209
SWIDTH 610 0
DWIDTH 17 0
BBX 17 34 0 -5
BITMAP
0003810004CB400000
006FFA018EFFF40000
02FFFFCEFFFFFE2000
008FFFFFFFFFFF7000
000BFFFFFBDFFB0000
0001AEF92019800000
000001100000000000
000000000000000000
012345680696420000
1CFFFFFC05FFFFEB20
09EFFFFF01FFFFF600
00AFFFFF50EFFF9000
008FFFFFB0DFFF5000
007FFFFFF2DFFF5000
006FFFFFF6EFFF3000
005FFFFFFCEFFF1000
003FFFFFFFFFFE0000
002FFFFFFFFFFC0000
000FFFFFFFFFFA0000
000DFFFFFFFFF80000
000BFFFFFFFFF60000
0007FFFFFFFFF40000
0005FFFAFFFFF30000
0001FFF7FFFFF30000
0000FFF5BFFFF20000
0000EFF39FFFF10000
0000DFF54FFFF00000
0000CFF60DFFC00000
0000BFF70BFFB00000
0000AFE807FBA00000
0000971804E9600000
000081060222000000
000062070320000000
000010030100000000
ENDCHAR
STARTCHAR Ograve
ENCODING 210
SWIDTH 504 0
DWIDTH 14 0
BBX 16 33 -2 -3
BITMAP
0001000000000000
001D800000000000
005FFA1000000000
00AFFFC200000000
1CFFFFFD30000000
159EFFFFF8000000
000038CFFD000000
0000000155000000
0000000000000000
0000001688610000
000007FFFFFEB300
00009FFFFFFFFE30
0006FFFFFFFFFFE2
000EFFFFFFFFFFF2
003FFFFFFFFFFFF3
002FFFFFFFFFFFF6
000FFFFFFFFFFFF2
000EFFFFFFFFFFF3
000CFFFF87FFFFF6
0009FFFE10EFFFF6
0007FFFC00CFFFF5
0004FFFB00AFFFF4
0003FFFB009FFFF2
0002FFFD009FFFB0
0000EFFE00AFFF70
0000AFFF20EFFF50
00007FFF61FFFF10
00007FFFECFFFC00
00003FFFFFFFF600
000006EFFFFFE000
0000002D75F9A000
0000000722E05000
0000000001400000
ENDCHAR
STARTCHAR Oacute
ENCODING 211
SWIDTH 504 0
DWIDTH 14 0
BBX 17 33 0 -3
BITMAP
000000000000020000
0000000000007E2000
000000000009FF6000
0000000001BFFFC100
000000002CFFFFFC30
00000005FFFFFEA610
0000000BFFC8400000
000000046200000000
000000000000000000
000016886100000000
0007FFFFFEB3000000
009FFFFFFFFE300000
06FFFFFFFFFFE20000
0EFFFFFFFFFFF20000
3FFFFFFFFFFFF30000
2FFFFFFFFFFFF60000
0FFFFFFFFFFFF20000
0EFFFFFFFFFFF30000
0CFFFF87FFFFF60000
09FFFE10EFFFF60000
07FFFC00CFFFF50000
04FFFB00AFFFF40000
03FFFB009FFFF20000
02FFFD009FFFB00000
00EFFE00AFFF700000
00AFFF20EFFF500000
007FFF61FFFF100000
007FFFECFFFC000000
003FFFFFFFF6000000
0006EFFFFFE0000000
00002D75F9A0000000
00000722E050000000
000000014000000000
ENDCHAR
STARTCHAR Ocircumflex
ENCODING 212
SWIDTH 504 0
DWIDTH 14 0
BBX 14 36 0 -3
BITMAP
00002101400000
0003FFFFF60000
000AFFFFFD0000
002FFFFFFF6000
008FFFFFFFE100
01EFFE5EFFF700
06FFF503FFFE10
0DFF70005FFF70
4FF8000008FFD0
3DA00000009E30
01000000000100
00000000000000
00001688610000
0007FFFFFEB300
009FFFFFFFFE30
06FFFFFFFFFFE2
0EFFFFFFFFFFF2
3FFFFFFFFFFFF3
2FFFFFFFFFFFF6
0FFFFFFFFFFFF2
0EFFFFFFFFFFF3
0CFFFF87FFFFF6
09FFFE10EFFFF6
07FFFC00CFFFF5
04FFFB00AFFFF4
03FFFB009FFFF2
02FFFD009FFFB0
00EFFE00AFFF70
00AFFF20EFFF50
007FFF61FFFF10
007FFFECFFFC00
003FFFFFFFF600
0006EFFFFFE000
00002D75F9A000
00000722E05000
00000001400000
ENDCHAR
STARTCHAR Otilde
ENCODING 213
SWIDTH 504 0
DWIDTH 14 0
BBX 14 32 0 -3
BITMAP
01920003BC5000
4EFC107DFFF600
EFFFDDFFFFFF40
6FFFFFFFFFFFA0
09FFFFFCDFFD10
009EFB3007A100
00002000000000
00000000000000
00001688610000
0007FFFFFEB300
009FFFFFFFFE30
06FFFFFFFFFFE2
0EFFFFFFFFFFF2
3FFFFFFFFFFFF3
2FFFFFFFFFFFF6
0FFFFFFFFFFFF2
0EFFFFFFFFFFF3
0CFFFF87FFFFF6
09FFFE10EFFFF6
07FFFC00CFFFF5
04FFFB00AFFFF4
03FFFB009FFFF2
02FFFD009FFFB0
00EFFE00AFFF70
00AFFF20EFFF50
007FFF61FFFF10
007FFFECFFFC00
003FFFFFFFF600
0006EFFFFFE000
00002D75F9A000
00000722E05000
00000001400000
ENDCHAR
STARTCHAR Odieresis
ENCODING 214
SWIDTH 504 0
DWIDTH 14 0
BBX 14 33 0 -3
BITMAP
00000000002430
9EDAC601CDFFFA
CFFFF900FFFFFA
DFFFF900FFFFF9
DFFFF900FFFFFA
DFFFF900FFFFFC
CFFFF800FFFFFA
57898400575353
00000000000000
00001688610000
0007FFFFFEB300
009FFFFFFFFE30
06FFFFFFFFFFE2
0EFFFFFFFFFFF2
3FFFFFFFFFFFF3
2FFFFFFFFFFFF6
0FFFFFFFFFFFF2
0EFFFFFFFFFFF3
0CFFFF87FFFFF6
09FFFE10EFFFF6
07FFFC00CFFFF5
04FFFB00AFFFF4
03FFFB009FFFF2
02FFFD009FFFB0
00EFFE00AFFF70
00AFFF20EFFF50
007FFF61FFFF10
007FFFECFFFC00
003FFFFFFFF600
0006EFFFFFE000
00002D75F9A000
00000722E05000
00000001400000
ENDCHAR
STARTCHAR multiply
ENCODING 215
SWIDTH 359 0
DWIDTH 10 0
BBX 10 11 0 5
BITMAP
0038003A00
02EF51DF80
3EFFEAFFF6
4EFFFFFFF8
03EFFFFF70
007FFFFD00
04EFFFFFA0
4FFFFFFFF8
1DFFFBFFF9
03EF60CFA0
0056001800
ENDCHAR
STARTCHAR Oslash
ENCODING 216
SWIDTH 658 0
DWIDTH 18 0
BBX 20 24 -1 -3
BITMAP
00000027886200000000
000008FFFFFFC6000000
0000BFFFFFFFFF700055
0009FFFFFFFFFFF607C1
002FFFFFFFFFFFF77C10
005FFFFFFFFFFFFDC100
004FFFFFFFFFFFFE2000
002FFFFFFFFFFFF70000
001FFFFFFFFFFFF80000
000EFFFF76FFFFFA0000
000CFFFD00CFFFFA0000
0009FFF903EFFFFA0000
0007FFF83EDFFFF90000
0006FFFBD77FFFF70000
0004FFFF707FFFE20000
0002FFFC009FFFC00000
0000DFFF00DFFFB00000
0000CFFF51EFFF600000
000AEFFFDCFFFF200000
00A86FFFFFFFFB000000
098008FFFFFFF4000000
5900004F64FBB1000000
2000000A11F250000000
00000000005000000000
ENDCHAR
STARTCHAR Ugrave
ENCODING 217
SWIDTH 637 0
DWIDTH 18 0
BBX 18 32 0 -2
BITMAP
000100000000000000
000BA1000000000000
002FFC200000000000
007FFFE30000000000
0AFFFFFE5000000000
049DFFFFFA00000000
000027BEFF10000000
000000004600000000
000000000000000000
12579AA90044430000
3BFFFFFC008FFFFC71
01EFFFFD00AFFFFF50
00BFFFFC00CFFFFB00
00BFFFF900BFFFF900
007FFFFD00BFFFF500
005FFFFF00CFFFF200
003FFFFF00CFFFD000
001FFFFF00DFFFA000
000EFFFE00EFFF6000
000CFFFB00EFFF3000
000AFFF801FFFF1000
000BFFF902FFFF1000
000BFFFB03FFFF0000
0009FFFD04FFFC0000
0009FFFF05FFFB0000
0004FFFF17FFF80000
0002FFFFAEFFF50000
0000EFFFFFFFF30000
0000AFFEBFFFB00000
00001BDB0B95200000
000004810381000000
000000000060000000
ENDCHAR
STARTCHAR Uacute
ENCODING 218
SWIDTH 637 0
DWIDTH 18 0
BBX 19 32 0 -2
BITMAP
00000000000000020000
000000000000004E4000
00000000000006FFA000
0000000000008FFFE200
00000000001AFFFFFD50
0000000003EFFFFFB620
0000000008FFD9510000
00000000027300000000
00000000000000000000
12579AA9004443000000
3BFFFFFC008FFFFC7100
01EFFFFD00AFFFFF5000
00BFFFFC00CFFFFB0000
00BFFFF900BFFFF90000
007FFFFD00BFFFF50000
005FFFFF00CFFFF20000
003FFFFF00CFFFD00000
001FFFFF00DFFFA00000
000EFFFE00EFFF600000
000CFFFB00EFFF300000
000AFFF801FFFF100000
000BFFF902FFFF100000
000BFFFB03FFFF000000
0009FFFD04FFFC000000
0009FFFF05FFFB000000
0004FFFF17FFF8000000
0002FFFFAEFFF5000000
0000EFFFFFFFF3000000
0000AFFEBFFFB0000000
00001BDB0B9520000000
00000481038100000000
00000000006000000000
ENDCHAR
STARTCHAR Ucircumflex
ENCODING 219
SWIDTH 637 0
DWIDTH 18 0
BBX 18 35 0 -2
BITMAP
000000220131000000
000001EFFFF9000000
000007FFFFFF200000
00000DFFFFFF900000
00005FFFFFFFF20000
0000BFFF6CFFFA0000
0003FFF802DFFF3000
000AFFA0003EFFA000
002FFB000005FFF100
002CC10000006F5000
000010000000010000
000000000000000000
12579AA90044430000
3BFFFFFC008FFFFC71
01EFFFFD00AFFFFF50
00BFFFFC00CFFFFB00
00BFFFF900BFFFF900
007FFFFD00BFFFF500
005FFFFF00CFFFF200
003FFFFF00CFFFD000
001FFFFF00DFFFA000
000EFFFE00EFFF6000
000CFFFB00EFFF3000
000AFFF801FFFF1000
000BFFF902FFFF1000
000BFFFB03FFFF0000
0009FFFD04FFFC0000
0009FFFF05FFFB0000
0004FFFF17FFF80000
0002FFFFAEFFF50000
0000EFFFFFFFF30000
0000AFFEBFFFB00000
00001BDB0B95200000
000004810381000000
000000000060000000
ENDCHAR
STARTCHAR Udieresis
ENCODING 220
SWIDTH 637 0
DWIDTH 18 0
BBX 18 32 0 -2
BITMAP
000000000000143000
006DEBC800ADFFFD00
009FFFFC00CFFFFD00
00AFFFFC00CFFFFC00
00AFFFFC00CFFFFD00
00AFFFFC00CFFFFF00
009FFFFB00CFFFFD00
003779850037645300
000000000000000000
12579AA90044430000
3BFFFFFC008FFFFC71
01EFFFFD00AFFFFF50
00BFFFFC00CFFFFB00
00BFFFF900BFFFF900
007FFFFD00BFFFF500
005FFFFF00CFFFF200
003FFFFF00CFFFD000
001FFFFF00DFFFA000
000EFFFE00EFFF6000
000CFFFB00EFFF3000
000AFFF801FFFF1000
000BFFF902FFFF1000
000BFFFB03FFFF0000
0009FFFD04FFFC0000
0009FFFF05FFFB0000
0004FFFF17FFF80000
0002FFFFAEFFF50000
0000EFFFFFFFF30000
0000AFFEBFFFB00000
00001BDB0B95200000
000004810381000000
000000000060000000
ENDCHAR
STARTCHAR Yacute
ENCODING 221
SWIDTH 688 0
DWIDTH 19 0
BBX 20 32 0 -2
BITMAP
00000000000000002000
0000000000000006E200
000000000000008FF700
0000000000001AFFFD10
000000000002CFFFFFD3
00000000005EFFFFEA61
0000000000AFFC840000
00000000004720000000
00000000000000000000
013669990000A5100000
3CFFFFFF6002FFFDB610
006EFFFFD104FFFFFFD6
0001AFFFF80AFFFFF600
00001EFFFE3FFFFF7000
000003EFFFEFFFF80000
0000005FFFFFFFB00000
0000000EFFFFFF400000
00000007FFFFFF100000
00000002FFFFFE000000
00000000DFFFFD000000
000000005FFFFB000000
000000001EFFFA000000
000000000BFFF9000000
0000000008FFF8000000
0000000006FFF7000000
0000000004FFF6000000
0000000003FFF6000000
0000000002FFF5000000
0000000001FFF4000000
0000000000EFF3000000
0000000000CB70000000
00000000001000000000
ENDCHAR
STARTCHAR Thorn
ENCODING 222
SWIDTH 521 0
DWIDTH 15 0
BBX 14 30 0 -4
BITMAP
01555768300000
9FFFFFFE000000
5FFFFFFB000000
4FFFFFF9000000
2FFFFFF6000000
0FFFFFFC787500
0DFFFFFFFFFFB0
0AFFFFFFFFFFF4
09FFFFFFFFFFF9
08FFFFFFFFFFFB
07FFFFFFFFFFFB
06FFFFFFFFFFFA
05FFFFFFFFFFF9
03FFFFFFFFFFF8
01FFFFF506FFF6
00DFFFF602FFF4
00BFFFF701FFF2
008FFFF700FFE0
005FFFFB88FFA0
002FFFFFFFFF60
000EFFFFFFFE10
000BFFFB779300
0009FFF7000000
000CFFF8000000
000BFFF9000000
0008FFF9000000
0004E7E9000000
0002C085000000
0000D081000000
00005040000000
ENDCHAR
STARTCHAR germandbls
ENCODING 223
SWIDTH 546 0
DWIDTH 15 0
BBX 14 23 1 -2
BITMAP
00013455553000
04DFFFFFFFFD30
2EFFFFFFFFFFE1
8FFFFFFFFFFFF5
CFFFFFFFFFFFF7
DFFFFFFFFFFFF7
CFFFFFFFFFFFF6
FFFFFFFFFFFFF7
FFFFFFFFFFFFF3
DFFFFD58FFFFC0
AFFFFA00DFFF60
8FFFFA00EFFE10
6FFFF933FFFA00
3FFFF87FFFF600
1FFFF86FFF9100
0DFFF85FFFF300
0CFFF818FFF900
0BFFF902FFF800
0AFFF902FFF500
07FFF836FFF300
02FFF88FFFE000
03FBE89FFF8000
00505128DD1000
ENDCHAR
STARTCHAR agrave
ENCODING 224
SWIDTH 479 0
DWIDTH 13 0
BBX 15 33 -1 -3
BITMAP
0011000000000000
008C200000000000
00EFD30000000000
05FFFE5000000000
7FFFFFF700000000
38CFFFFFC1000000
00026AEFF3000000
0000000470000000
0000000000000000
01579ABCDBACDD50
03EFFFFFFFFFF500
002EFFFFFFFFC000
0003FFFFFFFF7000
0002FFFFFFFF6000
0001FFFFFFFF5000
0000DFFFFFFF5000
0001DFFFFFFF4000
0002FFFFFFFF3000
0000FFFFFFFF1000
0000DFFFEFFE1000
0000CFFEBFFF1000
0001FFFB9FFF4000
0002FFF87FFF3000
0004FFF56FFF5000
0004FFF44FFF5000
0003FFF78FFF3000
0003FFFFFFFF2000
0006FFFFFFFF0000
0004FFFABFFE0000
0002FFF43EFD0000
0004FFC10FFC0000
0002FF9017BA0000
0000561000000000
ENDCHAR
STARTCHAR aacute
ENCODING 225
SWIDTH 479 0
DWIDTH 13 0
BBX 17 33 0 -3
BITMAP
000000000000010000
0000000000003D7000
000000000004EFC000
00000000006FFFF400
0000000008FFFFFE70
00000001DFFFFFC730
00000005FFDA510000
000000018400000000
000000000000000000
1579ABCDBACDD50000
3EFFFFFFFFFF500000
02EFFFFFFFFC000000
003FFFFFFFF7000000
002FFFFFFFF6000000
001FFFFFFFF5000000
000DFFFFFFF5000000
001DFFFFFFF4000000
002FFFFFFFF3000000
000FFFFFFFF1000000
000DFFFEFFE1000000
000CFFEBFFF1000000
001FFFB9FFF4000000
002FFF87FFF3000000
004FFF56FFF5000000
004FFF44FFF5000000
003FFF78FFF3000000
003FFFFFFFF2000000
006FFFFFFFF0000000
004FFFABFFE0000000
002FFF43EFD0000000
004FFC10FFC0000000
002FF9017BA0000000
000561000000000000
ENDCHAR
STARTCHAR acircumflex
ENCODING 226
SWIDTH 479 0
DWIDTH 13 0
BBX 14 36 0 -3
BITMAP
00001200320000
0000CFFFFC0000
0004FFFFFF4000
000BFFFFFFC000
002FFFFFFFF500
009FFF8AFFFC00
01EFFA01CFFF50
07FFC1001DFFD0
0DFD100003EFF4
1AE20000004F70
00100000000100
00000000000000
1579ABCDBACDD5
3EFFFFFFFFFF50
02EFFFFFFFFC00
003FFFFFFFF700
002FFFFFFFF600
001FFFFFFFF500
000DFFFFFFF500
001DFFFFFFF400
002FFFFFFFF300
000FFFFFFFF100
000DFFFEFFE100
000CFFEBFFF100
001FFFB9FFF400
002FFF87FFF300
004FFF56FFF500
004FFF44FFF500
003FFF78FFF300
003FFFFFFFF200
006FFFFFFFF000
004FFFABFFE000
002FFF43EFD000
004FFC10FFC000
002FF9017BA000
00056100000000
ENDCHAR
STARTCHAR atilde
ENCODING 227
SWIDTH 479 0
DWIDTH 13 0
BBX 14 32 0 -3
BITMAP
007500017E8100
1BFF404BFFFC00
9FFFEBFFFFFF91
2EFFFFFFFFFFE1
04FFFFFDBFFF50
005DFD6003B300
00002000000000
00000000000000
1579ABCDBACDD5
3EFFFFFFFFFF50
02EFFFFFFFFC00
003FFFFFFFF700
002FFFFFFFF600
001FFFFFFFF500
000DFFFFFFF500
001DFFFFFFF400
002FFFFFFFF300
000FFFFFFFF100
000DFFFEFFE100
000CFFEBFFF100
001FFFB9FFF400
002FFF87FFF300
004FFF56FFF500
004FFF44FFF500
003FFF78FFF300
003FFFFFFFF200
006FFFFFFFF000
004FFFABFFE000
002FFF43EFD000
004FFC10FFC000
002FF9017BA000
00056100000000
ENDCHAR
STARTCHAR adieresis
ENCODING 228
SWIDTH 479 0
DWIDTH 13 0
BBX 15 33 0 -3
BITMAP
0000000000143100
4DEBBA008DEFFF10
7FFFFE009FFFFF10
7FFFFE009FFFFF00
8FFFFE009FFFFE20
7FFFFE009FFFFF20
7FFFFD009FFFFF10
2779860027644400
0000000000000000
1579ABCDBACDD500
3EFFFFFFFFFF5000
02EFFFFFFFFC0000
003FFFFFFFF70000
002FFFFFFFF60000
001FFFFFFFF50000
000DFFFFFFF50000
001DFFFFFFF40000
002FFFFFFFF30000
000FFFFFFFF10000
000DFFFEFFE10000
000CFFEBFFF10000
001FFFB9FFF40000
002FFF87FFF30000
004FFF56FFF50000
004FFF44FFF50000
003FFF78FFF30000
003FFFFFFFF20000
006FFFFFFFF00000
004FFFABFFE00000
002FFF43EFD00000
004FFC10FFC00000
002FF9017BA00000
0005610000000000
ENDCHAR
STARTCHAR aring
ENCODING 229
SWIDTH 479 0
DWIDTH 13 0
BBX 14 34 0 -3
BITMAP
00002BFFE60000
0001EFFFFF6000
0006FE76DFF000
0005FB002FF100
0002FB001FB000
0000DF96CF3000
0000AFFFFA0000
0000119D810000
00000000000000
00000000000000
1579ABCDBACDD5
3EFFFFFFFFFF50
02EFFFFFFFFC00
003FFFFFFFF700
002FFFFFFFF600
001FFFFFFFF500
000DFFFFFFF500
001DFFFFFFF400
002FFFFFFFF300
000FFFFFFFF100
000DFFFEFFE100
000CFFEBFFF100
001FFFB9FFF400
002FFF87FFF300
004FFF56FFF500
004FFF44FFF500
003FFF78FFF300
003FFFFFFFF200
006FFFFFFFF000
004FFFABFFE000
002FFF43EFD000
004FFC10FFC000
002FF9017BA000
00056100000000
ENDCHAR
STARTCHAR ae
ENCODING 230
SWIDTH 755 0
DWIDTH 21 0
BBX 21 24 0 -3
BITMAP
1579ABCDBBDDDB97520000
3EFFFFFFFFFFFFFFFFEC20
02DFFFFFFFFFFFFFFFF900
002FFFFFFFFFFFFFFFE100
000FFFFFFFFFFFFFFF8000
000DFFFFFFFFFFFFFF4000
000AFFFFFFFFFFFFFF1000
000CFFFFFFFFFFFFFE0000
000FFFFFFFFFFFFFFD0000
000DFFFFFFFFBBDFFA0000
000AFFFEFFFF6002650000
000AFFFAFFFF7000000000
000EFFD7FFFFC999100000
000EFFB5FFFFFFFF200000
001FFF83FFFFFFFF100000
002FFF63FFFFFFFE000000
002EFF87FFFF9336000000
001EFFFFFFFF6000000000
003FFFFFFFFFADBA500000
000EFFBAFFFFFFFF700000
001EFF72EFFFFFFF300000
001FFD10EFA2EC9C300000
000FFB007B701005200000
0004610000000000000000
ENDCHAR
STARTCHAR ccedilla
ENCODING 231
SWIDTH 534 0
DWIDTH 15 0
BBX 15 33 0 -12
BITMAP
0000179DDB610000
0005EFFFFFFD2000
008FFFFFFFFFD400
06FFFFFFFFFFFC10
0DFFFFFFFFFFFF60
2FFFFFFFFFFFFF10
4FFFFFFFFFFFFF40
3FFFFFFFFFFFFF40
1FFFFFFFFFFFFF30
0DFFFFFCAFFFFF10
09FFFFE01DFFFF00
05FFFFC009FFFD00
02FFFFF006ACCB00
02FFFFB000000000
00EFFFB000000000
00BFFFD004510000
006FFFF00EFF7000
004FFFF34FFF7000
001FFFF8AFFF5000
0007FFFFFFFE1000
0002FFFFFFE70000
000077CCBF600000
0000004128000000
00000000CF600000
00000002FF200000
00000006FA000000
0000000BF9561000
0000000CFFFF3000
0000000135FF3000
0000000001FF2000
000000069BFF1000
0000000BFFFF1000
0000000222440000
ENDCHAR
STARTCHAR egrave
ENCODING 232
SWIDTH 632 0
DWIDTH 18 0
BBX 17 32 0 -2
BITMAP
000100000000000000
002E70000000000000
006FF9000000000000
01BFFFB10000000000
2CFFFFFD2000000000
16AEFFFFF600000000
000048CFFB00000000
000000016400000000
000000000000000000
000135788887641000
18DFFFFFFFFFFFFE80
1CFFFFFFFFFFFFFF20
02FFFFFFFFFFFFF800
008FFFFFFFFFFFF200
005FFFFFFFFFFFC000
003FFFFFFFFFFF9000
001FFFFFFFFFFF7000
000DFFFFFFFFFF5000
000AFFFFCBDEFF3000
0008FFFF9001490000
0005FFFF9000000000
0003FFFFC999600000
0000DFFFFFFFA00000
0000DFFFFFFFA00000
0000CFFFFFFF800000
0000AFFFA336400000
00007FFF8000000000
00005FFFADCA910000
00002FFFFFFFF00000
00000EFFFFFFC00000
00000B41EDA9B00000
000003001000800000
ENDCHAR
STARTCHAR eacute
ENCODING 233
SWIDTH 632 0
DWIDTH 18 0
BBX 19 32 0 -2
BITMAP
00000000000000020000
000000000000008D1000
0000000000001AFF5000
000000000001CFFFB100
00000000003DFFFFFC20
0000000007FFFFFE9510
000000000CFFC8300000
00000000056100000000
00000000000000000000
00013578888764100000
18DFFFFFFFFFFFFE8000
1CFFFFFFFFFFFFFF2000
02FFFFFFFFFFFFF80000
008FFFFFFFFFFFF20000
005FFFFFFFFFFFC00000
003FFFFFFFFFFF900000
001FFFFFFFFFFF700000
000DFFFFFFFFFF500000
000AFFFFCBDEFF300000
0008FFFF900149000000
0005FFFF900000000000
0003FFFFC99960000000
0000DFFFFFFFA0000000
0000DFFFFFFFA0000000
0000CFFFFFFF80000000
0000AFFFA33640000000
00007FFF800000000000
00005FFFADCA91000000
00002FFFFFFFF0000000
00000EFFFFFFC0000000
00000B41EDA9B0000000
00000300100080000000
ENDCHAR
STARTCHAR ecircumflex
ENCODING 234
SWIDTH 632 0
DWIDTH 18 0
BBX 17 35 0 -2
BITMAP
000000210240000000
000005FFFFF4000000
00000BFFFFFC000000
00003FFFFFFF400000
0000AFFFFFFFC00000
0002FFFE5EFFF50000
0008FFF305FFFC0000
001EFF50007FFF5000
006FF6000009FFB000
005E80000000BD2000
000100000000010000
000000000000000000
000135788887641000
18DFFFFFFFFFFFFE80
1CFFFFFFFFFFFFFF20
02FFFFFFFFFFFFF800
008FFFFFFFFFFFF200
005FFFFFFFFFFFC000
003FFFFFFFFFFF9000
001FFFFFFFFFFF7000
000DFFFFFFFFFF5000
000AFFFFCBDEFF3000
0008FFFF9001490000
0005FFFF9000000000
0003FFFFC999600000
0000DFFFFFFFA00000
0000DFFFFFFFA00000
0000CFFFFFFF800000
0000AFFFA336400000
00007FFF8000000000
00005FFFADCA910000
00002FFFFFFFF00000
00000EFFFFFFC00000
00000B41EDA9B00000
000003001000800000
ENDCHAR
STARTCHAR edieresis
ENCODING 235
SWIDTH 632 0
DWIDTH 18 0
BBX 17 32 0 -2
BITMAP
000000000000242000
00AEDAC502CDFFF800
00EFFFF702FFFFF900
00EFFFF702FFFFF800
00FFFFF702FFFFF900
00FFFFF702FFFFFA00
00EFFFF601FFFFF900
005789830157535200
000000000000000000
000135788887641000
18DFFFFFFFFFFFFE80
1CFFFFFFFFFFFFFF20
02FFFFFFFFFFFFF800
008FFFFFFFFFFFF200
005FFFFFFFFFFFC000
003FFFFFFFFFFF9000
001FFFFFFFFFFF7000
000DFFFFFFFFFF5000
000AFFFFCBDEFF3000
0008FFFF9001490000
0005FFFF9000000000
0003FFFFC999600000
0000DFFFFFFFA00000
0000DFFFFFFFA00000
0000CFFFFFFF800000
0000AFFFA336400000
00007FFF8000000000
00005FFFADCA910000
00002FFFFFFFF00000
00000EFFFFFFC00000
00000B41EDA9B00000
000003001000800000
ENDCHAR
STARTCHAR igrave
ENCODING 236
SWIDTH 411 0
DWIDTH 12 0
BBX 14 31 -3 -1
BITMAP
00010000000000
002E6000000000
007FF800000000
01CFFFA1000000
3CFFFFFC200000
16AEFFFFE50000
000048CFFA0000
00000002640000
00000000000000
0002469B9AA643
0001DFFFFFFFF5
00005FFFFFFFD0
000005FFFFFF70
000000CFFFFF20
0000008FFFFF20
0000009FFFFD00
000000AFFFFA00
000000BFFFF700
000000BFFFF500
000000AFFFF400
0000008FFFF300
0000006FFFF500
0000004FFFF600
0000001FFFF100
0000000DFFE100
0000000CFFE000
0000000BFFD000
0000000AFFC000
00000009FFB000
00000007BDA000
00000002069000
ENDCHAR
STARTCHAR iacute
ENCODING 237
SWIDTH 411 0
DWIDTH 12 0
BBX 16 31 0 -1
BITMAP
0000000000002000
000000000009D100
0000000001BFF400
000000002CFFFA00
00000003EFFFFFC1
0000008FFFFFE950
000000DFFC830000
0000005610000000
0000000000000000
2469B9AA64300000
1DFFFFFFFF500000
05FFFFFFFD000000
005FFFFFF7000000
000CFFFFF2000000
0008FFFFF2000000
0009FFFFD0000000
000AFFFFA0000000
000BFFFF70000000
000BFFFF50000000
000AFFFF40000000
0008FFFF30000000
0006FFFF50000000
0004FFFF60000000
0001FFFF10000000
0000DFFE10000000
0000CFFE00000000
0000BFFD00000000
0000AFFC00000000
00009FFB00000000
00007BDA00000000
0000206900000000
ENDCHAR
STARTCHAR icircumflex
ENCODING 238
SWIDTH 411 0
DWIDTH 12 0
BBX 13 34 0 -1
BITMAP
00012102300000
000AFFFFE10000
001FFFFFF70000
008FFFFFFE1000
01EFFFFFFF7000
06FFFA7FFFE100
0DFFC10AFFF800
4FFD2000CFFE10
BFE200001DFF60
8F40000002E900
01000000001000
00000000000000
2469B9AA643000
1DFFFFFFFF5000
05FFFFFFFD0000
005FFFFFF70000
000CFFFFF20000
0008FFFFF20000
0009FFFFD00000
000AFFFFA00000
000BFFFF700000
000BFFFF500000
000AFFFF400000
0008FFFF300000
0006FFFF500000
0004FFFF600000
0001FFFF100000
0000DFFE100000
0000CFFE000000
0000BFFD000000
0000AFFC000000
00009FFB000000
00007BDA000000
00002069000000
ENDCHAR
STARTCHAR idieresis
ENCODING 239
SWIDTH 411 0
DWIDTH 12 0
BBX 15 31 -2 -1
BITMAP
0000000000034200
0BEDAC403CDFFF70
0FFFFF603FFFFF80
0FFFFF603FFFFF70
1FFFFF602FFFFF80
1FFFFF602FFFFF90
0FFFFF502FFFFF80
0678982015753520
0000000000000000
002469B9AA643000
001DFFFFFFFF5000
0005FFFFFFFD0000
00005FFFFFF70000
00000CFFFFF20000
000008FFFFF20000
000009FFFFD00000
00000AFFFFA00000
00000BFFFF700000
00000BFFFF500000
00000AFFFF400000
000008FFFF300000
000006FFFF500000
000004FFFF600000
000001FFFF100000
000000DFFE100000
000000CFFE000000
000000BFFD000000
000000AFFC000000
0000009FFB000000
0000007BDA000000
0000002069000000
ENDCHAR
STARTCHAR eth
ENCODING 240
SWIDTH 530 0
DWIDTH 15 0
BBX 15 25 1 -4
BITMAP
000003579A920000
05ADFFFFFFFB1000
0AFFFFFFFFFFB100
07FFFFFFFFFFFB00
01EFFFFFFFFFFE00
00AFFFFFFFFFFF30
005FFFFFFFFFFF50
003FFFFFFFFFFF50
002FFFFFFFFFFF40
001FFFFF7BFFFF10
000EFFFB01FFFD00
000CFFF700EFFA00
BCBEFFFDC2EFF600
9BCEFFFDC0CFF200
0009FFF700EFD000
0006FFF603FF9000
0003FFF706FF6000
0001FFFD6CFF5000
0000EFFFEFFF4000
0001FFFFFFFE1000
0000EC59FFF60000
0000E205FD600000
0000B00596000000
0000600553000000
0000000530000000
ENDCHAR
STARTCHAR ntilde
ENCODING 241
SWIDTH 664 0
DWIDTH 19 0
BBX 19 32 0 -3
BITMAP
00004800004EA3000000
0008FF8028FFFE300000
005FFFFBEFFFFFD10000
000AFFFFFFFFFFF50000
0001DFFFFEBEFF900000
00002BFE8201A6000000
00000011000000000000
00000000000000000000
36789AB9703855555620
2EFFFFFFA02FFFFFFB00
07FFFFFFE10DFFFFF200
01EFFFFFF30AFFFFA000
00BFFFFFFB0BFFFF4000
009FFFFFFE0CFFFE0000
009FFFFFFF2EFFFB0000
008FFFFFFF8FFFF90000
007FFFFFFFFFFFF70000
005FFFFFFFFFFFF50000
004FFFFFFFFFFFF30000
002FFFFFFFFFFFF10000
000FFFFFFFFFFFE00000
000CFFFEFFFFFFB00000
0007FFF9FFFFFF800000
0007FFF7EFFFFF500000
0006FFF49FFFFF300000
0004FFF46FFFFE000000
0003FFF43FFFFC000000
0001FFF30DFFF7000000
0000FFF30CFFF1000000
0000DFD30AFEC0000000
0000660205AB70000000
00000000001430000000
ENDCHAR
STARTCHAR ograve
ENCODING 242
SWIDTH 545 0
DWIDTH 15 0
BBX 16 32 -1 -2
BITMAP
0001000000000000
005E400000000000
00AFF60000000000
02EFFF8000000000
5DFFFFFA10000000
27BFFFFFE3000000
000159DFF7000000
0000000372000000
0000000000000000
0000026998850000
00007FFFFFFFC200
0009FFFFFFFFFE30
006FFFFFFFFFFFC2
00EFFFFFFFFFFFF8
02FFFFFFFFFFFFF7
02FFFFFFFFFFFFF8
01EFFFFFFFFFFFFA
00DFFFFFFFFFFFF9
00BFFFFE4CFFFFF9
009FFFF706FFFFF8
007FFFF305FFFFF6
005FFFF303FFFFF3
003FFFF300FFFFE0
000FFFF302FFFFA0
000CFFF304FFFF60
0008FFF808FFFF20
0004FFFC0AFFFB00
0001FFFFBFFFF900
0000DFFFFFFFF300
000048DFFFFFA000
000000281EEC4000
0000000007363000
ENDCHAR
STARTCHAR oacute
ENCODING 243
SWIDTH 545 0
DWIDTH 15 0
BBX 17 32 0 -2
BITMAP
000000000000001000
0000000000001BA000
000000000002DFF100
00000000003EFFF700
0000000005FFFFFFA0
00000000AFFFFFD840
00000001FFEB720000
000000007510000000
000000000000000000
000026998850000000
0007FFFFFFFC200000
009FFFFFFFFFE30000
06FFFFFFFFFFFC2000
0EFFFFFFFFFFFF8000
2FFFFFFFFFFFFF7000
2FFFFFFFFFFFFF8000
1EFFFFFFFFFFFFA000
0DFFFFFFFFFFFF9000
0BFFFFE4CFFFFF9000
09FFFF706FFFFF8000
07FFFF305FFFFF6000
05FFFF303FFFFF3000
03FFFF300FFFFE0000
00FFFF302FFFFA0000
00CFFF304FFFF60000
008FFF808FFFF20000
004FFFC0AFFFB00000
001FFFFBFFFF900000
000DFFFFFFFF300000
00048DFFFFFA000000
00000281EEC4000000
000000007363000000
ENDCHAR
STARTCHAR ocircumflex
ENCODING 244
SWIDTH 545 0
DWIDTH 15 0
BBX 15 35 0 -2
BITMAP
0000121023000000
00009FFFFE100000
0001EFFFFF800000
0007FFFFFFE10000
000DFFFFFFF80000
005FFFB6FFFF2000
00CFFD109FFF9000
03FFE2000BFFF200
0AFF300001CFF700
08F50000002DA000
0010000000010000
0000000000000000
0000269988500000
0007FFFFFFFC2000
009FFFFFFFFFE300
06FFFFFFFFFFFC20
0EFFFFFFFFFFFF80
2FFFFFFFFFFFFF70
2FFFFFFFFFFFFF80
1EFFFFFFFFFFFFA0
0DFFFFFFFFFFFF90
0BFFFFE4CFFFFF90
09FFFF706FFFFF80
07FFFF305FFFFF60
05FFFF303FFFFF30
03FFFF300FFFFE00
00FFFF302FFFFA00
00CFFF304FFFF600
008FFF808FFFF200
004FFFC0AFFFB000
001FFFFBFFFF9000
000DFFFFFFFF3000
00048DFFFFFA0000
00000281EEC40000
0000000073630000
ENDCHAR
STARTCHAR otilde
ENCODING 245
SWIDTH 545 0
DWIDTH 15 0
BBX 15 31 0 -2
BITMAP
004700004EA20000
08FF7029FFFE2000
5FFFFBEFFFFFC100
0BFFFFFFFFFFF400
01DFFFFEBEFF8000
002BFE8102A60000
0000110000000000
0000000000000000
0000269988500000
0007FFFFFFFC2000
009FFFFFFFFFE300
06FFFFFFFFFFFC20
0EFFFFFFFFFFFF80
2FFFFFFFFFFFFF70
2FFFFFFFFFFFFF80
1EFFFFFFFFFFFFA0
0DFFFFFFFFFFFF90
0BFFFFE4CFFFFF90
09FFFF706FFFFF80
07FFFF305FFFFF60
05FFFF303FFFFF30
03FFFF300FFFFE00
00FFFF302FFFFA00
00CFFF304FFFF600
008FFF808FFFF200
004FFFC0AFFFB000
001FFFFBFFFF9000
000DFFFFFFFF3000
00048DFFFFFA0000
00000281EEC40000
0000000073630000
ENDCHAR
STARTCHAR odieresis
ENCODING 246
SWIDTH 545 0
DWIDTH 15 0
BBX 15 32 0 -2
BITMAP
0000000000034200
2CECBB204DEFFF50
3FFFFF305FFFFF50
3FFFFF305FFFFF40
4FFFFF305FFFFF50
3FFFFF305FFFFF60
3FFFFF205FFFFF50
1678881025643510
0000000000000000
0000269988500000
0007FFFFFFFC2000
009FFFFFFFFFE300
06FFFFFFFFFFFC20
0EFFFFFFFFFFFF80
2FFFFFFFFFFFFF70
2FFFFFFFFFFFFF80
1EFFFFFFFFFFFFA0
0DFFFFFFFFFFFF90
0BFFFFE4CFFFFF90
09FFFF706FFFFF80
07FFFF305FFFFF60
05FFFF303FFFFF30
03FFFF300FFFFE00
00FFFF302FFFFA00
00CFFF304FFFF600
008FFF808FFFF200
004FFFC0AFFFB000
001FFFFBFFFF9000
000DFFFFFFFF3000
00048DFFFFFA0000
00000281EEC40000
0000000073630000
ENDCHAR
STARTCHAR oslash
ENCODING 248
SWIDTH 676 0
DWIDTH 19 0
BBX 20 23 -1 -2
BITMAP
00000159988600000000
00003DFFFFFFC20001A1
0004EFFFFFFFFE101C60
001DFFFFFFFFFFB2C600
008FFFFFFFFFFFFE6000
00AFFFFFFFFFFFF90000
00BFFFFFFFFFFFF50000
009FFFFFFFFFFFF70000
006FFFFFFFFFFFF60000
004FFFFF49FFFFF60000
003FFFF906FFFFF60000
001FFFF53EFFFFF40000
000DFFF7E6EFFFF10000
000BFFFF60DFFFD00000
0008FFF701EFFF900000
0005FFF403FFFF500000
0001FFF907FFFF200000
0007FFFC09FFFC000000
007AAFFFBFFFFA000000
05B07FFFFFFFF3000000
1A1019BFFFFFA0000000
010000181DFC40000000
00000000073530000000
ENDCHAR
STARTCHAR ugrave
ENCODING 249
SWIDTH 708 0
DWIDTH 20 0
BBX 20 31 0 -1
BITMAP
00001000000000000000
0000BA10000000000000
0002FFC2000000000000
0008FFFD300000000000
00AFFFFFE50000000000
0049DFFFFFA000000000
0000027BEFF100000000
00000000156000000000
00000000000000000000
00025899800143100000
2AFFFFFFD001FFFCC720
01DFFFFFC002FFFFFFF8
009FFFFFD006FFFFFF90
007FFFFFC005FFFFFE00
002FFFFFF002FFFFFC00
000EFFFFF202FFFFF500
000BFFFFF303FFFFE000
0008FFFFF304FFFFB000
0006FFFFF304FFFF8000
0003FFFFF105FFFF5000
0002FFFFE007FFFF3000
0001FFFFE00AFFFF3000
0000FFFFF009FFFF2000
0000EFFFF30AFFFE0000
00009FFFF60CFFFB0000
00003FFFF61FFFF70000
00000EFFFD9FFFF70000
00000AFFFFFFFFF20000
000007FFFBEFFFC00000
0000003CB349CA400000
00000000100020000000
ENDCHAR
STARTCHAR uacute
ENCODING 250
SWIDTH 708 0
DWIDTH 20 0
BBX 20 31 0 -1
BITMAP
00000000000000002000
0000000000000005E400
000000000000006FF900
00000000000009FFFE20
000000000001AFFFFFD5
00000000003EFFFFFB62
00000000008FFD951000
00000000002730000000
00000000000000000000
00025899800143100000
2AFFFFFFD001FFFCC720
01DFFFFFC002FFFFFFF8
009FFFFFD006FFFFFF90
007FFFFFC005FFFFFE00
002FFFFFF002FFFFFC00
000EFFFFF202FFFFF500
000BFFFFF303FFFFE000
0008FFFFF304FFFFB000
0006FFFFF304FFFF8000
0003FFFFF105FFFF5000
0002FFFFE007FFFF3000
0001FFFFE00AFFFF3000
0000FFFFF009FFFF2000
0000EFFFF30AFFFE0000
00009FFFF60CFFFB0000
00003FFFF61FFFF70000
00000EFFFD9FFFF70000
00000AFFFFFFFFF20000
000007FFFBEFFFC00000
0000003CB349CA400000
00000000100020000000
ENDCHAR
STARTCHAR ucircumflex
ENCODING 251
SWIDTH 708 0
DWIDTH 20 0
BBX 20 34 0 -1
BITMAP
00000002201310000000
0000001EFFFF90000000
0000007FFFFFF2000000
000000DFFFFFF9000000
000005FFFFFFFF200000
00000CFFF6CFFFA00000
00003FFF702EFFF20000
0000AFF90003EFFA0000
0002FFB000005FFF1000
0002CC10000006E50000
00000100000000100000
00000000000000000000
00025899800143100000
2AFFFFFFD001FFFCC720
01DFFFFFC002FFFFFFF8
009FFFFFD006FFFFFF90
007FFFFFC005FFFFFE00
002FFFFFF002FFFFFC00
000EFFFFF202FFFFF500
000BFFFFF303FFFFE000
0008FFFFF304FFFFB000
0006FFFFF304FFFF8000
0003FFFFF105FFFF5000
0002FFFFE007FFFF3000
0001FFFFE00AFFFF3000
0000FFFFF009FFFF2000
0000EFFFF30AFFFE0000
00009FFFF60CFFFB0000
00003FFFF61FFFF70000
00000EFFFD9FFFF70000
00000AFFFFFFFFF20000
000007FFFBEFFFC00000
0000003CB349CA400000
00000000100020000000
ENDCHAR
STARTCHAR udieresis
ENCODING 252
SWIDTH 708 0
DWIDTH 20 0
BBX 20 31 0 -1
BITMAP
00000000000001430000
0006DEBC800ADFFFD000
0009FFFFC00CFFFFD000
000AFFFFC00CFFFFC000
000AFFFFC00CFFFFD000
000AFFFFC00CFFFFF000
0009FFFFB00CFFFFD000
00037798500376453000
00000000000000000000
00025899800143100000
2AFFFFFFD001FFFCC720
01DFFFFFC002FFFFFFF8
009FFFFFD006FFFFFF90
007FFFFFC005FFFFFE00
002FFFFFF002FFFFFC00
000EFFFFF202FFFFF500
000BFFFFF303FFFFE000
0008FFFFF304FFFFB000
0006FFFFF304FFFF8000
0003FFFFF105FFFF5000
0002FFFFE007FFFF3000
0001FFFFE00AFFFF3000
0000FFFFF009FFFF2000
0000EFFFF30AFFFE0000
00009FFFF60CFFFB0000
00003FFFF61FFFF70000
00000EFFFD9FFFF70000
00000AFFFFFFFFF20000
000007FFFBEFFFC00000
0000003CB349CA400000
00000000100020000000
ENDCHAR
STARTCHAR yacute
ENCODING 253
SWIDTH 604 0
DWIDTH 17 0
BBX 18 32 0 -2
BITMAP
000000000000000100
00000000000001BB00
0000000000002CFF10
000000000003EFFF80
00000000005EFFFFFA
000000000AFFFFFD84
000000001FFEB72000
000000000751000000
000000000000000000
002668600056000000
1BFFFFF501CFFC9300
009FFFFC01FFFFF810
0005EFFF27FFFF7000
00007FFF6DFFF90000
00003FFFEFFFD10000
000005FFFFFF300000
000002FFFFFE000000
000000EFFFFC000000
000000BFFFFA000000
0000007FFFF9000000
0000004FFFF7000000
0000000FFFF6000000
0000000CFFF5000000
00000009FFF3000000
00000009FFF1000000
00000009FFF3000000
0000000AFFF2000000
0000000AFFF1000000
0000000AFFD0000000
0000000AFFA0000000
00000008FDA0000000
000000045010000000
ENDCHAR
STARTCHAR thorn
ENCODING 254
SWIDTH 498 0
DWIDTH 14 0
BBX 14 30 0 -4
BITMAP
01556777000000
9FFFFFF8000000
5FFFFFF5000000
4FFFFFF3000000
2FFFFFF0000000
0FFFFFF8976200
0DFFFFFFFFFE20
0AFFFFFFFFFFA0
09FFFFFFFFFFE0
08FFFFFFFFFFF1
07FFFFFFFFFFF1
06FFFFFFFFFFF1
05FFFFFFFFFFF0
03FFFFFFFFFFE0
01FFFFE01FFFD0
00DFFFE00BFFB0
00BFFFF00AFFA0
008FFFF00AFF70
005FFFF88DFF40
002FFFFFFFFF10
000EFFFFFFF900
000BFFFB789100
0009FFF7000000
000CFFF8000000
000BFFF8000000
0008FFF8000000
0004E7E9000000
0002C085000000
0000D081000000
00005040000000
ENDCHAR
STARTCHAR ydieresis
ENCODING 255
SWIDTH 604 0
DWIDTH 17 0
BBX 17 32 0 -2
BITMAP
000000000000144100
003CEBBB106DEFFF20
005FFFFF108FFFFF30
006FFFFF108FFFFF20
006FFFFF108FFFFF30
006FFFFF108FFFFF40
005FFFFF008FFFFF30
001679870026644410
000000000000000000
002668600056000000
1BFFFFF501CFFC9300
009FFFFC01FFFFF810
0005EFFF27FFFF7000
00007FFF6DFFF90000
00003FFFEFFFD10000
000005FFFFFF300000
000002FFFFFE000000
000000EFFFFC000000
000000BFFFFA000000
0000007FFFF9000000
0000004FFFF7000000
0000000FFFF6000000
0000000CFFF5000000
00000009FFF3000000
00000009FFF1000000
00000009FFF3000000
0000000AFFF2000000
0000000AFFF1000000
0000000AFFD0000000
0000000AFFA0000000
00000008FDA0000000
000000045010000000
ENDCHAR
STARTCHAR Amacron
ENCODING 256
SWIDTH 494 0
DWIDTH 14 0
BBX 13 32 0 -6
BITMAP
00788756658400
00EFFFFFFFF800
00FFFFFFFFF600
0078DDACA9E500
00000000000000
00122333210000
2CFFFFFFFFEC80
01AFFFFFFFFC10
001EFFFFFFF300
000FFFFFFFD000
000EFFFFFFB000
000DFFFFFFA000
001FFFFFFF9000
001FFFFFFF8000
000EFFFFFF6000
000DFFDFFF5000
000EFF9EFF4000
000EFF5DFF5000
001FFF3CFF5000
002FFF1BFF6000
000EFD5BFF4000
002FFFFFFF6000
004FFFFFFF4000
003FFFFFFF2000
000FFFAFFD0000
000DFF1AFB0000
000DF80BFA0000
000AD508E70000
000A2402650000
00050100830000
00000004300000
00000004000000
ENDCHAR
STARTCHAR amacron
ENCODING 257
SWIDTH 479 0
DWIDTH 13 0
BBX 14 30 0 -3
BITMAP
00588856657600
009FFFFFFFFC00
00AFFFFFFFFA00
0057CDCAAAC900
00000000000000
00000000000000
1579ABCDBACDD5
3EFFFFFFFFFF50
02EFFFFFFFFC00
003FFFFFFFF700
002FFFFFFFF600
001FFFFFFFF500
000DFFFFFFF500
001DFFFFFFF400
002FFFFFFFF300
000FFFFFFFF100
000DFFFEFFE100
000CFFEBFFF100
001FFFB9FFF400
002FFF87FFF300
004FFF56FFF500
004FFF44FFF500
003FFF78FFF300
003FFFFFFFF200
006FFFFFFFF000
004FFFABFFE000
002FFF43EFD000
004FFC10FFC000
002FF9017BA000
00056100000000
ENDCHAR
STARTCHAR Abreve
ENCODING 258
SWIDTH 494 0
DWIDTH 14 0
BBX 14 37 0 -6
BITMAP
003DDD30004320
000EFF4000EFF8
000AFF9005FFF3
0007FFFB8EFFE0
0004FFFFFFFF80
000078FFFFFD10
000000A37FB900
00000000281800
00000000000100
00000000000000
00122333210000
2CFFFFFFFFEC80
01AFFFFFFFFC10
001EFFFFFFF300
000FFFFFFFD000
000EFFFFFFB000
000DFFFFFFA000
001FFFFFFF9000
001FFFFFFF8000
000EFFFFFF6000
000DFFDFFF5000
000EFF9EFF4000
000EFF5DFF5000
001FFF3CFF5000
002FFF1BFF6000
000EFD5BFF4000
002FFFFFFF6000
004FFFFFFF4000
003FFFFFFF2000
000FFFAFFD0000
000DFF1AFB0000
000DF80BFA0000
000AD508E70000
000A2402650000
00050100830000
00000004300000
00000004000000
ENDCHAR
STARTCHAR abreve
ENCODING 259
SWIDTH 479 0
DWIDTH 13 0
BBX 14 34 0 -3
BITMAP
003DDD30004320
000EFF4000FFF7
000AFF9005FFF3
0007FFFB8EFFE0
0004FFFFFFFF80
000078FFFFFD10
000000A37FB900
00000000281800
00000000000100
00000000000000
1579ABCDBACDD5
3EFFFFFFFFFF50
02EFFFFFFFFC00
003FFFFFFFF700
002FFFFFFFF600
001FFFFFFFF500
000DFFFFFFF500
001DFFFFFFF400
002FFFFFFFF300
000FFFFFFFF100
000DFFFEFFE100
000CFFEBFFF100
001FFFB9FFF400
002FFF87FFF300
004FFF56FFF500
004FFF44FFF500
003FFF78FFF300
003FFFFFFFF200
006FFFFFFFF000
004FFFABFFE000
002FFF43EFD000
004FFC10FFC000
002FF9017BA000
00056100000000
ENDCHAR
STARTCHAR Aogonek
ENCODING 260
SWIDTH 494 0
DWIDTH 14 0
BBX 14 33 0 -12
BITMAP
00122333210000
2CFFFFFFFFEC80
01AFFFFFFFFC10
001EFFFFFFF300
000FFFFFFFD000
000EFFFFFFB000
000DFFFFFFA000
001FFFFFFF9000
001FFFFFFF8000
000EFFFFFF6000
000DFFDFFF5000
000EFF9EFF4000
000EFF5DFF5000
001FFF3CFF5000
002FFF1BFF6000
000EFD5BFF4000
002FFFFFFF6000
004FFFFFFF4000
003FFFFFFF2000
000FFFAFFD0000
000DFF1AFB0000
000DF80CFA0000
000AD52FF80000
000A247FF50000
000501BFF30000
000000EFF10000
000000FFF00000
000001FFF30000
000000FFFC2000
000000CFFFFDC3
0000006FFFFFF3
00000008FFFFF2
0000000038AB90
ENDCHAR
STARTCHAR aogonek
ENCODING 261
SWIDTH 479 0
DWIDTH 13 0
BBX 15 32 0 -11
BITMAP
1579ABCDBACDD500
3EFFFFFFFFFF5000
02EFFFFFFFFC0000
003FFFFFFFF70000
002FFFFFFFF60000
001FFFFFFFF50000
000DFFFFFFF50000
001DFFFFFFF40000
002FFFFFFFF30000
000FFFFFFFF10000
000DFFFEFFE10000
000CFFEBFFF10000
001FFFB9FFF40000
002FFF87FFF30000
004FFF56FFF50000
004FFF44FFF50000
003FFF78FFF30000
003FFFFFFFF20000
006FFFFFFFF00000
004FFFABFFE00000
002FFF43FFD00000
004FFC10FFB00000
002FF902FFA00000
00056104FF800000
00000006FF600000
00000007FF500000
00000006FF900000
00000004FFFC8740
00000001EFFFFF80
000000006FFFFF60
0000000004AEFD50
0000000000001000
ENDCHAR
STARTCHAR Cacute
ENCODING 262
SWIDTH 504 0
DWIDTH 14 0
BBX 16 34 0 -4
BITMAP
0000000000002000
000000000009D100
0000000001BFF400
000000002CFFFA00
00000003DFFFFFC1
0000007FFFFFE951
000000DFFC830000
0000005610000000
0000000000000000
000039BBBA200000
0006FFFFFFF50000
009FFFFFFFFE6000
06FFFFFFFFFFE200
0DFFFFFFFFFFF600
1FFFFFFFFFFFF500
3FFFFFFFFFFFF600
2FFFFFFFFFFFF600
1FFFFFFFFFFFF500
0EFFFFD6FFFFF400
0CFFFF508FFFF300
08FFFF603FFFF100
07FFFF6026556000
05FFFF4000000000
02FFFF2000000000
00EFFF3038520000
00BFFF508FFF5000
00AFFF80CFFF1000
003FFFE9FFFD0000
000EFFFFFFF70000
000AFFFFFFA10000
00003D6AFE100000
00000806B1000000
0000060690000000
0000000010000000
ENDCHAR
STARTCHAR cacute
ENCODING 263
SWIDTH 534 0
DWIDTH 15 0
BBX 16 32 0 -2
BITMAP
0000000000001000
000000000003E600
00000000005EFC00
0000000006FFFF40
000000009FFFFFE6
0000002DFFFFFB72
0000005FFDA51000
0000001830000000
0000000000000000
0000179DDB610000
0005EFFFFFFD2000
008FFFFFFFFFD400
06FFFFFFFFFFFC10
0DFFFFFFFFFFFF60
2FFFFFFFFFFFFF10
4FFFFFFFFFFFFF40
3FFFFFFFFFFFFF40
1FFFFFFFFFFFFF30
0DFFFFFCAFFFFF10
09FFFFE01DFFFF00
05FFFFC009FFFD00
02FFFFF006ACCB00
02FFFFB000000000
00EFFFB000000000
00BFFFD004510000
006FFFF00EFF7000
004FFFF34FFF7000
001FFFF8AFFF5000
0007FFFFFFFE1000
0002FFFFFFE70000
000077CCBF600000
0000004118000000
ENDCHAR
STARTCHAR Ccircumflex
ENCODING 264
SWIDTH 504 0
DWIDTH 14 0
BBX 14 37 0 -4
BITMAP
00000210240000
00005FFFFF4000
0000BFFFFFC000
0003FFFFFFF400
000AFFFFFFFC00
002FFFE5EFFF50
008FFF305FFFC0
01EFF50007FFF5
06FF6000009FFB
05E80000000BD2
00100000000010
00000000000000
000039BBBA2000
0006FFFFFFF500
009FFFFFFFFE60
06FFFFFFFFFFE2
0DFFFFFFFFFFF6
1FFFFFFFFFFFF5
3FFFFFFFFFFFF6
2FFFFFFFFFFFF6
1FFFFFFFFFFFF5
0EFFFFD6FFFFF4
0CFFFF508FFFF3
08FFFF603FFFF1
07FFFF60265560
05FFFF40000000
02FFFF20000000
00EFFF30385200
00BFFF508FFF50
00AFFF80CFFF10
003FFFE9FFFD00
000EFFFFFFF700
000AFFFFFFA100
00003D6AFE1000
00000806B10000
00000606900000
00000000100000
ENDCHAR
STARTCHAR ccircumflex
ENCODING 265
SWIDTH 534 0
DWIDTH 15 0
BBX 15 35 0 -2
BITMAP
0000012102300000
000007FFFFF20000
00000EFFFFF90000
00006FFFFFFF2000
0000CFFFFFFFA000
0004FFFC6FFFF200
000BFFE207FFFA00
002FFE3000AFFF30
009FF400000CFF90
007F60000001DB10
0001000000001000
0000000000000000
0000179DDB610000
0005EFFFFFFD2000
008FFFFFFFFFD400
06FFFFFFFFFFFC10
0DFFFFFFFFFFFF60
2FFFFFFFFFFFFF10
4FFFFFFFFFFFFF40
3FFFFFFFFFFFFF40
1FFFFFFFFFFFFF30
0DFFFFFCAFFFFF10
09FFFFE01DFFFF00
05FFFFC009FFFD00
02FFFFF006ACCB00
02FFFFB000000000
00EFFFB000000000
00BFFFD004510000
006FFFF00EFF7000
004FFFF34FFF7000
001FFFF8AFFF5000
0007FFFFFFFE1000
0002FFFFFFE70000
000077CCBF600000
0000004118000000
ENDCHAR
STARTCHAR Cdotaccent
ENCODING 266
SWIDTH 504 0
DWIDTH 14 0
BBX 14 35 0 -4
BITMAP
000489BEFEB100
0004FFFFFFF100
0001FFFFFFF000
0000EFFFFFE100
0000DFFFFFF300
0000CFFFFFF200
0000BFFFFFF100
0000AFFFFFF000
00006873243000
00000000000000
000039BBBA2000
0006FFFFFFF500
009FFFFFFFFE60
06FFFFFFFFFFE2
0DFFFFFFFFFFF6
1FFFFFFFFFFFF5
3FFFFFFFFFFFF6
2FFFFFFFFFFFF6
1FFFFFFFFFFFF5
0EFFFFD6FFFFF4
0CFFFF508FFFF3
08FFFF603FFFF1
07FFFF60265560
05FFFF40000000
02FFFF20000000
00EFFF30385200
00BFFF508FFF50
00AFFF80CFFF10
003FFFE9FFFD00
000EFFFFFFF700
000AFFFFFFA100
00003D6AFE1000
00000806B10000
00000606900000
00000000100000
ENDCHAR
STARTCHAR cdotaccent
ENCODING 267
SWIDTH 534 0
DWIDTH 15 0
BBX 15 33 0 -2
BITMAP
0001699DEFD70000
0000AFFFFFFA0000
00008FFFFFF90000
00006FFFFFF90000
00005FFFFFFC0000
00003FFFFFFB0000
00002FFFFFFA0000
00002FFFFFF90000
0000197522420000
0000000000000000
0000179DDB610000
0005EFFFFFFD2000
008FFFFFFFFFD400
06FFFFFFFFFFFC10
0DFFFFFFFFFFFF60
2FFFFFFFFFFFFF10
4FFFFFFFFFFFFF40
3FFFFFFFFFFFFF40
1FFFFFFFFFFFFF30
0DFFFFFCAFFFFF10
09FFFFE01DFFFF00
05FFFFC009FFFD00
02FFFFF006ACCB00
02FFFFB000000000
00EFFFB000000000
00BFFFD004510000
006FFFF00EFF7000
004FFFF34FFF7000
001FFFF8AFFF5000
0007FFFFFFFE1000
0002FFFFFFE70000
000077CCBF600000
0000004118000000
ENDCHAR
STARTCHAR Ccaron
ENCODING 268
SWIDTH 504 0
DWIDTH 14 0
BBX 14 37 0 -4
BITMAP
00570000003800
09FF600001EFA0
0CFFF3000AFFF6
05FFFA004FFFE1
00DFFF31DFFF70
007FFFC9FFFE10
001EFFFFFFF600
0008FFFFFFD000
0002FFFFFF6000
0000AFEFFD0000
00001100220000
00000000000000
000039BBBA2000
0006FFFFFFF500
009FFFFFFFFE60
06FFFFFFFFFFE2
0DFFFFFFFFFFF6
1FFFFFFFFFFFF5
3FFFFFFFFFFFF6
2FFFFFFFFFFFF6
1FFFFFFFFFFFF5
0EFFFFD6FFFFF4
0CFFFF508FFFF3
08FFFF603FFFF1
07FFFF60265560
05FFFF40000000
02FFFF20000000
00EFFF30385200
00BFFF508FFF50
00AFFF80CFFF10
003FFFE9FFFD00
000EFFFFFFF700
000AFFFFFFA100
00003D6AFE1000
00000806B10000
00000606900000
00000000100000
ENDCHAR
STARTCHAR ccaron
ENCODING 269
SWIDTH 534 0
DWIDTH 15 0
BBX 15 35 0 -2
BITMAP
0005700000038000
00AFF600002EFA00
00CFFF3000AFFF60
005FFFA005FFFE10
000DFFF31DFFF700
0007FFFC9FFFD000
0001EFFFFFFF6000
00008FFFFFFD0000
00002FFFFFF60000
00000AFEFFD00000
0000011002200000
0000000000000000
0000179DDB610000
0005EFFFFFFD2000
008FFFFFFFFFD400
06FFFFFFFFFFFC10
0DFFFFFFFFFFFF60
2FFFFFFFFFFFFF10
4FFFFFFFFFFFFF40
3FFFFFFFFFFFFF40
1FFFFFFFFFFFFF30
0DFFFFFCAFFFFF10
09FFFFE01DFFFF00
05FFFFC009FFFD00
02FFFFF006ACCB00
02FFFFB000000000
00EFFFB000000000
00BFFFD004510000
006FFFF00EFF7000
004FFFF34FFF7000
001FFFF8AFFF5000
0007FFFFFFFE1000
0002FFFFFFE70000
000077CCBF600000
0000004118000000
ENDCHAR
STARTCHAR Dcaron
ENCODING 270
SWIDTH 522 0
DWIDTH 15 0
BBX 14 37 1 -4
BITMAP
00291000001920
06EFB00000AFD2
07FFF70005FFFB
01EFFE101EFFF4
009FFF709FFFC0
002FFFF6FFFF40
000AFFFFFFFB00
0004FFFFFFF300
0000CFFFFFB000
00005FFEFF3000
00000110130000
00000000000000
00001346761000
7ACEFFFFFFB000
BFFFFFFFFFFA10
7FFFFFFFFFFFA0
2FFFFFFFFFFFD0
0CFFFFFFFFFFF1
08FFFFFFFFFFF1
05FFFFFFFFFFF0
04FFFFFFFFFFE0
03FFFFE7CFFFB0
02FFFF802FFF90
00FFFF500EFF60
00DFFF400EFF20
00CFFF400DFE00
00AFFF501FFB00
008FFF404FF900
006FFF507FF700
003FFFB6DFF600
001FFFEFFFF500
003FFFFFFFF100
001FA3BFFF7000
001E009FC60000
000B0099400000
00060085200000
00000062000000
ENDCHAR
STARTCHAR dcaron
ENCODING 271
SWIDTH 522 0
DWIDTH 15 0
BBX 14 37 1 -4
BITMAP
00291000001920
06EFB00000AFD2
07FFF70005FFFB
01EFFE101EFFF4
009FFF709FFFC0
002FFFF6FFFF40
000AFFFFFFFB00
0004FFFFFFF300
0000CFFFFFB000
00005FFEFF3000
00000110130000
00000000000000
00001346761000
7ACEFFFFFFB000
BFFFFFFFFFFA10
7FFFFFFFFFFFA0
2FFFFFFFFFFFD0
0CFFFFFFFFFFF1
08FFFFFFFFFFF1
05FFFFFFFFFFF0
04FFFFFFFFFFE0
03FFFFE7CFFFB0
02FFFF802FFF90
00FFFF500EFF60
00DFFF400EFF20
00CFFF400DFE00
00AFFF501FFB00
008FFF404FF900
006FFF507FF700
003FFFB6DFF600
001FFFEFFFF500
003FFFFFFFF100
001FA3BFFF7000
001E009FC60000
000B0099400000
00060085200000
00000062000000
ENDCHAR
STARTCHAR Eth.dup2
ENCODING 272
SWIDTH 530 0
DWIDTH 15 0
BBX 15 25 1 -4
BITMAP
000003579A920000
05ADFFFFFFFB1000
0AFFFFFFFFFFB100
07FFFFFFFFFFFB00
01EFFFFFFFFFFE00
00AFFFFFFFFFFF30
005FFFFFFFFFFF50
003FFFFFFFFFFF50
002FFFFFFFFFFF40
001FFFFF7BFFFF10
000EFFFB01FFFD00
000CFFF700EFFA00
BCBEFFFDC2EFF600
9BCEFFFDC0CFF200
0009FFF700EFD000
0006FFF603FF9000
0003FFF706FF6000
0001FFFD6CFF5000
0000EFFFEFFF4000
0001FFFFFFFE1000
0000EC59FFF60000
0000E205FD600000
0000B00596000000
0000600553000000
0000000530000000
ENDCHAR
STARTCHAR Emacron
ENCODING 274
SWIDTH 570 0
DWIDTH 16 0
BBX 15 28 0 -2
BITMAP
0006887566575000
000CFFFFFFFF9000
000DFFFFFFFF8000
00067DDBBA9D6000
0000000000000000
0136789998653100
1EFFFFFFFFFFFFB0
04FFFFFFFFFFFF40
00BFFFFFFFFFFF00
005FFFFFFFFFFC00
006FFFFFFFFFF700
005FFFFFFFFFF300
005FFFFFFFFFD000
004FFFFFFFFF9000
002FFFF858CF7000
001FFFF600001000
000EFFF844100000
000CFFFFFFF10000
000CFFFFFFE00000
000AFFFFFFE00000
0008FFFA88900000
0006FFF300000000
0004FFF888630000
0003FFFFFFF70000
0002FEFFFFF20000
0001C09FF9E10000
0000909D80900000
0000104210400000
ENDCHAR
STARTCHAR emacron
ENCODING 275
SWIDTH 632 0
DWIDTH 18 0
BBX 17 28 0 -2
BITMAP
000088865666830000
0001FFFFFFFFF50000
0002FFFFFFFFF30000
000189DD9CAAE20000
000000000000000000
000135788887641000
18DFFFFFFFFFFFFE80
1CFFFFFFFFFFFFFF20
02FFFFFFFFFFFFF800
008FFFFFFFFFFFF200
005FFFFFFFFFFFC000
003FFFFFFFFFFF9000
001FFFFFFFFFFF7000
000DFFFFFFFFFF5000
000AFFFFCBDEFF3000
0008FFFF9001490000
0005FFFF9000000000
0003FFFFC999600000
0000DFFFFFFFA00000
0000DFFFFFFFA00000
0000CFFFFFFF800000
0000AFFFA336400000
00007FFF8000000000
00005FFFADCA910000
00002FFFFFFFF00000
00000EFFFFFFC00000
00000B41EDA9B00000
000003001000800000
ENDCHAR
STARTCHAR Ebreve
ENCODING 276
SWIDTH 570 0
DWIDTH 16 0
BBX 15 33 0 -2
BITMAP
0002DDD400043200
0000EFF5000EFF80
00009FF9004FFF40
00007FFFB8DFFE10
00003FFFFFFFF800
0000077FFFFFE100
0000000A36FBA000
0000000002808000
0000000000001000
0000000000000000
0136789998653100
1EFFFFFFFFFFFFB0
04FFFFFFFFFFFF40
00BFFFFFFFFFFF00
005FFFFFFFFFFC00
006FFFFFFFFFF700
005FFFFFFFFFF300
005FFFFFFFFFD000
004FFFFFFFFF9000
002FFFF858CF7000
001FFFF600001000
000EFFF844100000
000CFFFFFFF10000
000CFFFFFFE00000
000AFFFFFFE00000
0008FFFA88900000
0006FFF300000000
0004FFF888630000
0003FFFFFFF70000
0002FEFFFFF20000
0001C09FF9E10000
0000909D80900000
0000104210400000
ENDCHAR
STARTCHAR ebreve
ENCODING 277
SWIDTH 632 0
DWIDTH 18 0
BBX 17 33 0 -2
BITMAP
00000ADD9000242100
000008FFA0008FFE00
000004FFE100DFF900
000001FFFD9BFFF500
000000CFFFFFFFE000
00000047DFFFFF6000
00000000481FDD0000
000000000008180000
000000000000010000
000000000000000000
000135788887641000
18DFFFFFFFFFFFFE80
1CFFFFFFFFFFFFFF20
02FFFFFFFFFFFFF800
008FFFFFFFFFFFF200
005FFFFFFFFFFFC000
003FFFFFFFFFFF9000
001FFFFFFFFFFF7000
000DFFFFFFFFFF5000
000AFFFFCBDEFF3000
0008FFFF9001490000
0005FFFF9000000000
0003FFFFC999600000
0000DFFFFFFFA00000
0000DFFFFFFFA00000
0000CFFFFFFF800000
0000AFFFA336400000
00007FFF8000000000
00005FFFADCA910000
00002FFFFFFFF00000
00000EFFFFFFC00000
00000B41EDA9B00000
000003001000800000
ENDCHAR
STARTCHAR Edotaccent
ENCODING 278
SWIDTH 570 0
DWIDTH 16 0
BBX 15 33 0 -2
BITMAP
000279ADFFC50000
0000DFFFFFF70000
0000AFFFFFF60000
00009FFFFFF60000
00007FFFFFF90000
00006FFFFFF80000
00005FFFFFF70000
00004FFFFFF60000
0000397422410000
0000000000000000
0136789998653100
1EFFFFFFFFFFFFB0
04FFFFFFFFFFFF40
00BFFFFFFFFFFF00
005FFFFFFFFFFC00
006FFFFFFFFFF700
005FFFFFFFFFF300
005FFFFFFFFFD000
004FFFFFFFFF9000
002FFFF858CF7000
001FFFF600001000
000EFFF844100000
000CFFFFFFF10000
000CFFFFFFE00000
000AFFFFFFE00000
0008FFFA88900000
0006FFF300000000
0004FFF888630000
0003FFFFFFF70000
0002FEFFFFF20000
0001C09FF9E10000
0000909D80900000
0000104210400000
ENDCHAR
STARTCHAR edotaccent
ENCODING 279
SWIDTH 632 0
DWIDTH 18 0
BBX 17 33 0 -2
BITMAP
0000389BEFEB200000
00003FFFFFFF200000
00000FFFFFFF100000
00000DFFFFFF200000
00000CFFFFFF400000
00000BFFFFFF300000
00000AFFFFFF200000
000009FFFFFF100000
000005973233000000
000000000000000000
000135788887641000
18DFFFFFFFFFFFFE80
1CFFFFFFFFFFFFFF20
02FFFFFFFFFFFFF800
008FFFFFFFFFFFF200
005FFFFFFFFFFFC000
003FFFFFFFFFFF9000
001FFFFFFFFFFF7000
000DFFFFFFFFFF5000
000AFFFFCBDEFF3000
0008FFFF9001490000
0005FFFF9000000000
0003FFFFC999600000
0000DFFFFFFFA00000
0000DFFFFFFFA00000
0000CFFFFFFF800000
0000AFFFA336400000
00007FFF8000000000
00005FFFADCA910000
00002FFFFFFFF00000
00000EFFFFFFC00000
00000B41EDA9B00000
000003001000800000
ENDCHAR
STARTCHAR Eogonek
ENCODING 280
SWIDTH 513 0
DWIDTH 14 0
BBX 15 31 0 -10
BITMAP
0136789998653100
1EFFFFFFFFFFFFB0
04FFFFFFFFFFFF40
00BFFFFFFFFFFF00
005FFFFFFFFFFC00
006FFFFFFFFFF700
005FFFFFFFFFF300
005FFFFFFFFFD000
004FFFFFFFFF9000
002FFFF858CF7000
001FFFF600001000
000EFFF844100000
000CFFFFFFF10000
000CFFFFFFE00000
000AFFFFFFE00000
0008FFFA88900000
0006FFF300000000
0004FFF888630000
0003FFFFFFF70000
0002FFFFFFF20000
0001FEBDFFF10000
0000D109FFF00000
0000100CFF600000
0000000FF9000000
0000002FFB000000
0000001FFF400000
0000000DFFE87720
00000008FFFFFF30
00000001DFFFFF20
0000000018DFFE00
0000000000001000
ENDCHAR
STARTCHAR eogonek
ENCODING 281
SWIDTH 632 0
DWIDTH 18 0
BBX 17 31 0 -10
BITMAP
000135788887641000
18DFFFFFFFFFFFFE80
1CFFFFFFFFFFFFFF20
02FFFFFFFFFFFFF800
008FFFFFFFFFFFF200
005FFFFFFFFFFFC000
003FFFFFFFFFFF9000
001FFFFFFFFFFF7000
000DFFFFFFFFFF5000
000AFFFFCBDEFF3000
0008FFFF9001490000
0005FFFF9000000000
0003FFFFC999600000
0000DFFFFFFFA00000
0000DFFFFFFFA00000
0000CFFFFFFF800000
0000AFFFA336400000
00007FFF8000000000
00005FFFADCA910000
00002FFFFFFFF00000
00000EFFFFFF900000
00000B41EFFD100000
000003005FF8000000
000000006FF5000000
000000008FF5000000
000000008FFA000000
000000006FFFA55400
000000001FFFFFFB00
0000000007FFFFFA00
00000000005CFFF800
000000000000132100
ENDCHAR
STARTCHAR Ecaron
ENCODING 282
SWIDTH 570 0
DWIDTH 16 0
BBX 15 35 0 -2
BITMAP
0002910000019100
006EFB00000BFD20
007FFF70006FFFA0
001EFFE101EFFF40
0009FFF709FFFB00
0002FFFE6FFFF400
0000AFFFFFFFB000
00004FFFFFFF3000
00000CFFFFFA0000
000005FFEFF30000
0000001101300000
0000000000000000
0136789998653100
1EFFFFFFFFFFFFB0
04FFFFFFFFFFFF40
00BFFFFFFFFFFF00
005FFFFFFFFFFC00
006FFFFFFFFFF700
005FFFFFFFFFF300
005FFFFFFFFFD000
004FFFFFFFFF9000
002FFFF858CF7000
001FFFF600001000
000EFFF844100000
000CFFFFFFF10000
000CFFFFFFE00000
000AFFFFFFE00000
0008FFFA88900000
0006FFF300000000
0004FFF888630000
0003FFFFFFF70000
0002FEFFFFF20000
0001C09FF9E10000
0000909D80900000
0000104210400000
ENDCHAR
STARTCHAR ecaron
ENCODING 283
SWIDTH 632 0
DWIDTH 18 0
BBX 17 35 0 -2
BITMAP
000008300000075000
0002CFE200005FF500
0002FFFC0001EFFF10
0000AFFF500AFFF900
00003FFFC04FFFF200
00000CFFF8DFFF9000
000005FFFFFFFF2000
000000DFFFFFF80000
0000007FFFFFE10000
0000001EFEFF800000
000000011003100000
000000000000000000
000135788887641000
18DFFFFFFFFFFFFE80
1CFFFFFFFFFFFFFF20
02FFFFFFFFFFFFF800
008FFFFFFFFFFFF200
005FFFFFFFFFFFC000
003FFFFFFFFFFF9000
001FFFFFFFFFFF7000
000DFFFFFFFFFF5000
000AFFFFCBDEFF3000
0008FFFF9001490000
0005FFFF9000000000
0003FFFFC999600000
0000DFFFFFFFA00000
0000DFFFFFFFA00000
0000CFFFFFFF800000
0000AFFFA336400000
00007FFF8000000000
00005FFFADCA910000
00002FFFFFFFF00000
00000EFFFFFFC00000
00000B41EDA9B00000
000003001000800000
ENDCHAR
STARTCHAR Gcircumflex
ENCODING 284
SWIDTH 499 0
DWIDTH 14 0
BBX 14 36 0 -3
BITMAP
00002101310000
0001FFFFF80000
0008FFFFFE1000
001EFFFFFF8000
006FFFFFFFE100
00DFFF5DFFF900
04FFF602EFFF20
0BFF90004FFF90
3FFA000006FFE1
3CB10000007E40
00100000000100
00000000000000
00001767400000
0019EFFFFE6000
04DFFFFFFFFC10
0AFFFFFFFFFF90
0DFFFFFFFFFFE1
0FFFFFFFFFFFF4
0FFFFFFFFFFFF6
0EFFFFFFFFFFF4
0CFFFFFFFFFFF2
0AFFFE5BFFFFE0
08FFFC02EFFFC0
05FFFC00DFFFB0
03FFF90038ABA0
01FFF906434300
00EFFB0AFFFFA0
00DFFD09FFFFB0
00CFFF18AFFFB0
009FFF403FFFA0
006FFFC6DFFF80
001FFFFFFFFF50
000AFFFFFFFE10
0001CB9EFFD300
000024574B1000
00000900010000
ENDCHAR
STARTCHAR gcircumflex
ENCODING 285
SWIDTH 546 0
DWIDTH 15 0
BBX 15 36 0 -3
BITMAP
0000121023000000
00008FFFFF200000
0000EFFFFF900000
0006FFFFFFF20000
000DFFFFFFF90000
004FFFC6FFFF2000
00BFFD208FFFA000
03FFE3000AFFF300
09FF400001CFF800
07F50000001DB100
0010000000010000
0000000000000000
0000467565100000
001CFFFFFFFA1000
02BFFFFFFFFFE200
0CFFFFFFFFFFFC00
0DFFFFFFFFFFFF50
2FFFFFFFFFFFFF90
2FFFFFFFFFFFFFC0
0FFFFFFFFFFFFFC0
0DFFFFFFFFFFFFA0
0BFFFFD8FFFFFF70
08FFFF905FFFFF30
05FFFF601EFFFF10
03FFFF400ADFFE00
00EFFF5030013500
009FFF50DFC85200
005FFFB0CFFFFD00
003FFFD0BFFFFA00
000FFFE165FFF900
000EFFF705FFF800
000AFFFEDFFFF800
0005FFFFFFFFF600
0000AFFFFFFFF300
00001B8BCC7D4000
0000010201000000
ENDCHAR
STARTCHAR Gbreve
ENCODING 286
SWIDTH 499 0
DWIDTH 14 0
BBX 13 34 1 -3
BITMAP
0CDD7000332100
0AFF9000AFFC00
06FFD001EFF700
03FFFD8CFFF400
01EFFFFFFFC000
0057DFFFFF4000
0000662FDC0000
00000009180000
00000000010000
00000000000000
00017674000000
019EFFFFE60000
4DFFFFFFFFC100
AFFFFFFFFFF900
DFFFFFFFFFFE10
FFFFFFFFFFFF40
FFFFFFFFFFFF60
EFFFFFFFFFFF40
CFFFFFFFFFFF20
AFFFE5BFFFFE00
8FFFC02EFFFC00
5FFFC00DFFFB00
3FFF90038ABA00
1FFF9064343000
0EFFB0AFFFFA00
0DFFD09FFFFB00
0CFFF18AFFFB00
09FFF403FFFA00
06FFFC6DFFF800
01FFFFFFFFF500
00AFFFFFFFE100
001CB9EFFD3000
00024574B10000
00009000100000
ENDCHAR
STARTCHAR gbreve
ENCODING 287
SWIDTH 546 0
DWIDTH 15 0
BBX 15 34 0 -3
BITMAP
004DDD2000432000
001FFF3001FFF600
000BFF8006FFF200
0008FFFB8EFFD000
0005FFFFFFFF7000
000078FFFFFD1000
000000B28FB80000
0000000037270000
0000000000010000
0000000000000000
0000467565100000
001CFFFFFFFA1000
02BFFFFFFFFFE200
0CFFFFFFFFFFFC00
0DFFFFFFFFFFFF50
2FFFFFFFFFFFFF90
2FFFFFFFFFFFFFC0
0FFFFFFFFFFFFFC0
0DFFFFFFFFFFFFA0
0BFFFFD8FFFFFF70
08FFFF905FFFFF30
05FFFF601EFFFF10
03FFFF400ADFFE00
00EFFF5030013500
009FFF50DFC85200
005FFFB0CFFFFD00
003FFFD0BFFFFA00
000FFFE165FFF900
000EFFF705FFF800
000AFFFEDFFFF800
0005FFFFFFFFF600
0000AFFFFFFFF300
00001B8BCC7D4000
0000010201000000
ENDCHAR
STARTCHAR Gdotaccent
ENCODING 288
SWIDTH 499 0
DWIDTH 14 0
BBX 13 34 1 -3
BITMAP
0279ADFFC40000
01DFFFFFF60000
00BFFFFFF50000
009FFFFFF50000
008FFFFFF80000
007FFFFFF70000
006FFFFFF60000
005FFFFFF50000
00397422410000
00000000000000
00017674000000
019EFFFFE60000
4DFFFFFFFFC100
AFFFFFFFFFF900
DFFFFFFFFFFE10
FFFFFFFFFFFF40
FFFFFFFFFFFF60
EFFFFFFFFFFF40
CFFFFFFFFFFF20
AFFFE5BFFFFE00
8FFFC02EFFFC00
5FFFC00DFFFB00
3FFF90038ABA00
1FFF9064343000
0EFFB0AFFFFA00
0DFFD09FFFFB00
0CFFF18AFFFB00
09FFF403FFFA00
06FFFC6DFFF800
01FFFFFFFFF500
00AFFFFFFFE100
001CB9EFFD3000
00024574B10000
00009000100000
ENDCHAR
STARTCHAR gdotaccent
ENCODING 289
SWIDTH 546 0
DWIDTH 15 0
BBX 15 34 0 -3
BITMAP
000499BEFEB00000
0005FFFFFFF00000
0002FFFFFFE00000
0001FFFFFFD10000
0000EFFFFFF20000
0000DFFFFFF10000
0000CFFFFFF00000
0000CFFFFFE00000
0000786324300000
0000000000000000
0000467565100000
001CFFFFFFFA1000
02BFFFFFFFFFE200
0CFFFFFFFFFFFC00
0DFFFFFFFFFFFF50
2FFFFFFFFFFFFF90
2FFFFFFFFFFFFFC0
0FFFFFFFFFFFFFC0
0DFFFFFFFFFFFFA0
0BFFFFD8FFFFFF70
08FFFF905FFFFF30
05FFFF601EFFFF10
03FFFF400ADFFE00
00EFFF5030013500
009FFF50DFC85200
005FFFB0CFFFFD00
003FFFD0BFFFFA00
000FFFE165FFF900
000EFFF705FFF800
000AFFFEDFFFF800
0005FFFFFFFFF600
0000AFFFFFFFF300
00001B8BCC7D4000
0000010201000000
ENDCHAR
STARTCHAR Gcommaaccent
ENCODING 290
SWIDTH 499 0
DWIDTH 14 0
BBX 13 38 1 -17
BITMAP
00017674000000
019EFFFFE60000
4DFFFFFFFFC100
AFFFFFFFFFF900
DFFFFFFFFFFE10
FFFFFFFFFFFF40
FFFFFFFFFFFF60
EFFFFFFFFFFF40
CFFFFFFFFFFF20
AFFFE5BFFFFE00
8FFFC02EFFFC00
5FFFC00DFFFB00
3FFF90038ABA00
1FFF9064343000
0EFFB0AFFFFA00
0DFFD09FFFFB00
0CFFF18AFFFB00
09FFF403FFFA00
06FFFC6DFFF800
01FFFFFFFFF500
00AFFFFFFFE100
001CB9EFFD3000
00024574B10000
00009000100000
00000000000000
00027964551000
0004FFFFFF2000
0005FFFFFF3000
0006FFFFFF4000
0006FFFFFF4000
0007FFFFFF4000
0007FFFFFF4000
0001536CFF3000
0000000BFF1000
0000000EFD0000
0000002FFB0000
0000004FF90000
00000028830000
ENDCHAR
STARTCHAR Hcircumflex
ENCODING 292
SWIDTH 726 0
DWIDTH 20 0
BBX 20 39 0 -6
BITMAP
00000002101310000000
0000002FFFFF80000000
0000008FFFFFE1000000
000001EFFFFFF8000000
000006FFFFFFFE100000
00000DFFF5DFFF800000
00005FFF602EFFF20000
0000BFF80004FFF90000
0003FFA000006FFE0000
0003DB00000008E40000
00000100000000100000
00000000000000000000
00000157830787754200
378ACFFFD009FFFFFFE5
06FFFFFF7007FFFFFFC0
00BFFFFF7001DFFFFF40
008FFFFF7003FFFFFD00
006FFFFF6007FFFFF700
003FFFFF6008FFFFF200
000FFFFF5008FFFFE000
000CFFFF5008FFFFC000
000AFFFF4008FFFF7000
0007FFFF4008FFFF2000
0004FFFF767CFFFF0000
0002FFFFFFFFFFFA0000
0000FFFFFFFFFFF80000
0000DFFFFFFFFFF80000
0000BFFF812FFFF60000
0000AFFF703FFFF30000
00008FFF804FFFF00000
00007FFF804FFFD00000
00006FFF805FFFB00000
00006FFF808FFF900000
00008C45102FEF800000
00001000000736500000
00000000000000000000
00000000004000000000
00000000007000000000
00000000005000000000
ENDCHAR
STARTCHAR hcircumflex
ENCODING 293
SWIDTH 730 0
DWIDTH 20 0
BBX 20 35 0 -2
BITMAP
00000002201310000000
0000001EFFFF90000000
0000006FFFFFF2000000
000000DFFFFFFA000000
000004FFFFFFFF300000
00000BFFF6CFFFA00000
00003FFF801DFFF30000
00009FFA0003EFFB0000
0001FFB000004FFF2000
0002CD10000006F50000
00000100000000100000
00000000000000000000
0000169BC407CBC98840
29CEFFFFC005FFFFFFF7
01EFFFFF8002FFFFFFC0
008FFFFF9000AFFFFF50
006FFFFF9002FFFFFE00
005FFFFF8005FFFFF900
003FFFFF8005FFFFF400
000FFFFF7004FFFFF100
000CFFFF7004FFFFE100
0009FFFF6004FFFFA000
0006FFFF6005FFFF5000
0002FFFFBAADFFFF2000
0000FFFFFFFFFFFC0000
0000DFFFFFFFFFFB0000
0000CFFFFDBFFFFB0000
0000BFFF800EFFF90000
0000AFFF902FFFF50000
00008FFFA02FFFF30000
00007FFFA02FFFF10000
00005FFFA04FFFE00000
00004FFF805EFFC00000
00006A11001DDCB00000
00000000000232600000
ENDCHAR
STARTCHAR hbar
ENCODING 295
SWIDTH 704 0
DWIDTH 20 0
BBX 20 23 0 -2
BITMAP
0000169BC10DBCA88410
29CEFFFF900FFFFFFFB1
01EFFFFF500EFFFFFF20
008FFFFF300DFFFFF900
006FFFFFDDDFFFFFF300
005FFFFFFFFFFFFFD000
003FFFFFFFFFFFFF8000
000FFFFFFFFFFFFF6000
000CFFFFFFFFFFFF4000
0009FFFF222BFFFE0000
0006FFFF000CFFF90000
0002FFFF99BFFFF60000
0000FFFFFFFFFFF10000
0000DFFFFFFFFFF10000
0000CFFFFCCFFFF20000
0000BFFF800EFFF60000
0000AFFF902FFFF50000
00008FFFA02FFFF30000
00007FFFA02FFFF10000
00005FFFA04FFFE00000
00004FFF805EFFC00000
00006A11001DDCB00000
00000000000232600000
ENDCHAR
STARTCHAR Itilde
ENCODING 296
SWIDTH 401 0
DWIDTH 11 0
BBX 14 31 -2 -2
BITMAP
004700004EA200
08FF8029FFFE20
5FFFFBEFFFFFC1
0BFFFFFFFFFFF5
01DFFFFEBEFF90
002BFE8201A600
00001100000000
00000000000000
002ABBB9BAA930
002FFFFFFFFE20
0007FFFFFFF900
00007FFFFFF200
00002EFFFFD100
00000AFFFFF200
00000BFFFFF000
00000DFFFFE000
00000EFFFFC000
00000DFFFF9000
00000CFFFF5000
00000BFFFF6000
00000AFFFF6000
000008FFFF6000
000006FFFF2000
000004FFFE1000
000002FFFF2000
000000FFFF1000
000000DFFF0000
000000BFFE0000
00000096DF1000
00000072962000
00000000410000
ENDCHAR
STARTCHAR itilde
ENCODING 297
SWIDTH 411 0
DWIDTH 12 0
BBX 14 30 -2 -1
BITMAP
003810004DB300
06FFA018EFFF40
3FFFFCEFFFFFE2
09FFFFFFFFFFF7
00BFFFFFBDFFB0
001AEF92019800
00001100000000
00000000000000
002469B9AA6430
001DFFFFFFFF50
0005FFFFFFFD00
00005FFFFFF700
00000CFFFFF200
000008FFFFF200
000009FFFFD000
00000AFFFFA000
00000BFFFF7000
00000BFFFF5000
00000AFFFF4000
000008FFFF3000
000006FFFF5000
000004FFFF6000
000001FFFF1000
000000DFFE1000
000000CFFE0000
000000BFFD0000
000000AFFC0000
0000009FFB0000
0000007BDA0000
00000020690000
ENDCHAR
STARTCHAR Imacron
ENCODING 298
SWIDTH 401 0
DWIDTH 11 0
BBX 11 29 0 -2
BITMAP
288856656810
5FFFFFFFFF10
6FFFFFFFFF00
27BDD9BABD00
000000000000
000000000000
2ABBB9BAA930
2FFFFFFFFE20
07FFFFFFF900
007FFFFFF200
002EFFFFD100
000AFFFFF200
000BFFFFF000
000DFFFFE000
000EFFFFC000
000DFFFF9000
000CFFFF5000
000BFFFF6000
000AFFFF6000
0008FFFF6000
0006FFFF2000
0004FFFE1000
0002FFFF2000
0000FFFF1000
0000DFFF0000
0000BFFE0000
000096DF1000
000072962000
000000410000
ENDCHAR
STARTCHAR imacron
ENCODING 299
SWIDTH 411 0
DWIDTH 12 0
BBX 11 28 0 -1
BITMAP
188865666820
3FFFFFFFFF40
4FFFFFFFFF20
18ADD9CAAE10
000000000000
000000000000
2469B9AA6430
1DFFFFFFFF50
05FFFFFFFD00
005FFFFFF700
000CFFFFF200
0008FFFFF200
0009FFFFD000
000AFFFFA000
000BFFFF7000
000BFFFF5000
000AFFFF4000
0008FFFF3000
0006FFFF5000
0004FFFF6000
0001FFFF1000
0000DFFE1000
0000CFFE0000
0000BFFD0000
0000AFFC0000
00009FFB0000
00007BDA0000
000020690000
ENDCHAR
STARTCHAR Ibreve
ENCODING 300
SWIDTH 401 0
DWIDTH 11 0
BBX 12 33 0 -2
BITMAP
2DDD40004320
0EFF5000EFF8
0AFF9004FFF3
07FFFB8DFFE0
03FFFFFFFF80
0077FFFFFE10
0000A36FB900
000000281800
000000000100
000000000000
2ABBB9BAA930
2FFFFFFFFE20
07FFFFFFF900
007FFFFFF200
002EFFFFD100
000AFFFFF200
000BFFFFF000
000DFFFFE000
000EFFFFC000
000DFFFF9000
000CFFFF5000
000BFFFF6000
000AFFFF6000
0008FFFF6000
0006FFFF2000
0004FFFE1000
0002FFFF2000
0000FFFF1000
0000DFFF0000
0000BFFE0000
000096DF1000
000072962000
000000410000
ENDCHAR
STARTCHAR ibreve
ENCODING 301
SWIDTH 411 0
DWIDTH 12 0
BBX 12 32 0 -1
BITMAP
3DDD30004320
1FFF3001FFF7
0BFF8006FFF2
08FFFB8EFFD0
04FFFFFFFF70
0078FFFFFD10
0000B28FB800
000000371700
000000000100
000000000000
2469B9AA6430
1DFFFFFFFF50
05FFFFFFFD00
005FFFFFF700
000CFFFFF200
0008FFFFF200
0009FFFFD000
000AFFFFA000
000BFFFF7000
000BFFFF5000
000AFFFF4000
0008FFFF3000
0006FFFF5000
0004FFFF6000
0001FFFF1000
0000DFFE1000
0000CFFE0000
0000BFFD0000
0000AFFC0000
00009FFB0000
00007BDA0000
000020690000
ENDCHAR
STARTCHAR Iogonek
ENCODING 302
SWIDTH 401 0
DWIDTH 11 0
BBX 11 32 0 -11
BITMAP
2ABBB9BAA930
2FFFFFFFFE20
07FFFFFFF900
007FFFFFF200
002EFFFFD100
000AFFFFF200
000CFFFFF000
000DFFFFE000
000EFFFFC000
000DFFFF9000
000CFFFF5000
000BFFFF6000
000AFFFF6000
0008FFFF6000
0006FFFF2000
0004FFFE1000
0002FFFF2000
0000FFFF1000
0000DFFF0000
0000BFFE0000
0000BFFF1000
0000EFF82000
0002FFB00000
0005FF600000
0008FF200000
000AFF000000
000BFF200000
000CFFA00000
000AFFFDBA50
0005FFFFFF60
00009FFFFF50
0000049CDB30
ENDCHAR
STARTCHAR iogonek
ENCODING 303
SWIDTH 412 0
DWIDTH 12 0
BBX 11 32 0 -11
BITMAP
2469B9AA6430
1DFFFFFFFF50
05FFFFFFFD00
005FFFFFF700
000CFFFFF200
0008FFFFF200
0009FFFFD000
000AFFFFA000
000BFFFF7000
000BFFFF5000
000AFFFF4000
0008FFFF3000
0006FFFF5000
0004FFFF6000
0001FFFF1000
0000DFFE1000
0000CFFE0000
0000BFFD0000
0000AFFC0000
0000AFFB0000
0000CFFA0000
0000FFF90000
0003FFB00000
0006FF700000
0009FF300000
000BFF300000
000BFF800000
0009FFF94220
0005FFFFFF80
0000CFFFFF70
00001AFFFF60
000000146420
ENDCHAR
STARTCHAR Idotaccent
ENCODING 304
SWIDTH 401 0
DWIDTH 11 0
BBX 11 33 0 -2
BITMAP
0499CEFEA000
06FFFFFFE000
03FFFFFFD000
01FFFFFFD000
00FFFFFFF100
00EFFFFFF000
00DFFFFFE000
00CFFFFFD000
007863243000
000000000000
2ABBB9BAA930
2FFFFFFFFE20
07FFFFFFF900
007FFFFFF200
002EFFFFD100
000AFFFFF200
000BFFFFF000
000DFFFFE000
000EFFFFC000
000DFFFF9000
000CFFFF5000
000BFFFF6000
000AFFFF6000
0008FFFF6000
0006FFFF2000
0004FFFE1000
0002FFFF2000
0000FFFF1000
0000DFFF0000
0000BFFE0000
000096DF1000
000072962000
000000410000
ENDCHAR
STARTCHAR dotlessi
ENCODING 305
SWIDTH 411 0
DWIDTH 12 0
BBX 11 22 0 -1
BITMAP
2469B9AA6430
1DFFFFFFFF50
05FFFFFFFD00
005FFFFFF700
000CFFFFF200
0008FFFFF200
0009FFFFD000
000AFFFFA000
000BFFFF7000
000BFFFF5000
000AFFFF4000
0008FFFF3000
0006FFFF5000
0004FFFF6000
0001FFFF1000
0000DFFE1000
0000CFFE0000
0000BFFD0000
0000AFFC0000
00009FFB0000
00007BDA0000
000020690000
ENDCHAR
STARTCHAR IJ
ENCODING 306
SWIDTH 908 0
DWIDTH 25 0
BBX 25 23 0 -2
BITMAP
2ABBB9BAAA7000000777764100
2FFFFFFFFF7000000EFFFFFF30
07FFFFFFFE10000009FFFFF900
007FFFFFF900000003FFFFF700
002EFFFFF600000000FFFFF400
000AFFFFF900000000BFFFB000
000BFFFFF700000000FFFF8000
000DFFFFF500000002FFFF6000
000EFFFFF300000003FFFF5000
000DFFFFF100000004FFFF5000
000CFFFFB000000004FFFF1000
000BFFFFC000000004FFFE0000
0009FFFFD000000001FFFC0000
0007FFFFC000000203FFFA0000
0005FFFF800048AB04FFF70000
0003FFFF6000EFFC03FFF60000
0001FFFF9000CFFC05FFF40000
0000EFFF80009FFE1AFFF10000
0000CFFF70009FFFDFFFD00000
00009FFF50004FFFFFFF600000
0000789F700005DF7EFC300000
00005449500000071B64000000
00000023000000000000000000
ENDCHAR
STARTCHAR ij
ENCODING 307
SWIDTH 901 0
DWIDTH 25 0
BBX 25 23 0 -2
BITMAP
2469B99B753000028AA9630000
1DFFFFFFFF800001DFFFFFEB30
05FFFFFFFF3000006FFFFFF800
005FFFFFFC0000002FFFFFF800
000CFFFFF70000000EFFFFF300
0007FFFFF800000009FFFFD000
0009FFFFF400000008FFFF9000
000AFFFFF100000008FFFFB000
000BFFFFE000000008FFFFA000
000BFFFFC000000008FFFF9000
000AFFFFA000000008FFFF8000
0008FFFFA000000007FFFF8000
0006FFFFB000000002FFFF5000
0003FFFFC000000203FFFF2000
0000FFFF8000489B03FFFF2000
0000CFFF6000DFFD03FFFF2000
0000AFFF60009FFF22FFFF0000
0000AFFF50004FFF76FFFC0000
00009FFF40003FFFFFFFF90000
00008FFF30000BFFFFFFF20000
00006DBF200002BEFFFFF00000
0000113B3000000045C5A00000
00000000000000000000100000
ENDCHAR
STARTCHAR Jcircumflex
ENCODING 308
SWIDTH 455 0
DWIDTH 13 0
BBX 15 34 -1 -1
BITMAP
0000002101310000
000002FFFFF80000
000008FFFFFE1000
00001EFFFFFF8000
00006FFFFFFFE100
0000DFFF5DFFF800
0005FFF602EFFF20
000BFF80004FFF90
003FFA000006FFE0
003DB00000008E40
0000100000000100
0000000000000000
0000047776520000
000008FFFFFF9000
000003FFFFFF1000
000000CFFFFD0000
0000009FFFFA0000
0000005FFFF30000
0000009FFFE00000
000000BFFFC00000
000000CFFFB00000
000000DFFFB00000
000000DFFF700000
000000DFFF500000
000000AFFF400000
000110CFFE100000
27AD30DFFE000000
8FFF30CFFD000000
5FFF30EFFA000000
3FFF64FFF8000000
3FFFEDFFF5000000
0CFFFFFFD0000000
02BEAAFC90000000
000175C130000000
ENDCHAR
STARTCHAR jcircumflex
ENCODING 309
SWIDTH 458 0
DWIDTH 13 0
BBX 16 35 -1 -2
BITMAP
0000002101310000
000001FFFFF80000
000007FFFFFE1000
00000EFFFFFF8000
00006FFFFFFFF200
0000CFFF5DFFF900
0004FFF702EFFF20
000BFF90004FFF90
002FFA000006FFE1
002CC10000007E40
0000100000000100
0000000000000000
000058AA85200000
00003FFFFFFD9100
00000BFFFFFF3000
000007FFFFFF3000
000003FFFFFE0000
000000DFFFF90000
000000CFFFF50000
000000CFFFF60000
000000CFFFF60000
000000CFFFF50000
000000CFFFF30000
000000CFFFF20000
0000007FFFF10000
0000208FFFD00000
279B608FFFC00000
8FFF808FFFC00000
3FFFD07FFFA00000
0CFFF3BFFF700000
0BFFFFFFFF400000
04FFFFFFFD000000
006DEFFFFA000000
0000146B57000000
0000000001000000
ENDCHAR
STARTCHAR Kcommaaccent
ENCODING 310
SWIDTH 580 0
DWIDTH 16 0
BBX 16 37 0 -16
BITMAP
1479853602773000
4EFFFFFA06FFFFD5
02EFFFFA07FFFF60
00AFFFFB0AFFF600
003FFFFC0DFF5000
000CFFFD2FFC0000
0008FFFD8FFA0000
0004FFFFFFF60000
0002FFFFFFF30000
0002FFFFFFF40000
0002FFFFFFF60000
0000EFFFFFF60000
0000AFFFFFF60000
0000AFFFFFF70000
00006FFFFFF90000
00006FFFFFF80000
00005FFFCFFD0000
00003FFA1EFF1000
00002FF80AFF5000
00000DFB05FF8000
00000FFD04FF9000
0000091803B38000
0000000200001000
0000000000000000
0000027964451000
000004FFFFFF3000
000004FFFFFF4000
000005FFFFFF5000
000006FFFFFF5000
000006FFFFFF5000
000006FFFFFF4000
000001535CFF4000
000000000BFF2000
000000000DFE0000
000000001FFC0000
000000003FFA0000
0000000018840000
ENDCHAR
STARTCHAR kcommaaccent
ENCODING 311
SWIDTH 636 0
DWIDTH 18 0
BBX 18 37 0 -16
BITMAP
000245438046AA8610
4BEFFFFF908FFFFF91
06EFFFFF60BFFFF500
008FFFFF61FFFF5000
004FFFFF74FFF60000
000CFFFF86FFD00000
0005FFFF97FFC00000
0000EFFFB9FFA00000
0000BFFFCAFF400000
0000CFFFDCFC000000
0000AFFFEEF7000000
00009FFFFFF2000000
00008FFFFFF3000000
00005FFFFFF6000000
00001EFFFFFC000000
00000EFFFFFF200000
00000DFFEAFF700000
000009FF85FFD00000
000009FF60CFF40000
000008FF605FF70000
000006FF804FFE1000
00000283702B781000
000000000001000000
000000000000000000
000000379645500000
0000006FFFFFF10000
0000006FFFFFF20000
0000007FFFFFF30000
0000008FFFFFF30000
0000008FFFFFF30000
0000009FFFFFF20000
0000001536DFF20000
0000000000DFE00000
0000000001FFC00000
0000000003FFA00000
0000000005FF800000
000000000388300000
ENDCHAR
STARTCHAR kgreenlandic
ENCODING 312
SWIDTH 636 0
DWIDTH 18 0
BBX 18 23 0 -2
BITMAP
000245438046AA8610
4BEFFFFF908FFFFF91
06EFFFFF60BFFFF500
008FFFFF61FFFF5000
004FFFFF74FFF60000
000CFFFF86FFD00000
0005FFFF97FFC00000
0000EFFFB9FFA00000
0000BFFFCAFF400000
0000CFFFDCFC000000
0000AFFFEEF7000000
00009FFFFFF2000000
00008FFFFFF3000000
00005FFFFFF6000000
00001EFFFFFC000000
00000EFFFFFF200000
00000DFFEAFF700000
000009FF85FFD00000
000009FF60CFF40000
000008FF605FF70000
000006FF804FFE1000
00000283702B781000
000000000001000000
ENDCHAR
STARTCHAR Lacute
ENCODING 313
SWIDTH 416 0
DWIDTH 12 0
BBX 16 32 0 -2
BITMAP
0000000000002000
000000000009D100
0000000001BFF400
000000002CFFFA00
00000003DFFFFFC1
0000007FFFFFE951
000000DFFC830000
0000005610000000
0000000000000000
5999998697000000
2BFFFFFFD2000000
02FFFFFF30000000
02FFFFFA00000000
00EFFFF800000000
00BFFFFC00000000
00AFFFF900000000
00AFFFF800000000
00AFFFF700000000
008FFFF500000000
002FFFF800000000
002FFFF900000000
002FFFF900000000
001EFFF900000000
000BFFF800000000
000BFFF700000000
000AFFFB00000000
0008FFFFDB8B6000
0006FFFFFFFF3000
0003FFFFFFFF1000
0000EFFCEFFD0000
00006678AAFC0000
0000203520A10000
ENDCHAR
STARTCHAR lacute
ENCODING 314
SWIDTH 438 0
DWIDTH 12 0
BBX 16 32 0 -2
BITMAP
0000000000002000
000000000004E500
00000000006FFA00
0000000008FFFE30
00000001AFFFFFE6
0000002DFFFFFB72
0000007FFD951000
0000001830000000
0000000000000000
0037999AADD40000
3BFFFFFFFB200000
02EFFFFFF3000000
007FFFFF90000000
007FFFFF80000000
003FFFFF90000000
003FFFFF70000000
000FFFFF50000000
000FFFFF50000000
000BFFFF60000000
0006FFFF50000000
0002FFFF40000000
0001FFFF30000000
0001FFFF20000000
0001FFFF20000000
0000DFFF20000000
0000CFFF50000000
0000AFFFFEBBB100
00008FFFFFFF9000
00007FFFFFFF6000
00005FFF7FFF2000
00003C2408FE0000
0000190000840000
ENDCHAR
STARTCHAR Lcommaaccent
ENCODING 315
SWIDTH 416 0
DWIDTH 12 0
BBX 13 38 0 -17
BITMAP
59999986970000
2BFFFFFFD20000
02FFFFFF300000
02FFFFFA000000
00EFFFF8000000
00BFFFFC000000
00AFFFF9000000
00AFFFF8000000
00AFFFF7000000
008FFFF5000000
002FFFF8000000
002FFFF9000000
002FFFF9000000
001EFFF9000000
000BFFF8000000
000BFFF7000000
000AFFFB000000
0008FFFFDB8B60
0006FFFFFFFF30
0003FFFFFFFF10
0000EFFCEFFD00
00006678AAFC00
0000203520A100
00000000000000
00000000000000
00048853640000
0009FFFFFC0000
000AFFFFFD0000
000BFFFFFE0000
000BFFFFFE0000
000CFFFFFE0000
000CFFFFFE0000
0003436FFD0000
0000001FFB0000
0000004FF90000
0000007FF60000
0000009FF40000
00000058710000
ENDCHAR
STARTCHAR lcommaaccent
ENCODING 316
SWIDTH 438 0
DWIDTH 12 0
BBX 14 37 0 -16
BITMAP
0037999AADD400
3BFFFFFFFB2000
02EFFFFFF30000
007FFFFF900000
007FFFFF800000
003FFFFF900000
003FFFFF700000
000FFFFF500000
000FFFFF500000
000BFFFF600000
0006FFFF500000
0002FFFF400000
0001FFFF300000
0001FFFF200000
0001FFFF200000
0000DFFF200000
0000CFFF500000
0000AFFFFEBBB1
00008FFFFFFF90
00007FFFFFFF60
00005FFF7FFF20
00003C2408FE00
00001900008400
00000000000000
00017964451000
0003FFFFFF4000
0004FFFFFF5000
0004FFFFFF6000
0005FFFFFF5000
0006FFFFFF5000
0006FFFFFF5000
0000535BFF5000
0000000AFF2000
0000000DFF0000
0000001FFD0000
0000002FFA0000
00000018840000
ENDCHAR
STARTCHAR Lcaron
ENCODING 317
SWIDTH 714 0
DWIDTH 20 0
BBX 19 23 0 -2
BITMAP
59999986980179753630
2BFFFFFFD203FFFFFFC0
02FFFFFF3004FFFFFFD0
02FFFFFA0004FFFFFFE0
00EFFFF80005FFFFFFE0
00AFFFFC0005FFFFFFD0
00AFFFF90006FFFFFFE0
00AFFFF80006FFFFFFD0
00AFFFF70003B9ACFFD0
008FFFF600000001FFB0
002FFFF800000004FF90
002FFFF900000006FF70
002FFFF900000009FF40
001EFFF900000009FF20
000BFFF8000000011000
000BFFF8000000000000
000AFFFB000000000000
0008FFFFDB8B60000000
0006FFFFFFFF30000000
0003FFFFFFFF10000000
0000DFFDEFFD00000000
00006678AAFC00000000
0000213520A200000000
ENDCHAR
STARTCHAR lcaron
ENCODING 318
SWIDTH 782 0
DWIDTH 22 0
BBX 21 23 0 -2
BITMAP
0037999AADD40279753630
3BFFFFFFFB2004FFFFFFB0
02EFFFFFF30005FFFFFFC0
007FFFFF900005FFFFFFC0
007FFFFF800006FFFFFFD0
003FFFFF900006FFFFFFC0
003FFFFF700007FFFFFFC0
000FFFFF500008FFFFFFC0
000FFFFF500003B8BDFFC0
000BFFFF6000000002FFA0
0006FFFF5000000005FF80
0002FFFF4000000007FF50
0001FFFF300000000AFF30
0001FFFF200000000AFF10
0001FFFF20000000010000
0000DFFF20000000000000
0000CFFF50000000000000
0000AFFFFEBBB100000000
00008FFFFFFF9000000000
00007FFFFFFF6000000000
00005FFF7FFF2000000000
00003C2408FE0000000000
0000190000840000000000
ENDCHAR
STARTCHAR Ldotaccent
ENCODING 319
SWIDTH 567 0
DWIDTH 16 0
BBX 18 23 0 -2
BITMAP
599999869700000000
2BFFFFFFD200000000
02FFFFFF3000000000
02FFFFFA0000000000
00EFFFF80023589850
00BFFFFC07FFFFFFF2
00AFFFF901FFFFFFF1
00AFFFF800FFFFFFE0
00AFFFF700DFFFFFF3
008FFFF500CFFFFFF3
002FFFF800BFFFFFF2
002FFFF900AFFFFFF1
002FFFF9009ED98AA0
001EFFF90000000000
000BFFF80000000000
000BFFF70000000000
000AFFFB0000000000
0008FFFFDB8B600000
0006FFFFFFFF300000
0003FFFFFFFF100000
0000EFFCEFFD000000
00006678AAFC000000
0000203520A1000000
ENDCHAR
STARTCHAR ldot
ENCODING 320
SWIDTH 660 0
DWIDTH 18 0
BBX 20 23 0 -2
BITMAP
0037999AADD400000000
3BFFFFFFFB2000000000
02EFFFFFF30000000000
007FFFFF900000000000
007FFFFF800000000000
003FFFFF900000000000
003FFFFF700389BEFEB2
000FFFFF5002FFFFFFF3
000FFFFF5000EFFFFFF2
000BFFFF6000DFFFFFF2
0006FFFF5000BFFFFFF5
0002FFFF4000AFFFFFF4
0001FFFF30009FFFFFF3
0001FFFF20009FFFFFF2
0001FFFF200059732330
0000DFFF200000000000
0000CFFF500000000000
0000AFFFFEBBB1000000
00008FFFFFFF90000000
00007FFFFFFF60000000
00005FFF7FFF20000000
00003C2408FE00000000
00001900008400000000
ENDCHAR
STARTCHAR Lslash
ENCODING 321
SWIDTH 428 0
DWIDTH 12 0
BBX 14 23 0 -2
BITMAP
28999986970000
07FFFFFFC20000
00BFFFFF300000
00BFFFFA000000
008FFFF8000000
004FFFFC000300
004FFFF905CF10
004FFFFDEFFF20
003FFFFFFFFF50
04AFFFFFFFFFB0
9FFFFFFFFFFFF1
5FFFFFFFFFA420
1EFFFFFE720000
09FFFFF9000000
03B9FFF8000000
0005FFF7000000
0004FFFB000000
0002FFFFDB8B60
0000FFFFFFFF30
0000DFFFFFFF10
00009FFCEFFD00
00003868AAFB00
0000022520A100
ENDCHAR
STARTCHAR lslash
ENCODING 322
SWIDTH 457 0
DWIDTH 13 0
BBX 15 23 0 -2
BITMAP
00268999ADD80000
18FFFFFFFD400000
00BFFFFFF6000000
003FFFFFD0000000
004FFFFFB0000000
000EFFFFD005C100
000EFFFFB5CFF100
000BFFFFFFFFF400
000CFFFFFFFFF900
005DFFFFFFFFFF10
4DFFFFFFFFFFA910
2FFFFFFFFFB30000
0BFFFFFFC3000000
05FFFFFF70000000
00DAEFFF60000000
00009FFF60000000
00008FFF80000000
00006FFFFECBC300
00004FFFFFFFD000
00003FFFFFFFA000
00001FFF9DFF6000
00000E3316EF3000
00000A0000480000
ENDCHAR
STARTCHAR Nacute
ENCODING 323
SWIDTH 610 0
DWIDTH 17 0
BBX 19 35 0 -5
BITMAP
00000000000000020000
000000000000009D1000
0000000000001BFF4000
000000000002CFFFA000
00000000003EFFFFFC10
0000000008FFFFFE9500
000000000DFFC8300000
00000000056100000000
00000000000000000000
01234568069642000000
1CFFFFFC05FFFFEB2000
09EFFFFF01FFFFF60000
00AFFFFF50EFFF900000
008FFFFFB0DFFF500000
007FFFFFF2DFFF500000
006FFFFFF6EFFF300000
005FFFFFFCEFFF100000
003FFFFFFFFFFE000000
002FFFFFFFFFFC000000
000FFFFFFFFFFA000000
000DFFFFFFFFF8000000
000BFFFFFFFFF6000000
0007FFFFFFFFF4000000
0005FFFAFFFFF3000000
0001FFF7FFFFF3000000
0000FFF5BFFFF2000000
0000EFF39FFFF1000000
0000DFF54FFFF0000000
0000CFF60DFFC0000000
0000BFF70BFFB0000000
0000AFE807FBA0000000
0000971804E960000000
00008106022200000000
00006207032000000000
00001003010000000000
ENDCHAR
STARTCHAR nacute
ENCODING 324
SWIDTH 664 0
DWIDTH 19 0
BBX 19 33 0 -3
BITMAP
00000000000000001000
000000000000001BB000
00000000000002CFF200
0000000000003DFFF800
000000000005EFFFFFA0
00000000009FFFFFD940
0000000001FFEB720000
00000000006510000000
00000000000000000000
36789AB9703855555620
2EFFFFFFA02FFFFFFB00
07FFFFFFE10DFFFFF200
01EFFFFFF30AFFFFA000
00BFFFFFFB0BFFFF4000
009FFFFFFE0CFFFE0000
009FFFFFFF2EFFFB0000
008FFFFFFF8FFFF90000
007FFFFFFFFFFFF70000
005FFFFFFFFFFFF50000
004FFFFFFFFFFFF30000
002FFFFFFFFFFFF10000
000FFFFFFFFFFFE00000
000CFFFEFFFFFFB00000
0007FFF9FFFFFF800000
0007FFF7EFFFFF500000
0006FFF49FFFFF300000
0004FFF46FFFFE000000
0003FFF43FFFFC000000
0001FFF30DFFF7000000
0000FFF30CFFF1000000
0000DFD30AFEC0000000
0000660205AB70000000
00000000001430000000
ENDCHAR
STARTCHAR Ncommaaccent
ENCODING 325
SWIDTH 610 0
DWIDTH 17 0
BBX 17 40 0 -19
BITMAP
012345680696420000
1CFFFFFC05FFFFEB20
09EFFFFF01FFFFF600
00AFFFFF50EFFF9000
008FFFFFB0DFFF5000
007FFFFFF2DFFF5000
006FFFFFF6EFFF3000
005FFFFFFCEFFF1000
003FFFFFFFFFFE0000
002FFFFFFFFFFC0000
000FFFFFFFFFFA0000
000DFFFFFFFFF80000
000BFFFFFFFFF60000
0007FFFFFFFFF40000
0005FFFAFFFFF30000
0001FFF7FFFFF30000
0000FFF5BFFFF20000
0000EFF39FFFF10000
0000DFF54FFFF00000
0000CFF60DFFC00000
0000BFF70BFFB00000
0000AFE807FBA00000
0000971804E9600000
000081060222000000
000062070320000000
000010030100000000
000000000000000000
000000378645500000
0000006FFFFFF00000
0000007FFFFFF10000
0000008FFFFFF20000
0000008FFFFFF20000
0000009FFFFFF20000
0000009FFFFFF20000
0000002536DFF10000
0000000000DFE00000
0000000001FFC00000
0000000004FF900000
0000000006FF700000
000000000388200000
ENDCHAR
STARTCHAR ncommaaccent
ENCODING 326
SWIDTH 664 0
DWIDTH 19 0
BBX 19 38 0 -17
BITMAP
36789AB9703855555620
2EFFFFFFA02FFFFFFB00
07FFFFFFE10DFFFFF200
01EFFFFFF30AFFFFA000
00BFFFFFFB0BFFFF4000
009FFFFFFE0CFFFE0000
009FFFFFFF2EFFFB0000
008FFFFFFF8FFFF90000
007FFFFFFFFFFFF70000
005FFFFFFFFFFFF50000
004FFFFFFFFFFFF30000
002FFFFFFFFFFFF10000
000FFFFFFFFFFFE00000
000CFFFEFFFFFFB00000
0007FFF9FFFFFF800000
0007FFF7EFFFFF500000
0006FFF49FFFFF300000
0004FFF46FFFFE000000
0003FFF43FFFFC000000
0001FFF30DFFF7000000
0000FFF30CFFF1000000
0000DFD30AFEC0000000
0000660205AB70000000
00000000001430000000
00000000000000000000
00000004885363000000
0000000AFFFFFB000000
0000000BFFFFFC000000
0000000CFFFFFD000000
0000000CFFFFFD000000
0000000DFFFFFD000000
0000000DFFFFFD000000
00000003437FFC000000
00000000002FFA000000
00000000005FF8000000
00000000008FF5000000
0000000000AFF3000000
00000000005871000000
ENDCHAR
STARTCHAR Ncaron
ENCODING 327
SWIDTH 610 0
DWIDTH 17 0
BBX 17 38 0 -5
BITMAP
000183000000740000
002DFE200005FF5000
002FFFC0001EFFF100
000AFFF400AFFF9000
0004FFFC04FFFF2000
0000CFFF7DFFF90000
00005FFFFFFFE10000
00000DFFFFFF800000
000007FFFFFE100000
000001EFEFF8000000
000000110031000000
000000000000000000
012345680696420000
1CFFFFFC05FFFFEB20
09EFFFFF01FFFFF600
00AFFFFF50EFFF9000
008FFFFFB0DFFF5000
007FFFFFF2DFFF5000
006FFFFFF6EFFF3000
005FFFFFFCEFFF1000
003FFFFFFFFFFE0000
002FFFFFFFFFFC0000
000FFFFFFFFFFA0000
000DFFFFFFFFF80000
000BFFFFFFFFF60000
0007FFFFFFFFF40000
0005FFFAFFFFF30000
0001FFF7FFFFF30000
0000FFF5BFFFF20000
0000EFF39FFFF10000
0000DFF54FFFF00000
0000CFF60DFFC00000
0000BFF70BFFB00000
0000AFE807FBA00000
0000971804E9600000
000081060222000000
000062070320000000
000010030100000000
ENDCHAR
STARTCHAR ncaron
ENCODING 328
SWIDTH 664 0
DWIDTH 19 0
BBX 19 36 0 -3
BITMAP
00000750000005600000
0001BFF400003FF70000
0001EFFE1000DFFF3000
00008FFF7007FFFC0000
00002FFFE12FFFF40000
00000AFFF9BFFFB00000
000003FFFFFFFF300000
000000BFFFFFFB000000
0000005FFFFFF3000000
0000000DFEFFA0000000
00000001100210000000
00000000000000000000
36789AB9703855555620
2EFFFFFFA02FFFFFFB00
07FFFFFFE10DFFFFF200
01EFFFFFF30AFFFFA000
00BFFFFFFB0BFFFF4000
009FFFFFFE0CFFFE0000
009FFFFFFF2EFFFB0000
008FFFFFFF8FFFF90000
007FFFFFFFFFFFF70000
005FFFFFFFFFFFF50000
004FFFFFFFFFFFF30000
002FFFFFFFFFFFF10000
000FFFFFFFFFFFE00000
000CFFFEFFFFFFB00000
0007FFF9FFFFFF800000
0007FFF7EFFFFF500000
0006FFF49FFFFF300000
0004FFF46FFFFE000000
0003FFF43FFFFC000000
0001FFF30DFFF7000000
0000FFF30CFFF1000000
0000DFD30AFEC0000000
0000660205AB70000000
00000000001430000000
ENDCHAR
STARTCHAR Omacron
ENCODING 332
SWIDTH 504 0
DWIDTH 14 0
BBX 14 29 0 -3
BITMAP
00888756658400
00FFFFFFFFF700
01FFFFFFFFF500
0088DDACA9E400
00000000000000
00001688610000
0007FFFFFEB300
009FFFFFFFFE30
06FFFFFFFFFFE2
0EFFFFFFFFFFF2
3FFFFFFFFFFFF3
2FFFFFFFFFFFF6
0FFFFFFFFFFFF2
0EFFFFFFFFFFF3
0CFFFF87FFFFF6
09FFFE10EFFFF6
07FFFC00CFFFF5
04FFFB00AFFFF4
03FFFB009FFFF2
02FFFD009FFFB0
00EFFE00AFFF70
00AFFF20EFFF50
007FFF61FFFF10
007FFFECFFFC00
003FFFFFFFF600
0006EFFFFFE000
00002D75F9A000
00000722E05000
00000001400000
ENDCHAR
STARTCHAR omacron
ENCODING 333
SWIDTH 545 0
DWIDTH 15 0
BBX 15 28 0 -2
BITMAP
0038885665680000
005FFFFFFFFF1000
006FFFFFFFFE0000
0037BDD9BABC0000
0000000000000000
0000269988500000
0007FFFFFFFC2000
009FFFFFFFFFE300
06FFFFFFFFFFFC20
0EFFFFFFFFFFFF80
2FFFFFFFFFFFFF70
2FFFFFFFFFFFFF80
1EFFFFFFFFFFFFA0
0DFFFFFFFFFFFF90
0BFFFFE4CFFFFF90
09FFFF706FFFFF80
07FFFF305FFFFF60
05FFFF303FFFFF30
03FFFF300FFFFE00
00FFFF302FFFFA00
00CFFF304FFFF600
008FFF808FFFF200
004FFFC0AFFFB000
001FFFFBFFFF9000
000DFFFFFFFF3000
00048DFFFFFA0000
00000281EEC40000
0000000073630000
ENDCHAR
STARTCHAR Obreve
ENCODING 334
SWIDTH 504 0
DWIDTH 14 0
BBX 14 34 0 -3
BITMAP
009DDA00024210
007FFC0007FFF0
002FFE200CFFB0
000FFFE9AFFF70
000BFFFFFFFF10
00037CFFFFF700
00000390EEC200
00000000728100
00000000001000
00000000000000
00001688610000
0007FFFFFEB300
009FFFFFFFFE30
06FFFFFFFFFFE2
0EFFFFFFFFFFF2
3FFFFFFFFFFFF3
2FFFFFFFFFFFF6
0FFFFFFFFFFFF2
0EFFFFFFFFFFF3
0CFFFF87FFFFF6
09FFFE10EFFFF6
07FFFC00CFFFF5
04FFFB00AFFFF4
03FFFB009FFFF2
02FFFD009FFFB0
00EFFE00AFFF70
00AFFF20EFFF50
007FFF61FFFF10
007FFFECFFFC00
003FFFFFFFF600
0006EFFFFFE000
00002D75F9A000
00000722E05000
00000001400000
ENDCHAR
STARTCHAR obreve
ENCODING 335
SWIDTH 545 0
DWIDTH 15 0
BBX 15 33 0 -2
BITMAP
005DDD1000431000
002FFF1003FFF400
000DFF5008FFE100
000AFFFA9FFFB000
0007FFFFFFFF5000
000089FFFFFB0000
000000B1AFB60000
0000000046450000
0000000000010000
0000000000000000
0000269988500000
0007FFFFFFFC2000
009FFFFFFFFFE300
06FFFFFFFFFFFC20
0EFFFFFFFFFFFF80
2FFFFFFFFFFFFF70
2FFFFFFFFFFFFF80
1EFFFFFFFFFFFFA0
0DFFFFFFFFFFFF90
0BFFFFE4CFFFFF90
09FFFF706FFFFF80
07FFFF305FFFFF60
05FFFF303FFFFF30
03FFFF300FFFFE00
00FFFF302FFFFA00
00CFFF304FFFF600
008FFF808FFFF200
004FFFC0AFFFB000
001FFFFBFFFF9000
000DFFFFFFFF3000
00048DFFFFFA0000
00000281EEC40000
0000000073630000
ENDCHAR
STARTCHAR Ohungarumlaut
ENCODING 336
SWIDTH 504 0
DWIDTH 14 0
BBX 15 35 0 -3
BITMAP
0002D40000D60000
0008FF7005FE9610
000EFFF50BFFFF50
006FFFD11FFFF600
00CFFE207FFF7000
03FFF400CFF80000
0AFF5003FF900000
2FF70009FA000000
1D800007C1000000
0100000010000000
0000000000000000
0000168861000000
0007FFFFFEB30000
009FFFFFFFFE3000
06FFFFFFFFFFE200
0EFFFFFFFFFFF200
3FFFFFFFFFFFF300
2FFFFFFFFFFFF600
0FFFFFFFFFFFF200
0EFFFFFFFFFFF300
0CFFFF87FFFFF600
09FFFE10EFFFF600
07FFFC00CFFFF500
04FFFB00AFFFF400
03FFFB009FFFF200
02FFFD009FFFB000
00EFFE00AFFF7000
00AFFF20EFFF5000
007FFF61FFFF1000
007FFFECFFFC0000
003FFFFFFFF60000
0006EFFFFFE00000
00002D75F9A00000
00000722E0500000
0000000140000000
ENDCHAR
STARTCHAR ohungarumlaut
ENCODING 337
SWIDTH 545 0
DWIDTH 15 0
BBX 16 34 0 -2
BITMAP
00008A10005B2000
0000EFD300BFB940
0005FFFD12FFFFD1
000BFFF907FFFD20
003FFFA00DFFE200
009FFC103FFE3000
02EFD1009FF40000
08FE2001EF400000
05E30001C7000000
0010000010000000
0000000000000000
0000269988500000
0007FFFFFFFC2000
009FFFFFFFFFE300
06FFFFFFFFFFFC20
0EFFFFFFFFFFFF80
2FFFFFFFFFFFFF70
2FFFFFFFFFFFFF80
1EFFFFFFFFFFFFA0
0DFFFFFFFFFFFF90
0BFFFFE4CFFFFF90
09FFFF706FFFFF80
07FFFF305FFFFF60
05FFFF303FFFFF30
03FFFF300FFFFE00
00FFFF302FFFFA00
00CFFF304FFFF600
008FFF808FFFF200
004FFFC0AFFFB000
001FFFFBFFFF9000
000DFFFFFFFF3000
00048DFFFFFA0000
00000281EEC40000
0000000073630000
ENDCHAR
STARTCHAR OE
ENCODING 338
SWIDTH 789 0
DWIDTH 22 0
BBX 22 26 0 -5
BITMAP
0000168865789998753100
0007FFFFFFFFFFFFFFFFD1
009FFFFFFFFFFFFFFFFF80
06FFFFFFFFFFFFFFFFFF20
0EFFFFFFFFFFFFFFFFFB00
3FFFFFFFFFFFFFFFFFF500
2FFFFFFFFFFFFFFFFFF100
0FFFFFFFFFFFFFFFFFC000
0EFFFFFFFFFFFFFFFFB000
0CFFFF87FFFFF948BF9000
0AFFFE10EFFFF800001000
08FFFC00CFFFF944200000
05FFFA00AFFFFFFFF30000
03FFFB009FFFFFFFF20000
02FFFD009FFFFFFFF00000
01FFFE00BFFFFB88900000
00BFFF20EFFFF500000000
007FFF62FFFFF988630000
007FFFECFFFFFFFFF90000
003FFFFFFFFFFFFFF50000
0006EFFFFFE17FFAE30000
00002E75F9B07CA0820000
00000932E0707710800000
00000722D0407600700000
0000021070007400700000
0000000000002000000000
ENDCHAR
STARTCHAR oe
ENCODING 339
SWIDTH 778 0
DWIDTH 22 0
BBX 21 24 0 -3
BITMAP
0000279978456776531000
0008FFFFFFFFFFFFFFFD80
00AFFFFFFFFFFFFFFFFF30
06FFFFFFFFFFFFFFFFF900
1EFFFFFFFFFFFFFFFFF200
2FFFFFFFFFFFFFFFFFC000
3FFFFFFFFFFFFFFFFF9000
1EFFFFFFFFFFFFFFFF7000
0CFFFFFFFFFFFFFFFF6000
09FFFFC3EFFFFFEFFF3000
06FFFF30AFFFFB015A0000
03FFFF009FFFF900000000
01FFFF006FFFFB88500000
00DFFF005FFFFFFFA00000
00AFFF007FFFFFFFA00000
008FFF008FFFFFFF800000
005FFF40CFFFF546400000
003FFF80EFFFF000000000
001FFFECFFFFF8B9810000
000DFFFFFFFFFFFFF10000
00058EFFFFFFFFFFC00000
00000753FDE29FBAB00000
0000000090701100800000
0000000000100000000000
ENDCHAR
STARTCHAR Racute
ENCODING 340
SWIDTH 599 0
DWIDTH 17 0
BBX 18 32 0 -2
BITMAP
000000000000001000
00000000000002D800
0000000000003EFE00
000000000005FFFF50
00000000007FFFFFF7
000000001CFFFFFC83
000000004FFEA61000
000000000840000000
000000000000000000
000217ABA968200000
3ADFFFFFFFFFE81000
09FFFFFFFFFFFFD200
01BFFFFFFFFFFFFE00
001FFFFFFFFFFFFF10
000AFFFFFFFFFFFF20
0006FFFFFFFFFFFF20
0005FFFFFFFFFFFF10
0004FFFFEBEFFFFF00
0003FFFF803EFFFE00
0003FFFF800CFFFC00
0000CFFF900EFFFA00
0000AFFFD7AFFFF400
00009FFFFFFFFFE000
00004FFFFFFFFFA000
00001FFFFFFFFA0000
00000FFFC1EFFE1000
00000EFFB0AFFF4000
00000CFFC0AFFF5000
00000BFFD07FFF3000
00000AFFE07FFF6000
00000699702ADFA000
000000161004254000
ENDCHAR
STARTCHAR racute
ENCODING 341
SWIDTH 616 0
DWIDTH 17 0
BBX 19 33 0 -3
BITMAP
00000000000000020000
000000000000009D1000
0000000000001BFF4000
000000000002CFFFA000
00000000003EFFFFFC10
0000000008FFFFFD9500
000000000DFEC7300000
00000000056100000000
00000000000000000000
00013699976610000000
2BCFFFFFFFFFFB500000
09FFFFFFFFFFFFFC1000
00BFFFFFFFFFFFFF9000
001EFFFFFFFFFFFFB000
0008FFFFFFFFFFFFA000
0006FFFFFFFFFFFF8000
0005FFFFFFFFFFFF5000
0004FFFFFEFFFFFF2000
0002FFFFC12EFFFE0000
0000FFFFB009FFFB0000
0000EFFFB00CFFF80000
0001EFFFE66FFFF60000
0000BFFFFFFFFFF30000
00008FFFFFFFFFA00000
00007FFFFFFFFD400000
00006FFFC9FFF7000000
00006FFFA0FFF9000000
00006FFFB0FFF9000000
00005FFFB0DFF9000000
00005FFFA0DFF9000000
00004FF960BFFB000000
000015100014AC000000
00000000000002000000
ENDCHAR
STARTCHAR Rcommaaccent
ENCODING 342
SWIDTH 599 0
DWIDTH 17 0
BBX 17 37 0 -16
BITMAP
000217ABA968200000
3ADFFFFFFFFFE81000
09FFFFFFFFFFFFD200
01BFFFFFFFFFFFFE00
001FFFFFFFFFFFFF10
000AFFFFFFFFFFFF20
0006FFFFFFFFFFFF20
0005FFFFFFFFFFFF10
0004FFFFEBEFFFFF00
0003FFFF803EFFFE00
0003FFFF800CFFFC00
0000CFFF900EFFFA00
0000AFFFD7AFFFF400
00009FFFFFFFFFE000
00004FFFFFFFFFA000
00001FFFFFFFFA0000
00000FFFC1EFFE1000
00000EFFB0AFFF4000
00000CFFC0AFFF5000
00000BFFD07FFF3000
00000AFFE07FFF6000
00000699702ADFA000
000000161004254000
000000000000000000
000000797446200000
000000FFFFFF600000
000001FFFFFF700000
000002FFFFFF800000
000002FFFFFF800000
000003FFFFFF800000
000003FFFFFF800000
000000544AFF700000
0000000007FF500000
000000000AFF300000
000000000DFF000000
000000000EFD000000
000000000885000000
ENDCHAR
STARTCHAR rcommaaccent
ENCODING 343
SWIDTH 616 0
DWIDTH 17 0
BBX 17 38 0 -17
BITMAP
000136999766100000
2BCFFFFFFFFFFB5000
09FFFFFFFFFFFFFC10
00BFFFFFFFFFFFFF90
001EFFFFFFFFFFFFB0
0008FFFFFFFFFFFFA0
0006FFFFFFFFFFFF80
0005FFFFFFFFFFFF50
0004FFFFFEFFFFFF20
0002FFFFC12EFFFE00
0000FFFFB009FFFB00
0000EFFFB00CFFF800
0001EFFFE66FFFF600
0000BFFFFFFFFFF300
00008FFFFFFFFFA000
00007FFFFFFFFD4000
00006FFFC9FFF70000
00006FFFA0FFF90000
00006FFFB0FFF90000
00005FFFB0DFF90000
00005FFFA0DFF90000
00004FF960BFFB0000
000015100014AC0000
000000000000020000
000000000000000000
000000488536400000
0000009FFFFFC00000
000000AFFFFFD00000
000000BFFFFFE00000
000000BFFFFFE00000
000000CFFFFFE00000
000000CFFFFFE00000
0000003436FFD00000
0000000001FFB00000
0000000004FF900000
0000000007FF600000
0000000009FF400000
000000000587100000
ENDCHAR
STARTCHAR Rcaron
ENCODING 344
SWIDTH 599 0
DWIDTH 17 0
BBX 17 35 0 -2
BITMAP
000039000000191000
0006FFA00000BFC100
0008FFF60006FFFA00
0001FFFD001EFFF300
00009FFF70AFFFB000
00003FFFE6FFFF3000
00000BFFFFFFFA0000
000004FFFFFFF20000
000000DFFFFFA00000
0000006FFEFF200000
000000010013000000
000000000000000000
000217ABA968200000
3ADFFFFFFFFFE81000
09FFFFFFFFFFFFD200
01BFFFFFFFFFFFFE00
001FFFFFFFFFFFFF10
000AFFFFFFFFFFFF20
0006FFFFFFFFFFFF20
0005FFFFFFFFFFFF10
0004FFFFEBEFFFFF00
0003FFFF803EFFFE00
0003FFFF800CFFFC00
0000CFFF900EFFFA00
0000AFFFD7AFFFF400
00009FFFFFFFFFE000
00004FFFFFFFFFA000
00001FFFFFFFFA0000
00000FFFC1EFFE1000
00000EFFB0AFFF4000
00000CFFC0AFFF5000
00000BFFD07FFF3000
00000AFFE07FFF6000
00000699702ADFA000
000000161004254000
ENDCHAR
STARTCHAR rcaron
ENCODING 345
SWIDTH 616 0
DWIDTH 17 0
BBX 17 36 0 -3
BITMAP
000048000000291000
0008FF800001DFB100
000AFFF40008FFF800
0003FFFC003FFFF200
0000BFFF50CFFF9000
00005FFFD7FFFE2000
00000DFFFFFFF80000
000006FFFFFFE10000
000001EFFFFF800000
0000008FFFFE100000
000000110022000000
000000000000000000
000136999766100000
2BCFFFFFFFFFFB5000
09FFFFFFFFFFFFFC10
00BFFFFFFFFFFFFF90
001EFFFFFFFFFFFFB0
0008FFFFFFFFFFFFA0
0006FFFFFFFFFFFF80
0005FFFFFFFFFFFF50
0004FFFFFEFFFFFF20
0002FFFFC12EFFFE00
0000FFFFB009FFFB00
0000EFFFB00CFFF800
0001EFFFE66FFFF600
0000BFFFFFFFFFF300
00008FFFFFFFFFA000
00007FFFFFFFFD4000
00006FFFC9FFF70000
00006FFFA0FFF90000
00006FFFB0FFF90000
00005FFFB0DFF90000
00005FFFA0DFF90000
00004FF960BFFB0000
000015100014AC0000
000000000000020000
ENDCHAR
STARTCHAR Sacute
ENCODING 346
SWIDTH 504 0
DWIDTH 14 0
BBX 17 33 0 -3
BITMAP
000000000000020000
0000000000008E1000
00000000000AFF6000
0000000001BFFFB100
000000002DFFFFFC20
00000006FFFFFEA510
0000000CFFC8400000
000000046200000000
000000000000000000
000001599610000000
0003AFFFFFD4000000
006FFFFFFFFF600000
01FFFFFFFFFFF60000
06FFFFFFFFFFF70000
0EFFFFFFFFFFF60000
2FFFFFFFFFFFF50000
3FFFFFFFFFFFF40000
4FFFFFFFFFFFF40000
4FFFFF96EFFFF30000
3FFFFF40CFEFF30000
0EFFFFB32113530000
08FFFFFFFA20000000
01CFFFFFFFE4000000
0019FFFFFFFE100000
000017BDFFFF700000
00255410EFFF700000
06FFFF70CFFF400000
02FFFFC9FFFE100000
00AFFFFFFFF6000000
002FFFFFFFE0000000
0004DC8AB870000000
000003014300000000
000000001000000000
ENDCHAR
STARTCHAR sacute
ENCODING 347
SWIDTH 481 0
DWIDTH 13 0
BBX 16 32 0 -2
BITMAP
0000000000000100
000000000001AC00
00000000001CFF20
0000000003DFFF90
000000004EFFFFFB
00000009FFFFFD94
0000000FFEB73000
0000000651000000
0000000000000000
0000178A84000000
0006EFFFFFB10000
006FFFFFFFFC1000
02FFFFFFFFFFB000
09FFFFFFFFFFD000
0EFFFFFFFFFFA000
2FFFFFFFFFFF9000
3FFFFFFFFFFF8000
3FFFFFFFFFFF6000
3FFFFF7BFFFF5000
2FFFFF14FFFF4000
0DFFFF60567E4000
08FFFFEEB3000000
04FFFFFFFE300000
005EFFFFFFB00000
00026DFFFFF10000
0000011AFFF40000
009DDE15FFF40000
02EFFF47FFF10000
009FFFFFFF800000
001EFFFFFF100000
0008FFFDEA000000
0000752101000000
ENDCHAR
STARTCHAR Scircumflex
ENCODING 348
SWIDTH 504 0
DWIDTH 14 0
BBX 15 36 0 -3
BITMAP
0000022013100000
00001EFFFF900000
00007FFFFFF20000
0000DFFFFFF90000
0005FFFFFFFF2000
000CFFF5CFFF9000
004FFF702EFFF200
00AFF90003FFFA00
02FFA000005FFF10
02CC10000007E400
0001000000001000
0000000000000000
0000015996100000
0003AFFFFFD40000
006FFFFFFFFF6000
01FFFFFFFFFFF600
06FFFFFFFFFFF700
0EFFFFFFFFFFF600
2FFFFFFFFFFFF500
3FFFFFFFFFFFF400
4FFFFFFFFFFFF400
4FFFFF96EFFFF300
3FFFFF40CFEFF300
0EFFFFB321135300
08FFFFFFFA200000
01CFFFFFFFE40000
0019FFFFFFFE1000
000017BDFFFF7000
00255410EFFF7000
06FFFF70CFFF4000
02FFFFC9FFFE1000
00AFFFFFFFF60000
002FFFFFFFE00000
0004DC8AB8700000
0000030143000000
0000000010000000
ENDCHAR
STARTCHAR scircumflex
ENCODING 349
SWIDTH 481 0
DWIDTH 13 0
BBX 14 35 0 -2
BITMAP
00000210230000
00007FFFFF2000
0000DFFFFFA000
0005FFFFFFF300
000CFFFFFFFA00
003FFFD5FFFF30
00AFFE207FFFB0
02FFE30009FFF3
08FF400000BFF9
06F60000001CC1
00100000000100
00000000000000
0000178A840000
0006EFFFFFB100
006FFFFFFFFC10
02FFFFFFFFFFB0
09FFFFFFFFFFD0
0EFFFFFFFFFFA0
2FFFFFFFFFFF90
3FFFFFFFFFFF80
3FFFFFFFFFFF60
3FFFFF7BFFFF50
2FFFFF14FFFF40
0DFFFF60567E40
08FFFFEEB30000
04FFFFFFFE3000
005EFFFFFFB000
00026DFFFFF100
0000011AFFF400
009DDE15FFF400
02EFFF47FFF100
009FFFFFFF8000
001EFFFFFF1000
0008FFFDEA0000
00007521010000
ENDCHAR
STARTCHAR Scedilla
ENCODING 350
SWIDTH 504 0
DWIDTH 14 0
BBX 14 31 0 -10
BITMAP
00000159961000
0003AFFFFFD400
006FFFFFFFFF60
01FFFFFFFFFFF6
06FFFFFFFFFFF7
0EFFFFFFFFFFF6
2FFFFFFFFFFFF5
3FFFFFFFFFFFF4
4FFFFFFFFFFFF4
4FFFFF96EFFFF3
3FFFFF40CFEFF3
0EFFFFB3211353
08FFFFFFFA2000
01CFFFFFFFE400
0019FFFFFFFE10
000017BDFFFF70
00255410EFFF70
06FFFF70CFFF40
02FFFFC9FFFE10
00AFFFFFFFF600
002FFFFFFFE000
0004DC9FFA7000
0000036FF30000
000000AF700000
000000EF755000
000001FFFFE000
000000238FE000
000000005FD000
0000008ACFC000
000000FFFFC000
00000021343000
ENDCHAR
STARTCHAR scedilla
ENCODING 351
SWIDTH 481 0
DWIDTH 13 0
BBX 13 31 0 -10
BITMAP
0000178A840000
0006EFFFFFB100
006FFFFFFFFC10
02FFFFFFFFFFB0
09FFFFFFFFFFD0
0EFFFFFFFFFFA0
2FFFFFFFFFFF90
3FFFFFFFFFFF80
3FFFFFFFFFFF60
3FFFFF7BFFFF50
2FFFFF14FFFF40
0DFFFF60567E40
08FFFFEEB30000
04FFFFFFFE3000
005EFFFFFFB000
00026DFFFFF100
0000011AFFF400
009DDE15FFF400
02EFFF47FFF100
009FFFFFFF8000
001EFFFFFF1000
0008FFFFFA0000
00007BFD010000
00000AF6000000
00000EF7550000
00001FFFFE0000
00000238FD0000
00000005FD0000
000008ACFC0000
00000FFFFC0000
00000213430000
ENDCHAR
STARTCHAR Scaron
ENCODING 352
SWIDTH 503 0
DWIDTH 14 0
BBX 14 39 0 -3
BITMAP
00130000000300
03DE300000AF50
0DFFD10006FFF4
06FFF8001EFFF3
01EFFE109FFFA0
008FFF94FFFF30
002FFFFEFFFA00
000AFFFFFFF200
0003FFFFFFA000
0000CFFFFF2000
00004765870000
00000000000000
00000000000000
00000000000000
00000000000000
00000159960000
0003AFFFFFD400
006FFFFFFFFF60
01FFFFFFFFFFF6
06FFFFFFFFFFF6
0EFFFFFFFFFFF5
2FFFFFFFFFFFF5
3FFFFFFFFFFFF4
5FFFFFFFFFFFF4
4FFFFF96EFFFF3
3FFFFF40DFEFF2
0EFFFFB3211353
09FFFFFFFA2000
01CFFFFFFFE400
0019FFFFFFFE10
000017BDFFFF60
00355410EFFF70
06FFFF60CFFF40
02FFFFB9FFFE10
00AFFFFFFFF500
002FFFFFFFE000
0005DC8AB87000
00000301430000
00000000100000
ENDCHAR
STARTCHAR scaron
ENCODING 353
SWIDTH 479 0
DWIDTH 13 0
BBX 14 37 0 -2
BITMAP
03D8000000BA00
3FFF600008FFA0
0DFFE1003FFFE1
07FFF800CFFF70
01EFFE26FFFE10
009FFFCEFFF700
002FFFFFFFE100
000AFFFFFF6000
0004FFFFFD0000
0000AB9AC60000
00000000000000
00000000000000
00000000000000
00000000000000
0000278A840000
0006EFFFFFA100
006FFFFFFFFB10
02FFFFFFFFFFA0
0AFFFFFFFFFFC0
1EFFFFFFFFFF90
3FFFFFFFFFFF80
3FFFFFFFFFFF70
4FFFFFFFFFFF60
3FFFFF6BFFFF40
2FFFFF14FFFF30
0DFFFF60568E30
09FFFFEEA30000
04FFFFFFFE2000
005EFFFFFFA000
00026DFFFFF100
0000011AFFF300
009DDE15FFF300
02EFFF48FFE000
009FFFFFFF8000
001EFFFFFE1000
0008FFFEE90000
00007521010000
ENDCHAR
STARTCHAR Tcommaaccent
ENCODING 354
SWIDTH 622 0
DWIDTH 17 0
BBX 16 33 1 -12
BITMAP
0034677777630000
BEFFFFFFFFFFFC93
3FFFFFFFFFFFFFF3
0DFFFFFFFFFFFF70
09FFFFFFFFFFFF20
05FFFFFFFFFFFF50
02FFFFFFFFFFFF30
01FFFFFFFFFFFF10
00FFFFFFFFFFFE00
00FFFFFFFFDEFC00
009735FFFF615700
000000FFFF500000
000000FFFF700000
000001FFFF700000
000001FFFF300000
000001FFFF500000
000001FFFF100000
000000FFFF100000
000000CFFF200000
000000AFFF300000
000000BFFF300000
000000CFFF300000
000000DFEA100000
000000BFFB000000
0000001EF4000000
0000004FC0000000
0000008FB5510000
0000009FFFF60000
000000134EF50000
000000000EF40000
00000059BFF40000
0000009FFFF30000
0000001224410000
ENDCHAR
STARTCHAR tcommaaccent
ENCODING 355
SWIDTH 683 0
DWIDTH 19 0
BBX 19 33 0 -12
BITMAP
000148BBBBBBBA741000
29EFFFFFFFFFFFFFFD10
0BFFFFFFFFFFFFFFF900
02FFFFFFFFFFFFFFE100
00AFFFFFFFFFFFFF7000
005FFFFFFFFFFFFF7000
001FFFFFFFFFFFFF6000
000DFFFFFFFFFFFF5000
000BFFFFFFFFFFFF4000
0009FFFDFFFFBEFF2000
0008A627FFFF80370000
00010004FFFF80000000
00000002FFFF90000000
00000002FFFF90000000
00000001FFFF90000000
00000000FFFF90000000
00000000DFFF80000000
00000000CFFF70000000
000000009FFF90000000
000000007FFF70000000
000000008FFF50000000
000000007FFF50000000
000000007FFF50000000
000000002DFF50000000
000000000CF830000000
000000001FE100000000
000000006FC653000000
000000007FFFF8000000
00000000124CF8000000
00000000000BF7000000
0000000039AEF6000000
000000006FFFF6000000
00000000122341000000
ENDCHAR
STARTCHAR Tcaron
ENCODING 356
SWIDTH 622 0
DWIDTH 17 0
BBX 16 37 1 -4
BITMAP
0019300000084000
03DFD100006FE400
03FFFB0002EFFE00
00BFFF300BFFF800
005FFFB05FFFE100
000DFFF7EFFF8000
0006FFFFFFFE1000
0001EFFFFFF70000
00008FFFFFE10000
00002FFEFF700000
0000011013100000
0000000000000000
0034677777630000
BEFFFFFFFFFFFC93
3FFFFFFFFFFFFFF3
0DFFFFFFFFFFFF70
09FFFFFFFFFFFF20
05FFFFFFFFFFFF50
02FFFFFFFFFFFF30
01FFFFFFFFFFFF10
00FFFFFFFFFFFE00
00FFFFFFFFDEFC00
009735FFFF615700
000000FFFF500000
000000FFFF700000
000001FFFF700000
000001FFFF300000
000001FFFF500000
000001FFFF100000
000000FFFF100000
000000CFFF200000
000000AFFF300000
000000BFFF300000
000000CFFF300000
000000DFEA100000
000000B563000000
0000001000000000
ENDCHAR
STARTCHAR tcaron
ENCODING 357
SWIDTH 622 0
DWIDTH 17 0
BBX 16 37 1 -4
BITMAP
0003900000029100
007FF900000CFC10
009FFF50007FFF90
002FFFD002FFFF30
000AFFF60BFFFA00
0004FFFE7FFFF200
0000CFFFFFFF9000
00005FFFFFFF2000
00000DFFFFF90000
000007FFFFE10000
0000001001300000
0000000000000000
0034677777630000
BEFFFFFFFFFFFC93
3FFFFFFFFFFFFFF3
0DFFFFFFFFFFFF70
09FFFFFFFFFFFF20
05FFFFFFFFFFFF50
02FFFFFFFFFFFF30
01FFFFFFFFFFFF10
00FFFFFFFFFFFE00
00FFFFFFFFDEFC00
009735FFFF615700
000000FFFF500000
000000FFFF700000
000001FFFF700000
000001FFFF300000
000001FFFF500000
000001FFFF100000
000000FFFF100000
000000CFFF200000
000000AFFF300000
000000BFFF300000
000000CFFF300000
000000DFEA100000
000000B563000000
0000001000000000
ENDCHAR
STARTCHAR Utilde
ENCODING 360
SWIDTH 637 0
DWIDTH 18 0
BBX 18 31 0 -2
BITMAP
00018300029D700000
002DFE205CFFF90000
00CFFFECFFFFFF6000
003FFFFFFFFFFFD000
0006FFFFFCCFFE3000
00007DFC5005B20000
000000200000000000
000000000000000000
12579AA90044430000
3BFFFFFC008FFFFC71
01EFFFFD00AFFFFF50
00BFFFFC00CFFFFB00
00BFFFF900BFFFF900
007FFFFD00BFFFF500
005FFFFF00CFFFF200
003FFFFF00CFFFD000
001FFFFF00DFFFA000
000EFFFE00EFFF6000
000CFFFB00EFFF3000
000AFFF801FFFF1000
000BFFF902FFFF1000
000BFFFB03FFFF0000
0009FFFD04FFFC0000
0009FFFF05FFFB0000
0004FFFF17FFF80000
0002FFFFAEFFF50000
0000EFFFFFFFF30000
0000AFFEBFFFB00000
00001BDB0B95200000
000004810381000000
000000000060000000
ENDCHAR
STARTCHAR utilde
ENCODING 361
SWIDTH 708 0
DWIDTH 20 0
BBX 20 30 0 -1
BITMAP
000018300029D7000000
0003DFE205CFFF900000
000CFFFDCFFFFFF60000
0003FFFFFFFFFFFD0000
00006FFFFFCCFFE30000
000007DFC5005B200000
00000002000000000000
00000000000000000000
00025899800143100000
2AFFFFFFD001FFFCC720
01DFFFFFC002FFFFFFF8
009FFFFFD006FFFFFF90
007FFFFFC005FFFFFE00
002FFFFFF002FFFFFC00
000EFFFFF202FFFFF500
000BFFFFF303FFFFE000
0008FFFFF304FFFFB000
0006FFFFF304FFFF8000
0003FFFFF105FFFF5000
0002FFFFE007FFFF3000
0001FFFFE00AFFFF3000
0000FFFFF009FFFF2000
0000EFFFF30AFFFE0000
00009FFFF60CFFFB0000
00003FFFF61FFFF70000
00000EFFFD9FFFF70000
00000AFFFFFFFFF20000
000007FFFBEFFFC00000
0000003CB349CA400000
00000000100020000000
ENDCHAR
STARTCHAR Umacron
ENCODING 362
SWIDTH 637 0
DWIDTH 18 0
BBX 18 28 0 -2
BITMAP
000068875665750000
0000CFFFFFFFFA0000
0000DFFFFFFFF80000
000067DDBBA9D70000
000000000000000000
12579AA90044430000
3BFFFFFC008FFFFC71
01EFFFFD00AFFFFF50
00BFFFFC00CFFFFB00
00BFFFF900BFFFF900
007FFFFD00BFFFF500
005FFFFF00CFFFF200
003FFFFF00CFFFD000
001FFFFF00DFFFA000
000EFFFE00EFFF6000
000CFFFB00EFFF3000
000AFFF801FFFF1000
000BFFF902FFFF1000
000BFFFB03FFFF0000
0009FFFD04FFFC0000
0009FFFF05FFFB0000
0004FFFF17FFF80000
0002FFFFAEFFF50000
0000EFFFFFFFF30000
0000AFFEBFFFB00000
00001BDB0B95200000
000004810381000000
000000000060000000
ENDCHAR
STARTCHAR umacron
ENCODING 363
SWIDTH 708 0
DWIDTH 20 0
BBX 20 27 0 -1
BITMAP
00000688756657500000
00000CFFFFFFFF900000
00000DFFFFFFFF800000
0000067DDBBA9D600000
00000000000000000000
00025899800143100000
2AFFFFFFD001FFFCC720
01DFFFFFC002FFFFFFF8
009FFFFFD006FFFFFF90
007FFFFFC005FFFFFE00
002FFFFFF002FFFFFC00
000EFFFFF202FFFFF500
000BFFFFF303FFFFE000
0008FFFFF304FFFFB000
0006FFFFF304FFFF8000
0003FFFFF105FFFF5000
0002FFFFE007FFFF3000
0001FFFFE00AFFFF3000
0000FFFFF009FFFF2000
0000EFFFF30AFFFE0000
00009FFFF60CFFFB0000
00003FFFF61FFFF70000
00000EFFFD9FFFF70000
00000AFFFFFFFFF20000
000007FFFBEFFFC00000
0000003CB349CA400000
00000000100020000000
ENDCHAR
STARTCHAR Ubreve
ENCODING 364
SWIDTH 637 0
DWIDTH 18 0
BBX 18 33 0 -2
BITMAP
00007DDC0001431000
00005FFE0005FFF200
00001FFF300AFFD000
00000DFFE99FFF9000
000009FFFFFFFF2000
0000028BFFFFF90000
00000002B1CFC30000
000000000064620000
000000000000000000
000000000000000000
12579AA90044430000
3BFFFFFC008FFFFC71
01EFFFFD00AFFFFF50
00BFFFFC00CFFFFB00
00BFFFF900BFFFF900
007FFFFD00BFFFF500
005FFFFF00CFFFF200
003FFFFF00CFFFD000
001FFFFF00DFFFA000
000EFFFE00EFFF6000
000CFFFB00EFFF3000
000AFFF801FFFF1000
000BFFF902FFFF1000
000BFFFB03FFFF0000
0009FFFD04FFFC0000
0009FFFF05FFFB0000
0004FFFF17FFF80000
0002FFFFAEFFF50000
0000EFFFFFFFF30000
0000AFFEBFFFB00000
00001BDB0B95200000
000004810381000000
000000000060000000
ENDCHAR
STARTCHAR ubreve
ENCODING 365
SWIDTH 708 0
DWIDTH 20 0
BBX 20 32 0 -1
BITMAP
000006DDD00014310000
000003FFF1003FFF4000
000000DFF5008FFE1000
000000BFFFA9FFFB0000
0000007FFFFFFFF40000
000000089FFFFFB00000
000000000B1AFC600000
00000000000454500000
00000000000000100000
00000000000000000000
00025899800143100000
2AFFFFFFD001FFFCC720
01DFFFFFC002FFFFFFF8
009FFFFFD006FFFFFF90
007FFFFFC005FFFFFE00
002FFFFFF002FFFFFC00
000EFFFFF202FFFFF500
000BFFFFF303FFFFE000
0008FFFFF304FFFFB000
0006FFFFF304FFFF8000
0003FFFFF105FFFF5000
0002FFFFE007FFFF3000
0001FFFFE00AFFFF3000
0000FFFFF009FFFF2000
0000EFFFF30AFFFE0000
00009FFFF60CFFFB0000
00003FFFF61FFFF70000
00000EFFFD9FFFF70000
00000AFFFFFFFFF20000
000007FFFBEFFFC00000
0000003CB349CA400000
00000000100020000000
ENDCHAR
STARTCHAR Uring
ENCODING 366
SWIDTH 637 0
DWIDTH 18 0
BBX 18 33 0 -2
BITMAP
0000002BFFE6000000
000001EFFFFF600000
000006FE76DFE00000
000005FB002FE00000
000002FB001FB00000
000000EF96CF300000
000000BFFFF9000000
00000011AD81000000
000000000000000000
000000000000000000
12579AA90044430000
3BFFFFFC008FFFFC71
01EFFFFD00AFFFFF50
00BFFFFC00CFFFFB00
00BFFFF900BFFFF900
007FFFFD00BFFFF500
005FFFFF00CFFFF200
003FFFFF00CFFFD000
001FFFFF00DFFFA000
000EFFFE00EFFF6000
000CFFFB00EFFF3000
000AFFF801FFFF1000
000BFFF902FFFF1000
000BFFFB03FFFF0000
0009FFFD04FFFC0000
0009FFFF05FFFB0000
0004FFFF17FFF80000
0002FFFFAEFFF50000
0000EFFFFFFFF30000
0000AFFEBFFFB00000
00001BDB0B95200000
000004810381000000
000000000060000000
ENDCHAR
STARTCHAR uring
ENCODING 367
SWIDTH 708 0
DWIDTH 20 0
BBX 20 32 0 -1
BITMAP
000000018EFE90000000
0000000AFFFFFA000000
0000001FF86AFF400000
0000001FF100CF500000
0000000CF100BE100000
00000009FC79F8000000
00000006FFFFE1000000
0000000017CB20000000
00000000000000000000
00000000000000000000
00025899800143100000
2AFFFFFFD001FFFCC720
01DFFFFFC002FFFFFFF8
009FFFFFD006FFFFFF90
007FFFFFC005FFFFFE00
002FFFFFF002FFFFFC00
000EFFFFF202FFFFF500
000BFFFFF303FFFFE000
0008FFFFF304FFFFB000
0006FFFFF304FFFF8000
0003FFFFF105FFFF5000
0002FFFFE007FFFF3000
0001FFFFE00AFFFF3000
0000FFFFF009FFFF2000
0000EFFFF30AFFFE0000
00009FFFF60CFFFB0000
00003FFFF61FFFF70000
00000EFFFD9FFFF70000
00000AFFFFFFFFF20000
000007FFFBEFFFC00000
0000003CB349CA400000
00000000100020000000
ENDCHAR
STARTCHAR Uhungarumlaut
ENCODING 368
SWIDTH 637 0
DWIDTH 18 0
BBX 18 34 0 -2
BITMAP
000000D60000B80000
000005FF9102FF9720
00000BFFF907FFFF80
00003FFFE30DFFF900
00009FFF504FFFA000
0001EFF6009FFB0000
0007FF8001EFC10000
000EFA0006FC100000
000BB00004E2000000
000010000010000000
000000000000000000
12579AA90044430000
3BFFFFFC008FFFFC71
01EFFFFD00AFFFFF50
00BFFFFC00CFFFFB00
00BFFFF900BFFFF900
007FFFFD00BFFFF500
005FFFFF00CFFFF200
003FFFFF00CFFFD000
001FFFFF00DFFFA000
000EFFFE00EFFF6000
000CFFFB00EFFF3000
000AFFF801FFFF1000
000BFFF902FFFF1000
000BFFFB03FFFF0000
0009FFFD04FFFC0000
0009FFFF05FFFB0000
0004FFFF17FFF80000
0002FFFFAEFFF50000
0000EFFFFFFFF30000
0000AFFEBFFFB00000
00001BDB0B95200000
000004810381000000
000000000060000000
ENDCHAR
STARTCHAR uhungarumlaut
ENCODING 369
SWIDTH 708 0
DWIDTH 20 0
BBX 20 33 0 -1
BITMAP
0000000D60000B800000
0000005FF9102FF97200
000000CFFF808FFFF800
000003FFFE30DFFF9000
000009FFF404FFFA0000
00001EFF600AFFB00000
00007FF8001EFC100000
0000EF90007FC1000000
0000BB00005E20000000
00000100000100000000
00000000000000000000
00025899800143100000
2AFFFFFFD001FFFCC720
01DFFFFFC002FFFFFFF8
009FFFFFD006FFFFFF90
007FFFFFC005FFFFFE00
002FFFFFF002FFFFFC00
000EFFFFF202FFFFF500
000BFFFFF303FFFFE000
0008FFFFF304FFFFB000
0006FFFFF304FFFF8000
0003FFFFF105FFFF5000
0002FFFFE007FFFF3000
0001FFFFE00AFFFF3000
0000FFFFF009FFFF2000
0000EFFFF30AFFFE0000
00009FFFF60CFFFB0000
00003FFFF61FFFF70000
00000EFFFD9FFFF70000
00000AFFFFFFFFF20000
000007FFFBEFFFC00000
0000003CB349CA400000
00000000100020000000
ENDCHAR
STARTCHAR Uogonek
ENCODING 370
SWIDTH 637 0
DWIDTH 18 0
BBX 18 30 0 -9
BITMAP
12579AA90044430000
3BFFFFFC008FFFFC71
01EFFFFD00AFFFFF50
00BFFFFC00CFFFFB00
00BFFFF900BFFFF900
007FFFFD00BFFFF500
005FFFFF00CFFFF200
003FFFFF00CFFFD000
001FFFFF00DFFFA000
000EFFFE00EFFF6000
000CFFFB00EFFF3000
000AFFF801FFFF1000
000BFFF902FFFF1000
000BFFFB03FFFF0000
0009FFFD04FFFC0000
0009FFFF05FFFB0000
0004FFFF17FFF80000
0002FFFFAEFFF50000
0000EFFFFFFFF30000
0000AFFEDFFFB00000
00001BDB7FFA200000
000004819FF3000000
00000000CFF0000000
00000000EFE0000000
00000000DFF5000000
00000000BFFE866200
000000006FFFFFF500
000000000CFFFFF400
00000000008DFFF300
000000000000121000
ENDCHAR
STARTCHAR uogonek
ENCODING 371
SWIDTH 662 0
DWIDTH 19 0
BBX 20 30 0 -9
BITMAP
00025899800143100000
2BFFFFFFC003FFECC710
02EFFFFFB003FFFFFFF7
00AFFFFFC007FFFFFF80
008FFFFFA006FFFFFD00
003FFFFFE003FFFFFB00
001FFFFFF104FFFFF400
000DFFFFF204FFFFE000
000AFFFFF205FFFFA000
0007FFFFF206FFFF6000
0004FFFFE106FFFF4000
0003FFFFD009FFFF2000
0002FFFFD00CFFFF1000
0001FFFFE00AFFFF1000
0001FFFFF20BFFFE0000
0000AFFFF50DFFFA0000
00004FFFF51FFFF60000
00000EFFFCAFFFF60000
00000BFFFFFFFFE10000
000008FFFFFFFFB00000
0000013DFFF9BA300000
00000002FFA010000000
00000004FF7000000000
00000006FF7000000000
00000005FFC000000000
00000003FFFC65500000
00000000DFFFFFD00000
000000004FFFFFC00000
0000000003BFFFA00000
00000000000022100000
ENDCHAR
STARTCHAR Wcircumflex
ENCODING 372
SWIDTH 777 0
DWIDTH 22 0
BBX 22 34 0 -1
BITMAP
0000000021013100000000
00000002FFFFF700000000
00000009FFFFFE10000000
0000001EFFFFFF70000000
0000007FFFFFFFE1000000
000000DFFF5DFFF7000000
000005FFF503EFFE100000
00000CFF70005FFF800000
00004FF9000007FFE00000
00003DB00000008E300000
0000011000000001000000
0000000000221000000000
0000033302FF600A963000
0159DFFA05FF800FFFFD72
6EFFFFF909FFB04FFFFF94
03CFFFFC0BFFE0AFFFF600
000DFFFE0EFFF2BFFFD000
0005FFFF4FFFF7FFFF2000
0000DFFF7FFFFEFFF90000
0000BFFFCFFFFFFFF30000
0000AFFFFFFFFFFFC00000
00002FFFFFFFFFFF700000
000009FFFFFFFFFF300000
000002FFFFFFFFFF500000
000000DFFFFFFFFF200000
000000AFFFEFFFFD000000
0000006FFFCEFFFA000000
0000003FFFADFFF7000000
0000000EFF7BFFF5000000
0000000BFF69FFB0000000
00000007FF27FF70000000
00000002FF26FF40000000
000000004A479E20000000
0000000001200100000000
ENDCHAR
STARTCHAR wcircumflex
ENCODING 373
SWIDTH 704 0
DWIDTH 20 0
BBX 20 34 0 -1
BITMAP
00000002201310000000
0000000EFFFFA0000000
0000006FFFFFF3000000
000000CFFFFFFA000000
000004FFFFFFFF300000
00000BFFF6BFFFB00000
00002FFF901DFFF30000
00009FFA0002EFFB0000
0001EFC000004FFF2000
0002BD10000005F50000
00000100000000100000
00000000000000000000
0000222009A204210000
38CEFFD02FF405FFDA51
1BFFFFE05FF806FFFFB5
007FFFF37FFD0AFFFE00
000EFFF39FFF2BFFF800
0006FFF7CFFF5EFFF200
0003FFFBDFFFDFFFA000
0001FFFEDFFFFFFF4000
0000DFFFFFFFFFFE0000
00005FFFFFFFFFFA0000
00000DFFFFFFFFF70000
000007FFFFFFFFF70000
000004FFFFFFFFF40000
000001FFFFFFFFF20000
000000CFFFCFFFF20000
0000008FFF7FFFF20000
0000004FFF4EFFF10000
0000000EFF3DFFA00000
0000000AFF1AFF800000
00000006FE18FF700000
000000015509AD600000
00000000000101000000
ENDCHAR
STARTCHAR Ycircumflex
ENCODING 374
SWIDTH 688 0
DWIDTH 19 0
BBX 20 35 0 -2
BITMAP
00000002101310000000
0000002FFFFF70000000
0000009FFFFFE1000000
000001EFFFFFF7000000
000007FFFFFFFE100000
00000DFFF5DFFF700000
00005FFF503EFFE10000
0000CFF70005FFF80000
0004FF9000007FFE0000
0003DB00000008E30000
00001100000000100000
00000000000000000000
013669990000A5100000
3CFFFFFF6002FFFDB610
006EFFFFD104FFFFFFD6
0001AFFFF80AFFFFF600
00001EFFFE3FFFFF7000
000003EFFFEFFFF80000
0000005FFFFFFFB00000
0000000EFFFFFF400000
00000007FFFFFF100000
00000002FFFFFE000000
00000000DFFFFD000000
000000005FFFFB000000
000000001EFFFA000000
000000000BFFF9000000
0000000008FFF8000000
0000000006FFF7000000
0000000004FFF6000000
0000000003FFF6000000
0000000002FFF5000000
0000000001FFF4000000
0000000000EFF3000000
0000000000CB70000000
00000000001000000000
ENDCHAR
STARTCHAR ycircumflex
ENCODING 375
SWIDTH 604 0
DWIDTH 17 0
BBX 17 35 0 -2
BITMAP
000001210230000000
000008FFFFE1000000
00001EFFFFF9000000
00006FFFFFFF200000
0000DFFFFFFF900000
0005FFFC6FFFF20000
000BFFD108FFF90000
003FFE2000AFFF2000
00AFF300001CFF8000
007F50000001DB1000
000100000000100000
000000000000000000
002668600056000000
1BFFFFF501CFFC9300
009FFFFC01FFFFF810
0005EFFF27FFFF7000
00007FFF6DFFF90000
00003FFFEFFFD10000
000005FFFFFF300000
000002FFFFFE000000
000000EFFFFC000000
000000BFFFFA000000
0000007FFFF9000000
0000004FFFF7000000
0000000FFFF6000000
0000000CFFF5000000
00000009FFF3000000
00000009FFF1000000
00000009FFF3000000
0000000AFFF2000000
0000000AFFF1000000
0000000AFFD0000000
0000000AFFA0000000
00000008FDA0000000
000000045010000000
ENDCHAR
STARTCHAR Ydieresis
ENCODING 376
SWIDTH 688 0
DWIDTH 19 0
BBX 20 32 0 -2
BITMAP
00000000000002430000
0008EDAC601BDFFFB000
000BFFFFA00EFFFFB000
000CFFFFA00EFFFFA000
000CFFFFA00EFFFFB000
000CFFFF900EFFFFD000
000CFFFF900EFFFFB000
00047798400475353000
00000000000000000000
013669990000A5100000
3CFFFFFF6002FFFDB610
006EFFFFD104FFFFFFD6
0001AFFFF80AFFFFF600
00001EFFFE3FFFFF7000
000003EFFFEFFFF80000
0000005FFFFFFFB00000
0000000EFFFFFF400000
00000007FFFFFF100000
00000002FFFFFE000000
00000000DFFFFD000000
000000005FFFFB000000
000000001EFFFA000000
000000000BFFF9000000
0000000008FFF8000000
0000000006FFF7000000
0000000004FFF6000000
0000000003FFF6000000
0000000002FFF5000000
0000000001FFF4000000
0000000000EFF3000000
0000000000CB70000000
00000000001000000000
ENDCHAR
STARTCHAR Zacute
ENCODING 377
SWIDTH 695 0
DWIDTH 19 0
BBX 19 31 1 -1
BITMAP
00000000000000011000
000000000000002D8000
00000000000003EFE000
0000000000005EFFF500
000000000007FFFFFF80
0000000001CFFFFFC830
0000000003FFEA620000
00000000008400000000
00000000000000000000
00379AA9AAA861000000
AEFFFFFFFFFFFFEB6310
BFFFFFFFFFFFFFFFFB10
4FFFFFFFFFFFFFFFE100
0BFFFFFFFFFFFFFF7000
04FFFFFFFFFFFFFE1000
00EFFFFFFFFFFFF80000
00AFFFFFFFFFFFF20000
007FFFFFFFFFFF900000
006FFD88FFFFFD100000
004E5008FFFFB2000000
0001003FFFFC00000000
0000009FFFE100000000
000000DFFF5000000000
000003FFFA0000000000
000007FFE20000000000
00000DFF900000000000
00007FFFEDC920000000
0001EFFFFFFF50000000
0004FFFFFFFC00000000
0002FDBFFFF800000000
0000230337A000000000
ENDCHAR
STARTCHAR zacute
ENCODING 378
SWIDTH 622 0
DWIDTH 17 0
BBX 18 32 1 -2
BITMAP
000000000000002000
00000000000008E100
000000000000AFF500
00000000001CFFFB10
0000000003DFFFFFC2
000000006FFFFFEA51
00000000CFFC830000
000000005610000000
000000000000000000
0159BBABBBB6520000
CFFFFFFFFFFFFEE300
AFFFFFFFFFFFFFF200
3FFFFFFFFFFFFFB000
09FFFFFFFFFFFF3000
02FFFFFFFFFFFC0000
00BFFFFFFFFFF90000
008FFFFFFFFFF70000
006FFFFFFFFFF20000
003FFEABFFFF800000
001F601EFFF9000000
0003004FFFD1000000
000000BFFF30000000
000000DFFB00000000
000004FFF500000000
000006FFC000000000
00000DFF8000000000
00001FFF9885000000
00006FFFFFFD000000
0000CFFFFFF8000000
0000BFFFFFF9000000
0000591889D6000000
000000000051000000
ENDCHAR
STARTCHAR Zdotaccent
ENCODING 379
SWIDTH 695 0
DWIDTH 19 0
BBX 19 32 1 -1
BITMAP
00000599CEFD80000000
000009FFFFFFB0000000
000006FFFFFFA0000000
000004FFFFFFA0000000
000003FFFFFFD0000000
000002FFFFFFC0000000
000001FFFFFFB0000000
000000FFFFFFA0000000
00000098522420000000
00000000000000000000
00379AA9AAA861000000
AEFFFFFFFFFFFFEB6310
BFFFFFFFFFFFFFFFFB10
4FFFFFFFFFFFFFFFE100
0BFFFFFFFFFFFFFF7000
04FFFFFFFFFFFFFE1000
00EFFFFFFFFFFFF80000
00AFFFFFFFFFFFF20000
007FFFFFFFFFFF900000
006FFD88FFFFFD100000
004E5008FFFFB2000000
0001003FFFFC00000000
0000009FFFE100000000
000000DFFF5000000000
000003FFFA0000000000
000007FFE20000000000
00000DFF900000000000
00007FFFEDC920000000
0001EFFFFFFF50000000
0004FFFFFFFC00000000
0002FDBFFFF800000000
0000230337A000000000
ENDCHAR
STARTCHAR zdotaccent
ENCODING 380
SWIDTH 622 0
DWIDTH 17 0
BBX 16 33 1 -2
BITMAP
000389BEFEB20000
0002FFFFFFF30000
0000EFFFFFF20000
0000DFFFFFF20000
0000BFFFFFF50000
0000AFFFFFF40000
00009FFFFFF30000
00008FFFFFF20000
0000597323300000
0000000000000000
0159BBABBBB65200
CFFFFFFFFFFFFEE3
AFFFFFFFFFFFFFF2
3FFFFFFFFFFFFFB0
09FFFFFFFFFFFF30
02FFFFFFFFFFFC00
00BFFFFFFFFFF900
008FFFFFFFFFF700
006FFFFFFFFFF200
003FFEABFFFF8000
001F601EFFF90000
0003004FFFD10000
000000BFFF300000
000000DFFB000000
000004FFF5000000
000006FFC0000000
00000DFF80000000
00001FFF98850000
00006FFFFFFD0000
0000CFFFFFF80000
0000BFFFFFF90000
0000591889D60000
0000000000510000
ENDCHAR
STARTCHAR Zcaron
ENCODING 381
SWIDTH 693 0
DWIDTH 19 0
BBX 19 37 1 -1
BITMAP
00001300000012000000
0002CE200000CD200000
000BFFC00008FFD10000
0005FFF6002FFFC00000
0000DFFD00BFFF500000
00008FFF75FFFD000000
00002FFFFEFFF6000000
00000AFFFFFFD0000000
000004FFFFFF70000000
000000DFFFFE10000000
00000047568500000000
00000000000000000000
00000000000000000000
00000000000000000000
00000000000000000000
00379AA9AA9861000000
AEFFFFFFFFFFFFEB6310
BFFFFFFFFFFFFFFFFA00
4FFFFFFFFFFFFFFFE100
0BFFFFFFFFFFFFFF7000
04FFFFFFFFFFFFFE1000
00EFFFFFFFFFFFF80000
00AFFFFFFFFFFFF20000
007FFFFFFFFFFF900000
006FFD88FFFFFD100000
005E4008FFFFB2000000
0001002FFFFC00000000
0000009FFFE100000000
000000DFFF5000000000
000003FFFA0000000000
000007FFE20000000000
00000EFF800000000000
00007FFFEDC920000000
0001EFFFFFFF50000000
0004FFFFFFFB00000000
0002FDBFFFF800000000
0000230337A000000000
ENDCHAR
STARTCHAR zcaron
ENCODING 382
SWIDTH 621 0
DWIDTH 17 0
BBX 16 38 1 -2
BITMAP
0004100000041000
008FB000004FB100
02FFF80001EFFB00
00BFFF2008FFF800
005FFF902FFFE100
000DFFF3CFFF8000
0007FFFEFFFE1000
0001FFFFFFF80000
00009FFFFFF10000
00003FFFFF800000
0000055357100000
0000000000000000
0000000000000000
0000000000000000
0000000000000000
0159BBABBBB65200
CFFFFFFFFFFFFEE3
AFFFFFFFFFFFFFF2
3FFFFFFFFFFFFFA0
0AFFFFFFFFFFFF20
02FFFFFFFFFFFC00
00BFFFFFFFFFF800
008FFFFFFFFFF700
006FFFFFFFFFF200
004FFEABFFFF7000
001F601EFFF80000
0003004FFFD10000
000000BFFF300000
000000DFFB000000
000005FFF4000000
000006FFC0000000
00000DFF80000000
00001FFF98850000
00007FFFFFFD0000
0000CFFFFFF80000
0000CFFFFFF80000
0000591889D60000
0000000000510000
ENDCHAR
STARTCHAR DZ
ENCODING 497
SWIDTH 194 0
DWIDTH 5 0
BBX 1 1 0 0
BITMAP
00
ENDCHAR
STARTCHAR Dz
ENCODING 498
SWIDTH 194 0
DWIDTH 5 0
BBX 1 1 0 0
BITMAP
00
ENDCHAR
STARTCHAR dotlessj
ENCODING 567
SWIDTH 458 0
DWIDTH 13 0
BBX 14 23 -1 -2
BITMAP
000058AA852000
00003FFFFFFD91
00000BFFFFFF30
000007FFFFFF30
000003FFFFFE00
000000DFFFF900
000000CFFFF500
000000CFFFF600
000000CFFFF600
000000CFFFF500
000000CFFFF300
000000CFFFF200
0000007FFFF100
0000208FFFD000
279B608FFFC000
8FFF808FFFC000
3FFFD07FFFA000
0CFFF3BFFF7000
0BFFFFFFFF4000
04FFFFFFFD0000
006DEFFFFA0000
0000146B570000
00000000010000
ENDCHAR
STARTCHAR circumflex
ENCODING 710
SWIDTH 528 0
DWIDTH 15 0
BBX 13 11 1 19
BITMAP
00012102300000
0007FFFFF20000
000DFFFFF90000
005FFFFFFF2000
00CFFFFFFFA000
04FFFC5FFFF300
0AFFE207FFFA00
2FFE3000AFFF30
9FF400000BFF90
6F60000001CB10
01000000001000
ENDCHAR
STARTCHAR caron
ENCODING 711
SWIDTH 486 0
DWIDTH 14 0
BBX 14 11 0 19
BITMAP
01930000008400
3DFE200006FF40
3FFFB0002EFFE1
0BFFF400AFFF90
04FFFC05FFFE10
00DFFF7EFFF800
006FFFFFFFE100
000EFFFFFF8000
0008FFFFFE1000
0001FFEFF70000
00001101310000
ENDCHAR
STARTCHAR breve
ENCODING 728
SWIDTH 464 0
DWIDTH 13 0
BBX 11 9 1 -3
BITMAP
BDD800023210
9FFA0009FFD0
5FFD101EFF80
2FFFD9BFFF50
0DFFFFFFFD00
047DFFFFF500
000571FDD000
000000918000
000000001000
ENDCHAR
STARTCHAR dotaccent
ENCODING 729
SWIDTH 388 0
DWIDTH 11 0
BBX 9 9 1 6
BITMAP
489BEFEB10
4FFFFFFF10
1FFFFFFF00
0FFFFFFE10
0DFFFFFF30
0CFFFFFF20
0BFFFFFF10
0AFFFFFF00
0686324300
ENDCHAR
STARTCHAR ring
ENCODING 730
SWIDTH 370 0
DWIDTH 10 0
BBX 8 8 1 8
BITMAP
03BFED40
2EFFFFF4
8FD67DFD
7F9003FD
4F9003F9
0FF97DF1
0CFFFF80
012AE610
ENDCHAR
STARTCHAR ogonek
ENCODING 731
SWIDTH 360 0
DWIDTH 10 0
BBX 8 11 1 -1
BITMAP
07980000
0EFD0000
3FF90000
6FF60000
8FF60000
7FFB0000
4FFFB655
0EFFFFFC
05FFFFFB
004BFFF9
00000221
ENDCHAR
STARTCHAR tilde
ENCODING 732
SWIDTH 535 0
DWIDTH 15 0
BBX 13 7 1 -3
BITMAP
018200029D6000
3DFE205CFFF900
DFFFDCFFFFFF60
4FFFFFFFFFFFC0
07FFFFFCCFFE20
007EFC4005B200
00002000000000
ENDCHAR
STARTCHAR hungarumlaut
ENCODING 733
SWIDTH 554 0
DWIDTH 16 0
BBX 14 10 1 19
BITMAP
000A900008A100
002FFB200DFA83
008FFFC04FFFFB
00EFFF60AFFFC1
05FFF801EFFD10
0BFFA006FFD200
4FFB000CFE2000
BFC1003FE20000
7D10002D500000
01000001000000
ENDCHAR
STARTCHAR dotaccentcmb
ENCODING 775
SWIDTH 396 0
DWIDTH 11 0
BBX 9 10 1 10
BITMAP
0000233000
5CDEFFFF20
1FFFFFFF20
0EFFFFFF10
0DFFFFFF30
0CFFFFFF40
0AFFFFFF30
0AFFFFFF20
09FFEDEE10
0353000000
ENDCHAR
STARTCHAR uni030F
ENCODING 783
SWIDTH 549 0
DWIDTH 15 0
BBX 15 10 0 19
BITMAP
0006C00004D20000
169EF5007FF80000
5FFFFA06FFFE0000
06FFFF12DFFF5000
007FFF603EFFC000
0009FFC004FFF300
00009FF3006FFA00
00000AF90007FF30
000001C700008D10
0000001000000100
ENDCHAR
STARTCHAR uni0311
ENCODING 785
SWIDTH 490 0
DWIDTH 14 0
BBX 12 8 1 10
BITMAP
000035440000
009EFFFFA200
03FFFFFFFB00
0AFFFFFFFF40
0DFFC55EFFA0
1FFF2008FFE0
6FFE0004FFF2
599800002341
ENDCHAR
STARTCHAR uni0326
ENCODING 806
SWIDTH 360 0
DWIDTH 10 0
BBX 8 13 1 -3
BITMAP
06974462
0FFFFFF7
1FFFFFF8
1FFFFFF9
2FFFFFF8
3FFFFFF8
3FFFFFF8
05449FF8
00007FF5
0000AFF3
0000DFF1
0000EFD0
00008860
ENDCHAR
STARTCHAR endash
ENCODING 8211
SWIDTH 478 0
DWIDTH 13 0
BBX 11 6 1 8
BITMAP
277755655650
5FFFFFFFFFA0
6FFFFFFFFF50
6FFFFFFFFF20
7FFFFFFFFF20
37BDD9CAAE10
ENDCHAR
STARTCHAR emdash
ENCODING 8212
SWIDTH 567 0
DWIDTH 16 0
BBX 14 6 1 8
BITMAP
27775456775662
5FFFFFFFFFFFF2
6FFFFFFFFFFFC0
6FFFFFFFFFFFA0
7FFFFFFFFFFFA0
37BDD85CEBAD80
ENDCHAR
STARTCHAR quoteleft
ENCODING 8216
SWIDTH 373 0
DWIDTH 10 0
BBX 8 15 1 6
BITMAP
04881000
0AFF2000
0CFF1000
0EFE0000
2FFB0000
4FFB4122
5FFFFFFE
5FFFFFFF
5FFFFFFE
6FFFFFFD
6FFFFFFD
5FFFFFFC
4FFFFFFB
3DCBEFFA
00000110
ENDCHAR
STARTCHAR quoteright
ENCODING 8217
SWIDTH 369 0
DWIDTH 10 0
BBX 8 15 1 6
BITMAP
37863352
8FFFFFF7
8FFFFFF8
9FFFFFF9
9FFFFFFA
AFFFFFF9
AFFFFFF9
BFFFFFF8
7B9CEFF8
00006FF6
00008FF4
0000BFF2
0000EFF0
0000EFC0
00001100
ENDCHAR
STARTCHAR quotesinglbase
ENCODING 8218
SWIDTH 369 0
DWIDTH 10 0
BBX 8 15 1 6
BITMAP
37863352
8FFFFFF7
8FFFFFF8
9FFFFFF9
9FFFFFFA
AFFFFFF9
AFFFFFF9
BFFFFFF8
7B9CEFF8
00006FF6
00008FF4
0000BFF2
0000EFF0
0000EFC0
00001100
ENDCHAR
STARTCHAR quotedblleft
ENCODING 8220
SWIDTH 687 0
DWIDTH 19 0
BBX 17 15 1 6
BITMAP
048810000058800000
0AFF200000DFE00000
0CFF100000FFD00000
0EFE000002FFB00000
2FFB000005FF800000
4FFB412207FF941210
5FFFFFFE08FFFFFFB0
5FFFFFFF08FFFFFFB0
5FFFFFFE08FFFFFFB0
6FFFFFFD09FFFFFFA0
5FFFFFFD09FFFFFFA0
5FFFFFFC08FFFFFF90
4FFFFFFC07FFFFFF90
3DCBEFFA05DBCEFF80
000001100000001100
ENDCHAR
STARTCHAR quotedblright
ENCODING 8221
SWIDTH 677 0
DWIDTH 19 0
BBX 17 15 1 6
BITMAP
488777700377534400
8FFFFFF108FFFFFF10
9FFFFFF208FFFFFF20
9FFFFFF309FFFFFF30
AFFFFFF309FFFFFF40
AFFFFFF20AFFFFFF30
BFFFFFF20AFFFFFF30
BFFFFFF20BFFFFFF20
8CCDEFF207B9CEFF30
00007FF000000BFF10
0000AFD000000EFE00
0000CFB000002FFB00
0000FF9000004FF900
0000FF7000004FF700
000021000000011000
ENDCHAR
STARTCHAR quotedblbase
ENCODING 8222
SWIDTH 697 0
DWIDTH 20 0
BBX 18 15 1 -9
BITMAP
012000000012100000
7FFFDCE700FFFECEC0
7FFFFFF801FFFFFFF0
8FFFFFF901FFFFFFF1
9FFFFFFA02FFFFFFF2
9FFFFFFA03FFFFFFF2
AFFFFFF903FFFFFFF1
AFFFFFF904FFFFFFF0
AFFFFFF903FFFFFFF1
11037FF8002014DFF0
00007FF6000000FFC0
00009FF3000003FFA0
0000CFF1000005FF80
0000DFE0000007FF60
000067500000037620
ENDCHAR
STARTCHAR ellipsis
ENCODING 8230
SWIDTH 1462 0
DWIDTH 41 0
BBX 39 9 1 1
BITMAP
377ACDB400000001578CDC700000000378BDDA40
7FFFFFF700000001DFFFFFC000000008FFFFFF60
3FFFFFF700000000AFFFFFB000000005FFFFFF60
1FFFFFF6000000008FFFFFB000000003FFFFFF50
0FFFFFF9000000007FFFFFE000000002FFFFFF90
0EFFFFF8000000006FFFFFD000000001FFFFFF80
0DFFFFF7000000005FFFFFC000000000FFFFFF70
0CFFFFF6000000004FFFFFB000000000FFFFFF60
09A84462000000003B95364000000000B9644620
ENDCHAR
STARTCHAR guilsinglleft
ENCODING 8249
SWIDTH 459 0
DWIDTH 13 0
BBX 12 17 0 1
BITMAP
000013221110
0000AFFFFFFC
0000AFFFFFE2
0002FFFFFE20
0009FFFFF600
007FFFFFB000
07FFFFFE2000
1FFFFFF40000
1DFFFFE20000
06FFFFFD0000
01EFFFFF1000
002EFFFF9000
0004FFFFF800
00007FFFFF70
000008FFFFF9
0000007BAEEB
000000000020
ENDCHAR
STARTCHAR guilsinglright
ENCODING 8250
SWIDTH 432 0
DWIDTH 12 0
BBX 12 16 0 2
BITMAP
133332500000
1DFFFFFC0000
04FFFFFD0000
009FFFFF4000
000BFFFFE100
0002EFFFFA00
00007FFFFF70
000009FFFFF2
000019FFFFE1
00001FFFFF90
00007FFFFF60
0003FFFFF300
004EFFFF9000
06FFFFFE1000
0DFFFFF50000
08BBA9600000
ENDCHAR
STARTCHAR fraction
ENCODING 8260
SWIDTH 371 0
DWIDTH 10 0
BBX 12 22 -1 -1
BITMAP
1358AA8B8541
06FFFFFFFFC1
00BFFFFFFF60
000CFFFFFE10
0004FFFFF900
0001FFFFFA00
0002FFFFF600
0002FFFFF300
0003FFFFF000
0003FFFFD000
0002FFFFB000
0001FFFFB000
0000EFFFC000
0000BFFFD000
00008FFF9000
00005FFF7000
00004FFF6000
00003FFF5000
00003FFF5000
00002FFF4000
00000EAF3000
0000021B4000
ENDCHAR
STARTCHAR Euro
ENCODING 8364
SWIDTH 587 0
DWIDTH 16 0
BBX 16 27 0 -6
BITMAP
00000058ABB91000
000008FFFFFFE400
0000AFFFFFFFFE30
0007FFFFFFFFFFC1
000CFFFFFFFFFFF3
000FFFFFFFFFFFF2
001FFFFFFFFFFFF3
000FFFFFFFFFFFF3
000DFFFFFFFFFFF1
000BFFFFD7FFFFF0
0009FFFF30CFFFF1
477BFFFFC46FFFD0
7FFFFFFFD1365550
0126FFFE00000000
2778FFFE73000000
6FFFFFFFF6585100
0101CFFF51CFFF20
0000AFFF51EFFD00
00004FFFCBFFFA00
00001FFFFFFFF400
00000CFFFFFF7000
0000014D6AFB0000
0000000804900000
0000000A05700000
0000000B15100000
0000000328000000
0000000007000000
ENDCHAR
STARTCHAR trademark
ENCODING 8482
SWIDTH 785 0
DWIDTH 22 0
BBX 22 16 0 6
BITMAP
0000000000000020211000
49ABCCB9624ADFE0BEEB82
3FFFFFFFF51EFFF2BFFF80
0DFFFFFFD008FFF7FFFF40
0AFFFFFFE008FFFEFFFF10
08FFFFFFC004FFFFFFFE00
08FFFFEEA002FFFFFFFD00
0231EFB03002FFFFFFFD00
0000EFB00000EFDFFDFD00
0000EFA00000CF9FCCFC00
0000EF9000009F9FBBFA00
0000DF8000008F8E8BF700
0000BF9000006F8A5DF600
0000BF9000005723127300
0000CC6000000000000000
0000210000000000000000
ENDCHAR
STARTCHAR minus
ENCODING 8722
SWIDTH 478 0
DWIDTH 13 0
BBX 11 6 1 8
BITMAP
277755655650
5FFFFFFFFFA0
6FFFFFFFFF50
6FFFFFFFFF20
7FFFFFFFFF20
37BDD9CAAE10
ENDCHAR
STARTCHAR commaaccent
ENCODING 63171
SWIDTH 360 0
DWIDTH 10 0
BBX 8 15 1 -5
BITMAP
37964462
7FFFFFF7
8FFFFFF8
8FFFFFF9
9FFFFFFA
AFFFFFF9
AFFFFFF9
BFFFFFF9
6A8BDFF9
00005FF7
00008FF5
0000BFF2
0000DFF0
0000DFD0
00001000
ENDCHAR
STARTCHAR .notdef
ENCODING -1
SWIDTH 365 0
DWIDTH 10 0
BBX 9 19 0 0
BITMAP
1AAAAAAA40
1D44444A60
1D00000860
1D00000860
1D00000860
1D00000860
1D00000860
1D00000860
1D00000860
1D00000860
1D00000860
1D00000860
1D00000860
1D00000860
1D00000860
1D00000860
1D00000860
1D00000860
1FEEEEEF60
ENDCHAR
STARTCHAR .null
ENCODING -1
SWIDTH 0 0
DWIDTH 0 0
BBX 1 1 0 0
BITMAP
00
ENDCHAR
STARTCHAR nonmarkingreturn
ENCODING -1
SWIDTH 333 0
DWIDTH 9 0
BBX 1 1 0 0
BITMAP
00
ENDCHAR
ENDFONT
